<?xml version="1.0" encoding="utf-8"?>
<!-- Generator: Adobe Illustrator 27.5.0, SVG Export Plug-In . SVG Version: 6.00 Build 0)  -->
<svg version="1.1" xmlns="http://www.w3.org/2000/svg" xmlns:xlink="http://www.w3.org/1999/xlink" x="0px" y="0px"
	 viewBox="0 0 500 500" style="enable-background:new 0 0 500 500;" xml:space="preserve">
<g id="BACKGROUND">
	<radialGradient id="SVGID_1_" cx="202.0933" cy="118.0967" r="683.639" gradientUnits="userSpaceOnUse">
		<stop  offset="0" style="stop-color:#FFFFFF"/>
		<stop  offset="1" style="stop-color:#E6F4FF"/>
	</radialGradient>
	<rect x="-0.001" style="fill:transparent;" width="500.002" height="500.001"/>
</g>
<g id="OBJECTS">
	<g>
		<g>
			<g>
				
					<linearGradient id="SVGID_00000018230916118365168260000001326930673054675334_" gradientUnits="userSpaceOnUse" x1="288.3521" y1="172.1422" x2="288.3521" y2="205.3356">
					<stop  offset="0" style="stop-color:#55617D"/>
					<stop  offset="1" style="stop-color:#363E4F"/>
				</linearGradient>
				<polygon style="fill:url(#SVGID_00000018230916118365168260000001326930673054675334_);" points="299.597,166.295 
					299.597,189.59 277.107,202.659 277.107,179.364 				"/>
				
					<linearGradient id="SVGID_00000136381722099689026550000006987844928492197800_" gradientUnits="userSpaceOnUse" x1="248.3923" y1="168.3972" x2="278.44" y2="196.1668">
					<stop  offset="0" style="stop-color:#55617D"/>
					<stop  offset="1" style="stop-color:#363E4F"/>
				</linearGradient>
				<polygon style="fill:url(#SVGID_00000136381722099689026550000006987844928492197800_);" points="277.107,179.364 
					277.107,202.659 254.48,189.595 254.48,166.301 				"/>
				
					<linearGradient id="SVGID_00000122707739914280575290000008344290385329899701_" gradientUnits="userSpaceOnUse" x1="271.8611" y1="161.3633" x2="316.0492" y2="203.4777">
					<stop  offset="0" style="stop-color:#55617D"/>
					<stop  offset="1" style="stop-color:#363E4F"/>
				</linearGradient>
				<polygon style="fill:url(#SVGID_00000122707739914280575290000008344290385329899701_);" points="299.597,166.295 
					277.107,179.364 254.48,166.301 276.97,153.231 				"/>
				
					<linearGradient id="SVGID_00000121980123012820615700000003649017470674206106_" gradientUnits="userSpaceOnUse" x1="265.7939" y1="166.4841" x2="285.4521" y2="166.4841">
					<stop  offset="0" style="stop-color:#FFFFFF"/>
					<stop  offset="1" style="stop-color:#E6F4FF"/>
				</linearGradient>
				<path style="fill:url(#SVGID_00000121980123012820615700000003649017470674206106_);" d="M280.728,160.785l-14.935,5.486
					l2.489,1.437l2.688-0.998l4.29,2.477l-1.714,1.561l2.489,1.436l9.416-8.671L280.728,160.785z M273.587,165.73l7.028-2.646
					l0.867,0.501l-4.54,4.083L273.587,165.73z"/>
				<polygon style="opacity:0.5;fill:#FFFFFF;" points="254.48,166.301 254.48,166.941 277.107,180.005 299.597,166.936 
					299.597,166.295 277.107,179.364 				"/>
			</g>
			<g>
				
					<linearGradient id="SVGID_00000016069153757373131110000011397975554904110775_" gradientUnits="userSpaceOnUse" x1="323.0083" y1="139.918" x2="323.0083" y2="229.9244">
					<stop  offset="0" style="stop-color:#8EA3CF"/>
					<stop  offset="1" style="stop-color:#798BB0"/>
				</linearGradient>
				<polygon style="fill:url(#SVGID_00000016069153757373131110000011397975554904110775_);" points="334.253,124.063 
					334.253,209.598 311.764,222.667 311.764,137.132 				"/>
				
					<linearGradient id="SVGID_00000067915716950594206370000005596680008370690183_" gradientUnits="userSpaceOnUse" x1="265.2465" y1="140.8326" x2="326.0327" y2="197.0104">
					<stop  offset="0" style="stop-color:#8EA3CF"/>
					<stop  offset="1" style="stop-color:#798BB0"/>
				</linearGradient>
				<polygon style="fill:url(#SVGID_00000067915716950594206370000005596680008370690183_);" points="311.764,137.132 
					311.764,222.667 289.137,209.603 289.137,124.068 				"/>
				
					<linearGradient id="SVGID_00000007402523543378924990000009809908536916036008_" gradientUnits="userSpaceOnUse" x1="306.5172" y1="119.1309" x2="350.7054" y2="161.2453">
					<stop  offset="0" style="stop-color:#8EA3CF"/>
					<stop  offset="1" style="stop-color:#798BB0"/>
				</linearGradient>
				<polygon style="fill:url(#SVGID_00000007402523543378924990000009809908536916036008_);" points="334.253,124.063 
					311.764,137.132 289.137,124.068 311.626,110.998 				"/>
				
					<linearGradient id="SVGID_00000077311786243576004740000002576321545648462783_" gradientUnits="userSpaceOnUse" x1="301.4219" y1="124.0185" x2="320.5375" y2="124.0185">
					<stop  offset="0" style="stop-color:#FFFFFF"/>
					<stop  offset="1" style="stop-color:#E6F4FF"/>
				</linearGradient>
				<path style="fill:url(#SVGID_00000077311786243576004740000002576321545648462783_);" d="M314.978,126.104
					c1.579,0.211,2.66,0.023,4.039-0.779c2.327-1.353,1.868-2.654-0.601-4.08l-4.816-2.78l-12.179,7.077l4.89,2.823
					c2.449,1.415,5.038,1.687,7.478,0.27C315.361,127.721,315.575,126.971,314.978,126.104z M311.392,127.105
					c-1.205,0.7-2.069,0.554-3.097-0.039l-2.275-1.313l2.977-1.729l2.274,1.313C312.264,125.911,312.394,126.523,311.392,127.105z
					 M313.297,124.097l-2.221-1.282l2.903-1.688l2.201,1.271c0.94,0.543,0.996,1.074-0.01,1.659
					C315.203,124.62,314.271,124.659,313.297,124.097z"/>
				<polygon style="opacity:0.5;fill:#FFFFFF;" points="289.137,124.068 289.137,124.709 311.764,137.773 334.253,124.703 
					334.253,124.063 311.764,137.132 				"/>
			</g>
			<g>
				
					<linearGradient id="SVGID_00000034780413083075002790000000496726679091903150_" gradientUnits="userSpaceOnUse" x1="357.6635" y1="183.1207" x2="357.6635" y2="247.8985">
					<stop  offset="0" style="stop-color:#D4E2FF"/>
					<stop  offset="1" style="stop-color:#B9CAED"/>
				</linearGradient>
				<polygon style="fill:url(#SVGID_00000034780413083075002790000000496726679091903150_);" points="368.908,171.71 
					368.908,229.606 346.419,242.675 346.419,184.779 				"/>
				
					<linearGradient id="SVGID_00000000933837699194625770000000336706740979861634_" gradientUnits="userSpaceOnUse" x1="307.8059" y1="181.9656" x2="354.9429" y2="225.5291">
					<stop  offset="0" style="stop-color:#D4E2FF"/>
					<stop  offset="1" style="stop-color:#B9CAED"/>
				</linearGradient>
				<polygon style="fill:url(#SVGID_00000000933837699194625770000000336706740979861634_);" points="346.419,184.779 
					346.419,242.675 323.791,229.611 323.791,171.715 				"/>
				
					<linearGradient id="SVGID_00000003807238067304314560000007424489669173922703_" gradientUnits="userSpaceOnUse" x1="341.1719" y1="166.7774" x2="385.3616" y2="208.8933">
					<stop  offset="0" style="stop-color:#D4E2FF"/>
					<stop  offset="1" style="stop-color:#B9CAED"/>
				</linearGradient>
				<polygon style="fill:url(#SVGID_00000003807238067304314560000007424489669173922703_);" points="368.908,171.71 
					346.419,184.779 323.791,171.715 346.28,158.645 				"/>
				
					<linearGradient id="SVGID_00000155133188487164745850000017380274267751884708_" gradientUnits="userSpaceOnUse" x1="337.9656" y1="171.7091" x2="355.9785" y2="171.7091">
					<stop  offset="0" style="stop-color:#FFFFFF"/>
					<stop  offset="1" style="stop-color:#E6F4FF"/>
				</linearGradient>
				<path style="fill:url(#SVGID_00000155133188487164745850000017380274267751884708_);" d="M342.88,174.116
					c-2.123-1.226-1.715-1.965,1.566-3.872c3.454-2.008,4.711-2.05,6.605-0.956c0.809,0.467,2.183,1.423,2.89,1.977l2.037-1.104
					c-0.575-0.54-1.824-1.614-3.1-2.351c-3.644-2.104-6.375-1.729-10.994,0.956c-4.268,2.48-5.409,4.187-1.621,6.374
					c1.115,0.644,2.97,1.445,3.982,1.822l1.973-1.209C345.387,175.401,343.713,174.597,342.88,174.116z"/>
				<polygon style="opacity:0.5;fill:#FFFFFF;" points="323.791,171.715 323.791,172.355 346.419,185.42 368.908,172.35 
					368.908,171.71 346.419,184.779 				"/>
			</g>
			<g>
				
					<linearGradient id="SVGID_00000139996419662636594000000004442203190449697157_" gradientUnits="userSpaceOnUse" x1="392.3271" y1="144.5656" x2="392.3271" y2="273.043">
					<stop  offset="0" style="stop-color:#FFDB0D"/>
					<stop  offset="1" style="stop-color:#FFA408"/>
				</linearGradient>
				<polygon style="fill:url(#SVGID_00000139996419662636594000000004442203190449697157_);" points="403.571,121.933 
					403.571,249.615 381.083,262.684 381.083,135.002 				"/>
				
					<linearGradient id="SVGID_00000005974297075912502120000011374256860501448840_" gradientUnits="userSpaceOnUse" x1="322.5115" y1="148.6353" x2="404.1122" y2="224.0496">
					<stop  offset="0" style="stop-color:#FFDB0D"/>
					<stop  offset="1" style="stop-color:#FFA408"/>
				</linearGradient>
				<polygon style="fill:url(#SVGID_00000005974297075912502120000011374256860501448840_);" points="381.083,135.002 
					381.083,262.684 358.456,249.619 358.456,121.939 				"/>
				
					<linearGradient id="SVGID_00000158750160834416613590000009354566068157207984_" gradientUnits="userSpaceOnUse" x1="375.8363" y1="117.0016" x2="420.0234" y2="159.1151">
					<stop  offset="0" style="stop-color:#FFDB0D"/>
					<stop  offset="1" style="stop-color:#FFA408"/>
				</linearGradient>
				<polygon style="fill:url(#SVGID_00000158750160834416613590000009354566068157207984_);" points="403.571,121.933 
					381.083,135.002 358.456,121.939 380.945,108.869 				"/>
				
					<linearGradient id="SVGID_00000103969017684776512380000014094967489098409656_" gradientUnits="userSpaceOnUse" x1="371.5156" y1="120.449" x2="390.6496" y2="120.449">
					<stop  offset="0" style="stop-color:#FFFFFF"/>
					<stop  offset="1" style="stop-color:#E6F4FF"/>
				</linearGradient>
				<path style="fill:url(#SVGID_00000103969017684776512380000014094967489098409656_);" d="M387.824,117.321l-4.13-2.385
					l-12.179,7.078l4.13,2.384c4.398,2.539,7.378,1.749,11.535-0.667C391.229,121.378,392.1,119.789,387.824,117.321z
					 M384.618,122.252c-2.704,1.572-4.408,2.291-6.824,0.896l-1.642-0.947l7.882-4.58l1.642,0.947
					C388.091,119.963,387.284,120.703,384.618,122.252z"/>
				<polygon style="opacity:0.5;fill:#FFFFFF;" points="358.456,121.939 358.456,122.579 381.083,135.643 403.571,122.574 
					403.571,121.933 381.083,135.002 				"/>
			</g>
		</g>
		<g>
			<g>
				<path style="fill:#FFFFFF;" d="M440.436,325.032L220.774,198.21c-6.14-3.545-16.058-3.541-22.151,0L82.332,265.791
					c-6.094,3.541-6.061,9.282,0.079,12.827L302.074,405.44c6.133,3.54,16.044,3.54,22.137,0l116.291-67.581
					C446.595,334.318,446.569,328.573,440.436,325.032z"/>
				
					<linearGradient id="SVGID_00000182507133649625148160000013545323835997817771_" gradientUnits="userSpaceOnUse" x1="257.6655" y1="283.8515" x2="305.1812" y2="521.429">
					<stop  offset="0" style="stop-color:#55617D"/>
					<stop  offset="1" style="stop-color:#363E4F"/>
				</linearGradient>
				<path style="fill:url(#SVGID_00000182507133649625148160000013545323835997817771_);" d="M440.436,325.83L220.774,199.008
					c-6.14-3.545-16.058-3.541-22.151,0l-116.291,67.58c-6.094,3.542-6.061,9.282,0.079,12.827l219.663,126.822
					c6.133,3.54,16.044,3.54,22.137,0l116.291-67.581C446.595,335.116,446.569,329.372,440.436,325.83z"/>
				<g>
					<path style="fill:#FFD10C;" d="M199.107,330.08c1.515-0.88,3.978-0.885,5.514,0c1.525,0.882,1.534,2.313,0.018,3.194
						c-1.517,0.882-3.988,0.882-5.514,0C197.59,332.389,197.59,330.963,199.107,330.08z"/>
					<path style="fill:#FFD10C;" d="M188.164,323.763c1.516-0.882,3.988-0.882,5.514,0c1.526,0.881,1.534,2.314,0.019,3.194
						c-1.517,0.881-3.988,0.881-5.515,0C186.655,326.076,186.647,324.644,188.164,323.763z"/>
					<path style="fill:#FFD10C;" d="M210.05,336.398c1.517-0.881,3.98-0.886,5.514,0c1.527,0.881,1.535,2.313,0.019,3.194
						c-1.516,0.881-3.988,0.881-5.515-0.001C208.533,338.707,208.534,337.279,210.05,336.398z"/>
					<path style="fill:#FFD10C;" d="M220.993,342.717c1.516-0.881,3.979-0.887,5.514,0c1.527,0.881,1.534,2.313,0.018,3.194
						c-1.516,0.88-3.987,0.881-5.513,0C219.476,345.024,219.476,343.598,220.993,342.717z"/>
				</g>
				
					<linearGradient id="SVGID_00000053546636843463019370000007905252272589795741_" gradientUnits="userSpaceOnUse" x1="115.6425" y1="404.9533" x2="268.8266" y2="297.157">
					<stop  offset="0" style="stop-color:#55617D"/>
					<stop  offset="1" style="stop-color:#363E4F"/>
				</linearGradient>
				<path style="fill:url(#SVGID_00000053546636843463019370000007905252272589795741_);" d="M82.332,274.064l116.291-67.58
					c6.093-3.541,16.011-3.545,22.151,0l219.663,126.821c1.39,0.803,2.45,1.722,3.212,2.7c2.613-3.346,1.553-7.423-3.212-10.175
					L220.774,199.008c-6.14-3.545-16.058-3.541-22.151,0l-116.291,67.58c-4.711,2.738-5.744,6.788-3.141,10.122
					C79.941,275.753,80.977,274.853,82.332,274.064z"/>
			</g>
			<g>
				
					<linearGradient id="SVGID_00000169524997008435433230000011136076159329733307_" gradientUnits="userSpaceOnUse" x1="221.2713" y1="347.0996" x2="282.9691" y2="262.9194">
					<stop  offset="0" style="stop-color:#FFDB0D;stop-opacity:0.1"/>
					<stop  offset="1" style="stop-color:#FFA408"/>
				</linearGradient>
				<path style="fill:url(#SVGID_00000169524997008435433230000011136076159329733307_);" d="M336.197,349.544
					c-12.641-7.297,3.103-16.446-9.543-23.747c-12.641-7.298-29.882,2.722-42.521-4.576c-12.64-7.297,19.035-25.705,6.393-33.002
					c-12.64-7.297-58.935,19.606-71.575,12.309c-12.646-7.302,38.71-37.146,26.071-44.444c-12.633-7.294-38.119,7.517-50.759,0.221
					c-12.64-7.299,1.793-15.686-10.846-22.984l-64.549,37.512l202.248,116.77l50.116-29.125
					C358.586,351.176,348.836,356.841,336.197,349.544z"/>
				<path style="fill:none;stroke:#FFE969;stroke-miterlimit:10;" d="M371.233,358.477c-12.648-7.301-22.398-1.636-35.036-8.933
					c-12.641-7.297,3.103-16.446-9.543-23.747c-12.641-7.298-29.882,2.722-42.521-4.576c-12.64-7.297,19.035-25.705,6.393-33.002
					c-12.64-7.297-58.935,19.606-71.575,12.309c-12.646-7.302,38.71-37.146,26.071-44.444c-12.633-7.294-38.119,7.517-50.759,0.221
					c-12.64-7.299,1.793-15.686-10.846-22.984"/>
				<polyline style="fill:none;stroke:#798BB0;stroke-miterlimit:10;" points="209.858,217.62 118.869,270.832 321.117,387.602 				
					"/>
				<g>
					
						<line style="fill:none;stroke:#798BB0;stroke-width:0.25;stroke-miterlimit:10;" x1="238.75" y1="234.301" x2="147.762" y2="287.514"/>
					
						<line style="fill:none;stroke:#798BB0;stroke-width:0.25;stroke-miterlimit:10;" x1="267.643" y1="250.982" x2="176.655" y2="304.194"/>
					
						<line style="fill:none;stroke:#798BB0;stroke-width:0.25;stroke-miterlimit:10;" x1="296.535" y1="267.664" x2="205.548" y2="320.875"/>
					
						<line style="fill:none;stroke:#798BB0;stroke-width:0.25;stroke-miterlimit:10;" x1="325.428" y1="284.344" x2="234.44" y2="337.558"/>
					
						<line style="fill:none;stroke:#798BB0;stroke-width:0.25;stroke-miterlimit:10;" x1="354.321" y1="301.025" x2="263.332" y2="354.238"/>
					
						<line style="fill:none;stroke:#798BB0;stroke-width:0.25;stroke-miterlimit:10;" x1="383.214" y1="317.707" x2="292.225" y2="370.92"/>
					
						<line style="fill:none;stroke:#798BB0;stroke-width:0.25;stroke-miterlimit:10;" x1="412.106" y1="334.388" x2="321.117" y2="387.602"/>
				</g>
			</g>
			<g>
				<path style="fill:#4B556E;" d="M457.886,348.749l-2.113-1.22l2.099-1.219c1.038-0.604,1.034-1.577-0.014-2.181
					c-1.038-0.601-2.718-0.601-3.756,0.004l-2.099,1.22l-2.112-1.22c-1.046-0.604-2.726-0.604-3.757-0.004
					c-1.039,0.603-1.034,1.576,0.011,2.181l2.113,1.219l-2.099,1.22c-1.031,0.601-1.033,1.576,0.005,2.177
					c1.047,0.602,2.732,0.599,3.765,0l2.098-1.221l2.113,1.221c1.04,0.6,2.725,0.602,3.765,0
					C458.936,350.326,458.924,349.35,457.886,348.749z"/>
				<path style="fill:#4B556E;" d="M434.795,362.167l-7.995-4.615c-1.046-0.603-2.725-0.603-3.765,0
					c-1.032,0.601-1.025,1.573,0.018,2.177l7.995,4.615c1.04,0.602,2.726,0.604,3.759,0.004
					C435.846,363.745,435.833,362.769,434.795,362.167z"/>
			</g>
		</g>
		<g>
			<g>
				
					<linearGradient id="SVGID_00000147939773375702992950000002712622537299675582_" gradientUnits="userSpaceOnUse" x1="117.1819" y1="142.2744" x2="158.1375" y2="312.4791">
					<stop  offset="0" style="stop-color:#D4E2FF"/>
					<stop  offset="1" style="stop-color:#B9CAED"/>
				</linearGradient>
				<polygon style="fill:url(#SVGID_00000147939773375702992950000002712622537299675582_);" points="192.439,78.633 
					192.439,164.714 51.864,247.223 51.864,161.142 				"/>
				<polygon style="fill:#FFFFFF;" points="57.183,164.188 187.12,87.922 187.12,161.669 57.183,237.934 				"/>
				
					<linearGradient id="SVGID_00000165927783367950336740000012139971873737634448_" gradientUnits="userSpaceOnUse" x1="24.2724" y1="179.2113" x2="69.283" y2="220.8095">
					<stop  offset="0" style="stop-color:#D4E2FF"/>
					<stop  offset="1" style="stop-color:#B9CAED"/>
				</linearGradient>
				<polygon style="fill:url(#SVGID_00000165927783367950336740000012139971873737634448_);" points="51.864,161.142 
					51.864,247.223 48.816,245.463 48.816,159.382 				"/>
				
					<linearGradient id="SVGID_00000052792307507596541310000016647315275293555338_" gradientUnits="userSpaceOnUse" x1="41.0248" y1="158.2987" x2="151.658" y2="103.6917">
					<stop  offset="0" style="stop-color:#D4E2FF"/>
					<stop  offset="1" style="stop-color:#B9CAED"/>
				</linearGradient>
				<polygon style="fill:url(#SVGID_00000052792307507596541310000016647315275293555338_);" points="192.439,78.633 
					51.864,161.142 48.816,159.382 189.391,76.873 				"/>
				<polygon style="opacity:0.5;fill:#FFFFFF;" points="48.816,159.382 48.816,159.673 51.864,161.432 192.439,78.923 
					192.439,78.633 51.864,161.142 				"/>
			</g>
			<g>
				<path style="fill:#54607C;" d="M96.805,168.23l-0.034-12.172c-10.742,6.658-19.446,21.203-20.515,33.962l10.577-5.282
					C87.532,178.534,91.66,171.629,96.805,168.23z"/>
				<path style="fill:#D3E1FE;" d="M107.394,169.02c0.746,1.268,1.171,2.926,1.177,4.943c0.01,3.729-1.398,7.889-3.64,11.482
					l6.475,5.943c4.746-7.278,7.76-15.872,7.738-23.53c-0.013-4.29-0.981-7.779-2.665-10.331L107.394,169.02z"/>
				<path style="fill:#FFDB0D;" d="M106.567,167.906l9.075-11.481c-3.714-4.403-10.039-5.161-17.261-1.297l0.034,12.172
					C101.783,165.635,104.725,165.968,106.567,167.906z"/>
				<path style="fill:#8396BE;" d="M97.68,192.829c-6.012,3.472-10.904,0.706-10.959-6.172L76.16,191.93
					c-0.004,0.247-0.013,0.503-0.012,0.753c0.039,13.645,9.695,19.148,21.566,12.294c4.634-2.675,8.91-6.836,12.413-11.727
					l-6.466-5.937C101.943,189.609,99.89,191.552,97.68,192.829z"/>
				<path style="fill:#54607C;" d="M135.434,173.119l-4.377,2.527c-0.895,0.517-1.614,1.761-1.61,2.785l0.014,5.03
					c0.003,1.022,0.726,1.434,1.621,0.917l4.378-2.527c0.889-0.513,1.608-1.759,1.605-2.781l-0.014-5.03
					C137.047,173.017,136.323,172.605,135.434,173.119z"/>
				<path style="fill:#8396BE;" d="M131.044,171.276l4.377-2.526c0.89-0.514,1.609-1.764,1.606-2.786l-0.014-5.031
					c-0.003-1.023-0.726-1.435-1.617-0.92l-4.376,2.527c-0.895,0.517-1.614,1.761-1.611,2.784l0.015,5.03
					C129.425,171.376,130.149,171.794,131.044,171.276z"/>
				<path style="fill:#D3E1FE;" d="M131.007,158.171l4.377-2.527c0.89-0.514,1.608-1.758,1.606-2.786l-0.014-5.03
					c-0.003-1.023-0.726-1.435-1.616-0.921l-4.378,2.527c-0.895,0.517-1.613,1.761-1.61,2.784l0.014,5.029
					C129.388,158.275,130.111,158.688,131.007,158.171z"/>
				<path style="fill:#FFDB0D;" d="M130.969,145.065l4.378-2.528c0.89-0.514,1.608-1.758,1.605-2.78l-0.014-5.036
					c-0.003-1.023-0.726-1.435-1.616-0.921l-4.378,2.527c-0.895,0.517-1.614,1.761-1.611,2.784l0.014,5.036
					C129.351,145.169,130.075,145.582,130.969,145.065z"/>
				<polygon style="fill:#879BC5;" points="172.885,154.252 140.646,172.865 140.652,174.927 172.891,156.314 				"/>
				<polygon style="fill:#879BC5;" points="172.848,141.152 140.609,159.765 140.615,161.821 172.854,143.208 				"/>
				<polygon style="fill:#879BC5;" points="172.81,128.045 140.572,146.658 140.577,148.715 172.816,130.102 				"/>
				<polygon style="fill:#879BC5;" points="172.773,114.939 140.534,133.552 140.54,135.608 172.779,116.996 				"/>
			</g>
		</g>
		<g>
			<g>
				<path style="fill-rule:evenodd;clip-rule:evenodd;fill:#FDDDC8;" d="M220.31,118.246c1.112,0.683,5.003,1.164,5.831,1.769
					l1.249-1.475l3.828,3.536c0,0-2.92,4.056-3.31,4.234c-0.389,0.178-1.022-0.129-1.962-0.389c-0.941-0.26-1.897-0.503-3.601-2.044
					c-1.13-1.023-3.043-2.65-4.252-3.669C219.02,119.224,219.86,118.568,220.31,118.246z"/>
				<path style="fill-rule:evenodd;clip-rule:evenodd;fill:#FFA408;" d="M233.102,108.372l-0.757,0.021
					c-0.385,0.297-4.702,8.465-5.515,10.007h-0.001l-0.722,0.981l-5.824-1.795l-0.847,4.544c0,0,3.498,2.615,5.218,3.501
					c1.719,0.887,2.871,1.183,3.492,0.824c0.486-0.28,2.272-2.415,3.026-3.331l0.626-0.82L233.102,108.372z"/>
			</g>
			<g>
				<g>
					<path style="fill-rule:evenodd;clip-rule:evenodd;fill:#DE6807;" d="M230.186,174.247c0,0-2.627,2.732-3.607,3.517
						c-0.979,0.783-2.023,1.738-2.268,2.459c-0.244,0.721-0.224,1.107-0.172,1.244c0.051,0.138,0.75,1.083,2.274,1.305
						c1.525,0.223,2.277-0.225,3.146-0.706c0.869-0.48,3.76-2.131,4.377-2.565c0.616-0.435,1.446-0.879,1.496-1.589
						c0.052-0.71-0.429-3.698-0.429-3.698L230.186,174.247z"/>
					
						<linearGradient id="SVGID_00000168812708741030041890000003868618425505839769_" gradientUnits="userSpaceOnUse" x1="4260.9282" y1="176.1646" x2="4265.0146" y2="176.1646" gradientTransform="matrix(-1 0 0 1 4491.4688 0)">
						<stop  offset="0" style="stop-color:#FFDB0D"/>
						<stop  offset="1" style="stop-color:#FFA408"/>
					</linearGradient>
					<path style="fill-rule:evenodd;clip-rule:evenodd;fill:url(#SVGID_00000168812708741030041890000003868618425505839769_);" d="
						M226.454,177.864c0,0,0.402-0.031,0.584-0.05c0.184-0.019,0.356-0.086,0.607-0.356c0.249-0.269,2.895-2.857,2.895-2.857
						l-0.768-0.135L226.454,177.864z"/>
					
						<linearGradient id="SVGID_00000151518826583074958630000016980485408983563659_" gradientUnits="userSpaceOnUse" x1="4261.7886" y1="180.0265" x2="4267.2969" y2="180.0265" gradientTransform="matrix(-1 0 0 1 4491.4688 0)">
						<stop  offset="0" style="stop-color:#FFFFFF"/>
						<stop  offset="0.0142" style="stop-color:#FEFEFF"/>
						<stop  offset="0.6116" style="stop-color:#E9ECFB"/>
						<stop  offset="1" style="stop-color:#E1E5FA"/>
					</linearGradient>
					<path style="fill-rule:evenodd;clip-rule:evenodd;fill:url(#SVGID_00000151518826583074958630000016980485408983563659_);" d="
						M226.313,177.98c-0.895,0.739-1.78,1.587-2.002,2.243c-0.062,0.182-0.107,0.343-0.139,0.484
						c0.504,0.611,2.047,1.573,3.104,1.328c1.271-0.296,2.405-1.209,2.405-1.209C228.557,178.001,226.314,177.98,226.313,177.98z"/>
					
						<linearGradient id="SVGID_00000118376300554545229130000007396792229549293242_" gradientUnits="userSpaceOnUse" x1="4256.0918" y1="177.7303" x2="4262.8442" y2="177.7303" gradientTransform="matrix(-1 0 0 1 4491.4688 0)">
						<stop  offset="0" style="stop-color:#FFDB0D"/>
						<stop  offset="1" style="stop-color:#FFA408"/>
					</linearGradient>
					<path style="fill-rule:evenodd;clip-rule:evenodd;fill:url(#SVGID_00000118376300554545229130000007396792229549293242_);" d="
						M229.764,181.046c0,0-0.55-1.36-1.051-2.27c-0.264-0.481,0.095-0.852,0.693-1.449c0.731-0.73,2.463-2.462,2.463-2.462
						l3.194-0.449c0,0,0.333,1.875,0.314,2.586C235.376,177.001,235.281,178.447,229.764,181.046z"/>
					<path style="fill-rule:evenodd;clip-rule:evenodd;fill:#7F92B9;" d="M233.936,178.327c-0.617,0.436-3.508,2.085-4.377,2.566
						c-0.869,0.481-1.621,0.928-3.146,0.705c-1.208-0.177-1.919-0.813-2.177-1.135c-0.208,0.564-0.144,0.955-0.097,1.081
						c0.051,0.137,0.75,1.082,2.274,1.305c1.525,0.223,2.277-0.225,3.146-0.706c0.869-0.48,3.76-2.131,4.377-2.565
						c0.616-0.434,1.446-0.878,1.496-1.589c0.016-0.194-0.011-0.56-0.056-0.988C235.17,177.563,234.473,177.949,233.936,178.327z"/>
					<g>
						<path style="fill-rule:evenodd;clip-rule:evenodd;fill:#FFFFFF;" d="M229.444,177.98c-0.725-0.998-1.735-1.024-1.735-1.024
							l-0.473,0.446c0,0,1.062,0.047,1.788,1.045L229.444,177.98z"/>
						<path style="fill-rule:evenodd;clip-rule:evenodd;fill:#FFFFFF;" d="M230.147,177.268c-0.725-0.998-1.734-1.024-1.734-1.024
							l-0.473,0.446c0,0,1.062,0.047,1.787,1.045L230.147,177.268z"/>
						<path style="fill-rule:evenodd;clip-rule:evenodd;fill:#FFFFFF;" d="M230.852,176.556c-0.725-0.998-1.734-1.024-1.734-1.024
							l-0.474,0.446c0,0,1.062,0.046,1.788,1.045L230.852,176.556z"/>
						<path style="fill-rule:evenodd;clip-rule:evenodd;fill:#FFFFFF;" d="M231.556,175.845c-0.726-0.999-1.735-1.024-1.735-1.024
							l-0.474,0.445c0,0,1.062,0.048,1.788,1.046L231.556,175.845z"/>
					</g>
				</g>
				
					<linearGradient id="SVGID_00000047754795778902653700000007318664367913894528_" gradientUnits="userSpaceOnUse" x1="219.447" y1="191.1942" x2="234.1626" y2="149.5303">
					<stop  offset="0" style="stop-color:#55617D"/>
					<stop  offset="1" style="stop-color:#363E4F"/>
				</linearGradient>
				<path style="fill:url(#SVGID_00000047754795778902653700000007318664367913894528_);" d="M229.705,133.909
					c-0.329,0.725-0.246,21.476-0.262,22.582c-0.03,2.054,0.053,18.18,0.053,18.18s0.986,0.81,2.984,0.914
					c1.998,0.104,2.68-0.631,2.68-0.631s0.98-10.35,1.351-13.338c0.159-1.288,0.373-5.988,0.407-6.932c0,0,2.185-9.052,2.805-15.886
					c0.065-0.731,0.366-4.606-0.582-6.085C234.417,133.863,229.705,133.909,229.705,133.909z"/>
			</g>
			<g>
				<g>
					<path style="fill-rule:evenodd;clip-rule:evenodd;fill:#DE6807;" d="M237.361,178.363c0,0-2.627,2.732-3.606,3.516
						c-0.98,0.784-2.025,1.739-2.27,2.459c-0.244,0.721-0.223,1.107-0.171,1.244c0.051,0.137,0.749,1.082,2.274,1.305
						c1.523,0.223,2.275-0.225,3.145-0.706c0.87-0.481,3.761-2.13,4.377-2.565c0.615-0.435,1.444-0.879,1.496-1.589
						c0.052-0.71-0.43-3.699-0.43-3.699L237.361,178.363z"/>
					
						<linearGradient id="SVGID_00000022551685499740861190000009924621890775512213_" gradientUnits="userSpaceOnUse" x1="4253.7524" y1="180.2805" x2="4257.8398" y2="180.2805" gradientTransform="matrix(-1 0 0 1 4491.4688 0)">
						<stop  offset="0" style="stop-color:#FFDB0D"/>
						<stop  offset="1" style="stop-color:#FFA408"/>
					</linearGradient>
					<path style="fill-rule:evenodd;clip-rule:evenodd;fill:url(#SVGID_00000022551685499740861190000009924621890775512213_);" d="
						M233.629,181.98c0,0,0.402-0.032,0.585-0.05c0.182-0.021,0.355-0.087,0.605-0.356c0.25-0.271,2.897-2.858,2.897-2.858
						l-0.77-0.135L233.629,181.98z"/>
					
						<linearGradient id="SVGID_00000036242884284203184780000008315375821632301741_" gradientUnits="userSpaceOnUse" x1="4254.6147" y1="184.1422" x2="4260.1206" y2="184.1422" gradientTransform="matrix(-1 0 0 1 4491.4688 0)">
						<stop  offset="0" style="stop-color:#FFFFFF"/>
						<stop  offset="0.0142" style="stop-color:#FEFEFF"/>
						<stop  offset="0.6116" style="stop-color:#E9ECFB"/>
						<stop  offset="1" style="stop-color:#E1E5FA"/>
					</linearGradient>
					<path style="fill-rule:evenodd;clip-rule:evenodd;fill:url(#SVGID_00000036242884284203184780000008315375821632301741_);" d="
						M233.488,182.095c-0.896,0.738-1.78,1.587-2.003,2.243c-0.062,0.182-0.105,0.343-0.137,0.484
						c0.503,0.611,2.046,1.573,3.104,1.328c1.27-0.295,2.402-1.208,2.402-1.208C235.732,182.117,233.488,182.095,233.488,182.095z"
						/>
					
						<linearGradient id="SVGID_00000101068617715996009330000001127635768169062545_" gradientUnits="userSpaceOnUse" x1="4248.9165" y1="181.8457" x2="4255.6689" y2="181.8457" gradientTransform="matrix(-1 0 0 1 4491.4688 0)">
						<stop  offset="0" style="stop-color:#FFDB0D"/>
						<stop  offset="1" style="stop-color:#FFA408"/>
					</linearGradient>
					<path style="fill-rule:evenodd;clip-rule:evenodd;fill:url(#SVGID_00000101068617715996009330000001127635768169062545_);" d="
						M236.94,185.162c0,0-0.552-1.36-1.052-2.27c-0.265-0.48,0.093-0.852,0.692-1.45c0.731-0.73,2.463-2.462,2.463-2.462l3.195-0.45
						c0,0,0.333,1.876,0.314,2.587C242.551,181.116,242.476,182.708,236.94,185.162z"/>
					<path style="fill-rule:evenodd;clip-rule:evenodd;fill:#7F92B9;" d="M241.111,182.443c-0.617,0.434-3.508,2.084-4.377,2.565
						c-0.87,0.48-1.622,0.929-3.145,0.705c-1.21-0.177-1.92-0.812-2.179-1.134c-0.208,0.564-0.144,0.955-0.095,1.081
						c0.051,0.137,0.749,1.081,2.274,1.306c1.523,0.223,2.275-0.225,3.145-0.706c0.87-0.48,3.761-2.13,4.377-2.564
						c0.615-0.435,1.444-0.879,1.496-1.589c0.015-0.194-0.01-0.561-0.056-0.989C242.346,181.679,241.649,182.065,241.111,182.443z"
						/>
					<g>
						<path style="fill-rule:evenodd;clip-rule:evenodd;fill:#FFFFFF;" d="M236.62,182.096c-0.725-0.998-1.735-1.025-1.735-1.025
							l-0.475,0.446c0,0,1.063,0.047,1.788,1.045L236.62,182.096z"/>
						<path style="fill-rule:evenodd;clip-rule:evenodd;fill:#FFFFFF;" d="M237.324,181.384c-0.726-0.998-1.737-1.024-1.737-1.024
							l-0.471,0.446c0,0,1.061,0.046,1.787,1.045L237.324,181.384z"/>
						<path style="fill-rule:evenodd;clip-rule:evenodd;fill:#FFFFFF;" d="M238.028,180.672c-0.725-0.998-1.736-1.024-1.736-1.024
							l-0.473,0.445c0,0,1.062,0.048,1.787,1.045L238.028,180.672z"/>
						<path style="fill-rule:evenodd;clip-rule:evenodd;fill:#FFFFFF;" d="M238.731,179.96c-0.725-0.998-1.736-1.025-1.736-1.025
							l-0.472,0.446c0,0,1.062,0.047,1.786,1.046L238.731,179.96z"/>
					</g>
				</g>
				
					<linearGradient id="SVGID_00000115517142431044012980000010875876785998539414_" gradientUnits="userSpaceOnUse" x1="4251.7515" y1="133.8398" x2="4251.0293" y2="165.1335" gradientTransform="matrix(-1 0 0 1 4491.4688 0)">
					<stop  offset="0" style="stop-color:#55617D"/>
					<stop  offset="1" style="stop-color:#363E4F"/>
				</linearGradient>
				<path style="fill:url(#SVGID_00000115517142431044012980000010875876785998539414_);" d="M234.753,138.068
					c-0.29,0.74,0.875,21.461,0.917,22.565c0.077,2.053,1,18.153,1,18.153s1.028,0.757,3.028,0.757c2.001,0,2.642-0.77,2.642-0.77
					s0.439-10.388,0.655-13.391c0.092-1.294,0.06-5.999,0.046-6.943c0,0,1.71-9.154,1.973-16.01
					c0.028-0.734,0.124-4.621-0.897-6.048C239.456,137.777,234.753,138.068,234.753,138.068z"/>
			</g>
			
				<linearGradient id="SVGID_00000074425720094531824860000005664069959840093330_" gradientUnits="userSpaceOnUse" x1="139.0998" y1="111.5741" x2="140.5167" y2="128.0459" gradientTransform="matrix(1 0 0 1 98.5703 0)">
				<stop  offset="0" style="stop-color:#FFDB0D"/>
				<stop  offset="1" style="stop-color:#FFA408"/>
			</linearGradient>
			<path style="fill-rule:evenodd;clip-rule:evenodd;fill:url(#SVGID_00000074425720094531824860000005664069959840093330_);" d="
				M241.182,108.572c0,0,3.744,2.194,4.948,3.22c1.751,1.492,2.256,2.772,1.999,5.749c-0.255,2.976-3,10.647-3.23,13.033
				c-0.23,2.386,0.135,6.62-0.111,7.235c-0.248,0.617-3.277,3.413-7.585,2.463c-4.311-0.948-7.611-3.129-7.628-4.798
				c-0.018-1.667,0.854-11.135,0.854-13.778s0.282-9.417,0.924-11.366c0.641-1.95,1.564-3.156,3.926-2.643
				C237.637,108.202,241.182,108.572,241.182,108.572z"/>
			<polygon style="fill-rule:evenodd;clip-rule:evenodd;fill:#363E4F;" points="236.29,113.502 235.157,114.215 234.626,136.604 
				233.102,138.473 231.799,135.586 234.456,114.134 234.259,112.305 235.284,112.878 236.29,112.789 			"/>
			<path style="fill-rule:evenodd;clip-rule:evenodd;fill:#FFDB0D;" d="M247.561,120.449h-4.25c0,0-3.366,10.201-3.457,19.967
				c2.859-0.325,4.738-2.127,4.933-2.607c0.246-0.615-0.119-4.849,0.111-7.235C245.071,128.776,246.674,123.979,247.561,120.449z"/>
			<g>
				<path style="fill-rule:evenodd;clip-rule:evenodd;fill:#FDDDC8;" d="M240.511,105.004c0,0-0.087,1.27,0.056,2.136
					c0.096,0.564,0.47,1.263,0.853,1.782c0.205,0.278,0.214,1.582-0.737,2.372c-1.13,0.939-2.785,1.887-4.242,1.817
					c-0.54-0.065-1.61-0.094-1.673-0.928c-0.013-0.191,0.004-0.39,0.047-0.588c0.239-1.076,0.345-2.493,0.239-3.975L240.511,105.004
					z"/>
				
					<linearGradient id="SVGID_00000157310067609163501600000009118106653795007873_" gradientUnits="userSpaceOnUse" x1="142.6" y1="108.9288" x2="137.5968" y2="108.2252" gradientTransform="matrix(1 0 0 1 98.5703 0)">
					<stop  offset="0" style="stop-color:#FBD1BE"/>
					<stop  offset="1" style="stop-color:#F8B4A8"/>
				</linearGradient>
				<path style="fill-rule:evenodd;clip-rule:evenodd;fill:url(#SVGID_00000157310067609163501600000009118106653795007873_);" d="
					M240.551,107.018c-0.111-0.871-0.042-2.013-0.042-2.013l-5.377,2.68c0.141,1.429-0.06,2.724-0.288,3.777
					c0.136,0.291,0.379,0.516,0.813,0.509C236.722,111.956,238.903,110.01,240.551,107.018z"/>
				<path style="fill-rule:evenodd;clip-rule:evenodd;fill:#FDDDC8;" d="M234.95,95.354c-1.773,1.165-2.425,2.963-2.502,4.426
					c-0.077,1.463-0.009,1.982-0.173,2.743c-0.164,0.759-0.154,2.126,0,3.126c0.154,1.002,0.701,2.493,0.828,2.724
					c0.125,0.23,0.779,0.558,1.607,0.509c0.827-0.047,3.955-1.26,4.713-1.837c0.761-0.577,1.338-2.069,1.338-2.069
					s1.808-1.212,2.445-3.791c0.634-2.578-1.137-6.004-3.367-6.427C237.605,94.334,235.623,94.911,234.95,95.354z"/>
				<path style="fill-rule:evenodd;clip-rule:evenodd;fill:#363E4F;" d="M233.814,100.626c0,0-1.732-0.327-2.617-2.828h0.693
					c0,0-0.423-1.655-0.385-2.906l2.116,0.365l-0.384-0.962c0,0,0.943,0.097,2.482,0c1.538-0.095,4.888-0.673,6.37,0.52
					c1.48,1.193,1.462,2.887,1.462,2.887s0.654,1.347,0.384,2.924c-0.27,1.579-2.999,4.597-2.999,4.597l-0.824-2.025l-0.274,1.065
					l-0.27-0.116c0,0-0.04-1.366-0.058-1.501c-0.019-0.135-0.462-0.481-0.501-0.809c-0.037-0.326,0.116-1.059-0.268-1.134
					C238.354,100.626,234.622,100.779,233.814,100.626z"/>
				<path style="fill-rule:evenodd;clip-rule:evenodd;fill:#FDDDC8;" d="M240.112,103.198c0,0,0.617-1.475,1.411-1.064
					c0.796,0.411,0.667,2.462-0.987,3.348h-0.424V103.198z"/>
			</g>
			<path style="fill-rule:evenodd;clip-rule:evenodd;fill:#FFA408;" d="M240.839,107.948c0,0-0.184,3.094-5.556,4.93l2.316,2.871
				c0,0,2.471-1.681,3.933-4.461c0,0,0.552-1.04,0.465-2.23L240.839,107.948z"/>
			<g>
				<path style="fill-rule:evenodd;clip-rule:evenodd;fill:#FDDDC8;" d="M243.933,126.455l0.183,3.267c0,0-0.431,3.091-0.669,5.19
					c-0.237,2.098-1.405,8.347-1.533,8.737c-0.131,0.389-1.4,1.605-1.63,2.206c-0.227,0.6-0.145,0.956-0.242,1.509
					c-0.098,0.551-0.446,1.508-0.223,1.524c0.223,0.017,0.92-0.211,1.083-0.892c0.161-0.681,0.291-0.941,0.357-0.924
					c0.064,0.017,0.243,1.784,0.224,2.206c-0.016,0.421-0.437,1.735-0.565,2.076c-0.131,0.341-0.278,1.249,0.016,1.46
					c0.292,0.21,0.438,0.016,0.454,0s0.68-1.411,0.909-1.898c0.566-0.341,0.812-0.405,0.972-0.535
					c0.162-0.13,0.373-0.373,0.373-0.373s0.73-0.114,0.827-0.276c0.099-0.163,0.163-0.325,0.163-0.325s0.487-0.129,0.666-0.454
					c0.177-0.324,0.193-0.989,0.243-1.363c0.048-0.373-0.211-2.986-0.178-3.391c0.032-0.404,3.708-13.635,3.838-14.477
					c0.129-0.844,0.256-3.267,0.256-3.267H243.933z"/>
				
					<linearGradient id="SVGID_00000132064731271930827480000017252463207692457889_" gradientUnits="userSpaceOnUse" x1="247.1643" y1="120.9161" x2="241.4018" y2="144.63">
					<stop  offset="0" style="stop-color:#FFDB0D"/>
					<stop  offset="1" style="stop-color:#FFA408"/>
				</linearGradient>
				<path style="fill-rule:evenodd;clip-rule:evenodd;fill:url(#SVGID_00000132064731271930827480000017252463207692457889_);" d="
					M249.159,117.436c-0.431-2.692-1.674-4.71-2.43-5.091c-0.879-0.444-3.435,2.875-3.394,7.719
					c0.051,6.111,0.373,9.135,0.373,9.135l-1.931,14.428c0,0,1.263,1.163,3.989,0.548c0,0,3.824-14.666,3.823-14.976
					C249.59,129.199,249.587,120.129,249.159,117.436z"/>
			</g>
			
				<linearGradient id="SVGID_00000139252080216676830940000002521730934490772893_" gradientUnits="userSpaceOnUse" x1="4264.0215" y1="118.0424" x2="4278.3457" y2="118.0424" gradientTransform="matrix(-1 0 0 1 4491.4688 0)">
				<stop  offset="0" style="stop-color:#D6E0FF"/>
				<stop  offset="1" style="stop-color:#B8C7F2"/>
			</linearGradient>
			<polygon style="fill:url(#SVGID_00000139252080216676830940000002521730934490772893_);" points="223.06,113.039 
				213.494,108.316 213.123,108.664 217.88,122.699 227.077,127.769 227.447,127.42 			"/>
			
				<linearGradient id="SVGID_00000126287938603846291970000009765636262114594700_" gradientUnits="userSpaceOnUse" x1="4264.3921" y1="118.2166" x2="4278.3457" y2="118.2166" gradientTransform="matrix(-1 0 0 1 4491.4688 0)">
				<stop  offset="0" style="stop-color:#FFFFFF"/>
				<stop  offset="0.0142" style="stop-color:#FEFEFF"/>
				<stop  offset="0.6116" style="stop-color:#E9ECFB"/>
				<stop  offset="1" style="stop-color:#E1E5FA"/>
			</linearGradient>
			<polygon style="fill:url(#SVGID_00000126287938603846291970000009765636262114594700_);" points="222.69,113.387 
				213.123,108.664 217.51,123.046 227.077,127.769 			"/>
			
				<linearGradient id="SVGID_00000071556797961304020400000007257216878141095068_" gradientUnits="userSpaceOnUse" x1="251.2807" y1="120.4138" x2="253.6201" y2="114.9777" gradientTransform="matrix(1 0 0 1 -35.1191 0)">
				<stop  offset="0" style="stop-color:#FBDAC9"/>
				<stop  offset="1" style="stop-color:#FBBDB5"/>
			</linearGradient>
			<path style="fill:url(#SVGID_00000071556797961304020400000007257216878141095068_);" d="M215.02,115.527
				c0,0,0.838-0.918,1.02-0.959c0.182-0.04,1.695,0.403,2.25,0.479c0.555,0.076,0.849,0.157,0.868,0.268
				c0.021,0.111-0.504,0.444-1.049,0.536c-0.544,0.091-1.332,0.091-1.332,0.091s1.837,1.068,2.13,1.362
				c0.293,0.292,0.16,0.968,0.202,1.886c0.04,0.918,0.02,2.23-0.091,2.261c-0.11,0.03-0.464-0.041-0.829-0.464
				c-0.361-0.425-0.796-0.747-0.998-0.747c-0.202,0-0.431,0.341-0.431,0.341s-0.457,0.022-0.66-0.311
				c-0.2-0.334-1.089-3.341-1.179-3.513c-0.092-0.171-0.252-0.372-0.223-0.593C214.729,115.942,215.02,115.527,215.02,115.527z"/>
			<path style="fill-rule:evenodd;clip-rule:evenodd;fill:#FFA408;" d="M235.284,112.878c0,0-0.244-2.29-0.105-4.08l-0.47,0.083
				c0,0-1.422,1.816-2.074,4.683L235.284,112.878z"/>
		</g>
		<g>
			
				<linearGradient id="SVGID_00000051351550066950897450000001975777026006705338_" gradientUnits="userSpaceOnUse" x1="404.0009" y1="269.6099" x2="551.5005" y2="358.1651">
				<stop  offset="0" style="stop-color:#55617D"/>
				<stop  offset="1" style="stop-color:#363E4F"/>
			</linearGradient>
			<polygon style="fill:url(#SVGID_00000051351550066950897450000001975777026006705338_);" points="392.327,265.079 
				463.51,306.177 466.318,304.546 395.135,263.446 			"/>
			
				<linearGradient id="SVGID_00000075844601684219709110000001814239796723754380_" gradientUnits="userSpaceOnUse" x1="409.9634" y1="266.1425" x2="557.4681" y2="354.7008">
				<stop  offset="0" style="stop-color:#55617D"/>
				<stop  offset="1" style="stop-color:#363E4F"/>
			</linearGradient>
			<polygon style="fill:url(#SVGID_00000075844601684219709110000001814239796723754380_);" points="401.103,259.979 
				398.287,261.615 469.471,302.714 472.285,301.076 			"/>
			
				<linearGradient id="SVGID_00000044861702036419780220000015458885966875119289_" gradientUnits="userSpaceOnUse" x1="410.2423" y1="259.6974" x2="481.1171" y2="302.249">
				<stop  offset="0" style="stop-color:#55617D"/>
				<stop  offset="1" style="stop-color:#363E4F"/>
			</linearGradient>
			<polygon style="fill:url(#SVGID_00000044861702036419780220000015458885966875119289_);" points="440.563,275.856 
				407.063,256.516 404.256,258.148 437.756,277.489 			"/>
		</g>
		<g>
			<g>
				
					<linearGradient id="SVGID_00000119107459265940568510000010109001530192186757_" gradientUnits="userSpaceOnUse" x1="1357.0348" y1="288.41" x2="1355.012" y2="292.2407" gradientTransform="matrix(-1 0 0 1 1409.5703 0)">
					<stop  offset="0" style="stop-color:#55617D"/>
					<stop  offset="1" style="stop-color:#363E4F"/>
				</linearGradient>
				<path style="fill-rule:evenodd;clip-rule:evenodd;fill:url(#SVGID_00000119107459265940568510000010109001530192186757_);" d="
					M48.716,289.347c0,0-0.443,0.268-0.443,0.827s0,1.979,0,2.52c0,0.538,0.193,1.173,0.615,1.5
					c0.424,0.326,1.501,0.883,2.674,0.597c1.173-0.29,7.193-3.827,7.692-4.175c0.5-0.345,0.711-1.095,0.423-1.614
					c-0.288-0.519-1.25-1.692-3.173-1.424c-1.923,0.27-3.482,0.653-4.712,0.828C50.562,288.578,48.716,289.347,48.716,289.347z"/>
				
					<linearGradient id="SVGID_00000056401434190397592380000016873776501422086790_" gradientUnits="userSpaceOnUse" x1="51.8985" y1="288.42" x2="51.866" y2="273.9863">
					<stop  offset="0" style="stop-color:#FBD1BE"/>
					<stop  offset="1" style="stop-color:#F8B4A8"/>
				</linearGradient>
				<path style="fill-rule:evenodd;clip-rule:evenodd;fill:url(#SVGID_00000056401434190397592380000016873776501422086790_);" d="
					M48.852,260.496c0.092,0.827,0.145,1.527,0.138,2.018c-0.039,2.598-0.476,5.021-0.36,7.405
					c0.112,2.311,0.118,19.124,0.118,19.428c0,0.347,0.442,0.923,1.75,0.942c1.307,0.02,2.039-1.078,2.039-1.078
					s0.416-6.587,2.182-25.944c0.099-1.093,0.223-2.43,0.36-3.895L48.852,260.496z"/>
			</g>
			<g>
				
					<linearGradient id="SVGID_00000103244871258065524650000012220873042432464261_" gradientUnits="userSpaceOnUse" x1="1352.2261" y1="291.4162" x2="1350.2028" y2="295.2477" gradientTransform="matrix(-1 0 0 1 1409.5703 0)">
					<stop  offset="0" style="stop-color:#55617D"/>
					<stop  offset="1" style="stop-color:#363E4F"/>
				</linearGradient>
				<path style="fill-rule:evenodd;clip-rule:evenodd;fill:url(#SVGID_00000103244871258065524650000012220873042432464261_);" d="
					M53.525,292.353c0,0-0.442,0.27-0.442,0.828c0,0.558,0,1.981,0,2.52c0,0.538,0.193,1.174,0.616,1.5
					c0.423,0.327,1.5,0.885,2.673,0.597c1.172-0.289,7.193-3.827,7.693-4.174c0.5-0.346,0.711-1.096,0.422-1.614
					c-0.289-0.52-1.25-1.693-3.173-1.424c-1.923,0.268-3.48,0.654-4.712,0.826C55.372,291.585,53.525,292.353,53.525,292.353z"/>
				<path style="fill-rule:evenodd;clip-rule:evenodd;fill:#FDDDC8;" d="M50.217,244.024c-0.154,4.424,1.192,7.539,1.577,8.963
					c0.385,1.423,2.012,9.939,1.973,12.535c-0.038,2.597-0.475,5.02-0.359,7.405c0.112,2.31,0.117,19.124,0.117,19.425
					c0,0.348,0.442,0.925,1.75,0.944c1.308,0.018,2.039-1.077,2.039-1.077s0.417-6.59,2.182-25.944
					c0.608-6.677,2.107-22.251,2.107-22.251H50.217z"/>
				
					<linearGradient id="SVGID_00000144324715477457821360000013621414182540236937_" gradientUnits="userSpaceOnUse" x1="57.2012" y1="245.9353" x2="49.415" y2="260.6794">
					<stop  offset="0" style="stop-color:#55617D"/>
					<stop  offset="1" style="stop-color:#363E4F"/>
				</linearGradient>
				<path style="fill-rule:evenodd;clip-rule:evenodd;fill:url(#SVGID_00000144324715477457821360000013621414182540236937_);" d="
					M46.292,241.949c0,0-0.752,1.753,0.384,5.375c1.137,3.623,1.098,3.024,1.137,4.065c0.039,1.041,0.598,11.116,0.521,11.905
					c-0.078,0.79,0.925,2.139,3.834,2.506c2.909,0.365,6.916,0.038,8.207-1.233l1.31-20.422L46.292,241.949z"/>
			</g>
			<g>
				
					<linearGradient id="SVGID_00000067943308311364003060000012159831451504883353_" gradientUnits="userSpaceOnUse" x1="1362.193" y1="222.0507" x2="1351.9443" y2="241.4579" gradientTransform="matrix(-1 0 0 1 1409.5703 0)">
					<stop  offset="0" style="stop-color:#FFDB0D"/>
					<stop  offset="1" style="stop-color:#FFA408"/>
				</linearGradient>
				<path style="fill-rule:evenodd;clip-rule:evenodd;fill:url(#SVGID_00000067943308311364003060000012159831451504883353_);" d="
					M55.552,218.84c0,0,3.435,3.12,4.574,4.478c1.141,1.357,1.946,3.756,1.661,5.567c-0.286,1.811-1.309,2.951-1.561,4.914
					c-0.25,1.961,0.106,2.834,0.202,3.235c1.136,4.78,2.16,7.084,1.371,7.722c-0.788,0.638-3.659,2.231-8.691,1.539
					c-4.566-0.629-6.738-3.048-7.007-3.501c-0.268-0.453-0.285-0.789-0.101-1.29c0.185-0.504,1.752-4.126,1.601-5.518
					c-0.151-1.392-3.253-9.61-3.229-13.03c0.024-3.422,1.053-5.791,2.997-6.282c1.946-0.494,4.153,0.11,5.554,0.692
					C54.325,217.947,55.552,218.84,55.552,218.84z"/>
				<path style="fill-rule:evenodd;clip-rule:evenodd;fill:#FFDB0D;" d="M61.788,228.884v0.002
					c-0.286,1.811-1.309,2.951-1.561,4.914c-0.25,1.961,0.106,2.834,0.202,3.235c0.371,1.561,0.728,2.853,1.016,3.913
					c-2.684,0.713-4.123-0.01-4.333-0.718c-1.658-5.584-1.58-12.181-1.58-12.181L61.788,228.884z"/>
				<path style="fill-rule:evenodd;clip-rule:evenodd;fill:#C4EAFF;" d="M55.653,218.933c0,0-0.181-0.584-0.932-1.053
					c-0.753-0.469-1.63-0.795-2.945-1.173c-1.241-0.358-2.134-0.761-2.134-0.761s-0.437,0.963-0.505,1.493
					c-0.067,0.531,1.772,1.471,3.258,1.688C54.425,219.423,55.653,218.933,55.653,218.933z"/>
				<path style="fill-rule:evenodd;clip-rule:evenodd;fill:#A3DEFF;" d="M50.118,216.143c-0.122,0.48-0.302,1.363-0.218,2.1
					c-0.479-0.284-0.79-0.58-0.763-0.805c0.068-0.53,0.505-1.493,0.505-1.493S49.817,216.024,50.118,216.143z"/>
			</g>
			<g>
				<g>
					
						<linearGradient id="SVGID_00000183248713792103272570000002413083563492425911_" gradientUnits="userSpaceOnUse" x1="530.9299" y1="223.744" x2="532.4592" y2="223.5289" gradientTransform="matrix(-0.884 0.4676 0.4676 0.884 435.3813 -221.8858)">
						<stop  offset="0" style="stop-color:#FBD1BE"/>
						<stop  offset="1" style="stop-color:#F8B4A8"/>
					</linearGradient>
					<path style="fill-rule:evenodd;clip-rule:evenodd;fill:url(#SVGID_00000183248713792103272570000002413083563492425911_);" d="
						M69.483,226.438c0,0-0.16-0.894-0.308-1.421c-0.146-0.53-0.14-0.714-0.104-0.969c0.036-0.256,0.276-0.677,0.299-0.87
						c0.021-0.192,0.023-0.62,0.161-0.645c0.138-0.026,0.538,0.407,0.497,0.941c-0.04,0.534-0.112,0.685-0.006,0.885
						c0.106,0.2,0.626,0.484,0.683,1.091C70.76,226.056,69.953,226.72,69.483,226.438z"/>
					<path style="fill-rule:evenodd;clip-rule:evenodd;fill:#FDDDC8;" d="M61.123,231.233l0.929,2.065c0,0,1.741-1.584,2.766-2.372
						c1.025-0.79,3.786-3.351,4.228-4.059c0.441-0.707,0.645-2.978,0.717-3.13c0.07-0.149,0.251-0.536,0.437-0.534
						c1.012,0.014,2.664,1.341,2.956,1.68c0.008,0.456-0.485,1.232-0.723,1.714c-0.238,0.483-1.048,1.139-1.64,1.453
						c-0.594,0.314-2.206,2.93-3.607,4.98c-1.402,2.05-3.177,4.146-3.857,4.867c-0.681,0.722-1.159,0.784-1.796,0.514
						c-0.637-0.271-2.109-2.601-3.176-3.648L61.123,231.233z"/>
					<g>
						<path style="fill-rule:evenodd;clip-rule:evenodd;fill:#CF8F5B;" d="M69.539,227.706c0,0,0.446,0.43,0.681,0.912l-0.378,0.566
							c0,0-0.396-0.582-0.848-0.898L69.539,227.706z"/>
						<path style="fill-rule:evenodd;clip-rule:evenodd;fill:#7D4A41;" d="M68.068,228.355c0.205,0.265,0.694,0.23,1.092-0.078
							c0.398-0.309,0.555-0.772,0.351-1.038c-0.207-0.265-0.695-0.231-1.094,0.077C68.019,227.624,67.863,228.089,68.068,228.355z"
							/>
						<path style="fill-rule:evenodd;clip-rule:evenodd;fill:#D9C8C5;" d="M68.167,228.201c0.166,0.218,0.57,0.19,0.897-0.064
							c0.327-0.252,0.457-0.636,0.288-0.854c-0.169-0.218-0.569-0.191-0.9,0.063C68.127,227.6,67.996,227.983,68.167,228.201z"/>
					</g>
					
						<linearGradient id="SVGID_00000093899933503687553240000006202330092380997055_" gradientUnits="userSpaceOnUse" x1="62.7384" y1="227.5851" x2="58.6543" y2="235.319">
						<stop  offset="0" style="stop-color:#FFDB0D"/>
						<stop  offset="1" style="stop-color:#FFA408"/>
					</linearGradient>
					<path style="fill-rule:evenodd;clip-rule:evenodd;fill:url(#SVGID_00000093899933503687553240000006202330092380997055_);" d="
						M67.317,228.348l-4.512,3.855l-0.435-1.239l0,0c-0.219-1.083-0.546-2.554-0.998-4.174c-0.922-3.311-2.205-3.458-3.429-3.176
						c-1.225,0.282-2.776,1.616-2.442,4.2c0.205,1.59,1.789,7.74,4.559,10.356c0.601,0.568,1.441,0.949,2.593,0.39
						c1.441-0.7,6.775-8.335,6.775-8.335C69.161,228.277,67.317,228.348,67.317,228.348z"/>
					<path style="fill-rule:evenodd;clip-rule:evenodd;fill:#FDDDC8;" d="M69.997,223.331c0,0,0.557-0.796,0.693-0.994
						c0.135-0.199,0.309-0.397,0.516-0.507c0.208-0.109,0.796-0.44,0.955-0.563c0.158-0.121,0.451-0.415,0.53-0.388
						c0.077,0.03,0.253,0.567-0.207,0.963c-0.461,0.396-0.757,0.471-0.921,0.661c-0.164,0.191-0.685,1.119-0.685,1.119
						L69.997,223.331z"/>
					<path style="fill-rule:evenodd;clip-rule:evenodd;fill:#FDDDC8;" d="M70.766,223.672c0,0,0.687-0.857,0.853-1.069
						c0.168-0.214,0.378-0.424,0.62-0.534c0.242-0.108,0.931-0.436,1.118-0.56c0.188-0.126,0.539-0.436,0.626-0.398
						c0.087,0.038,0.245,0.658-0.303,1.069c-0.551,0.412-0.89,0.474-1.089,0.676c-0.2,0.203-0.856,1.208-0.856,1.208L70.766,223.672
						z"/>
					<path style="fill-rule:evenodd;clip-rule:evenodd;fill:#FDDDC8;" d="M71.604,224.149c0,0,0.714-0.73,0.887-0.913
						c0.175-0.182,0.387-0.356,0.62-0.435c0.234-0.079,0.902-0.319,1.085-0.418c0.186-0.099,0.54-0.353,0.615-0.311
						c0.076,0.042,0.167,0.631-0.378,0.962c-0.545,0.33-0.866,0.356-1.067,0.526c-0.203,0.171-0.903,1.04-0.903,1.04L71.604,224.149
						z"/>
					<path style="fill-rule:evenodd;clip-rule:evenodd;fill:#FDDDC8;" d="M71.938,224.936c0,0,0.727-0.629,0.904-0.788
						c0.18-0.158,0.394-0.306,0.619-0.361c0.227-0.055,0.871-0.229,1.052-0.307c0.181-0.077,0.533-0.289,0.602-0.244
						c0.068,0.045,0.107,0.605-0.431,0.874c-0.537,0.267-0.84,0.269-1.043,0.412c-0.204,0.143-0.929,0.906-0.929,0.906
						L71.938,224.936z"/>
				</g>
			</g>
			<g>
				<path style="fill-rule:evenodd;clip-rule:evenodd;fill:#FDDDC8;" d="M55.308,201.758c1.957,0.509,2.991,2.025,3.354,3.757
					c0.448,2.139,0.257,2.292,0.548,3.521c0.29,1.23,0.368,1.868,0.167,3.064c-0.201,1.196-0.86,2.917-1.006,3.343
					c-0.145,0.424-0.302,0.593-0.973,0.559c-0.671-0.034-1.531-0.313-1.688-0.347c-0.156-0.034-0.268,0.324-0.268,0.592
					c0,0.268,0.123,2.878,0.123,2.878h-6.288c0,0,0.67-2.549,0.202-4.578c-0.471-2.029-2.468-3.057-2.685-6.875
					C46.577,203.816,48.947,200.105,55.308,201.758z"/>
				
					<linearGradient id="SVGID_00000172407472677771813260000004626107922629285309_" gradientUnits="userSpaceOnUse" x1="544.6544" y1="218.6545" x2="550.8752" y2="214.6805" gradientTransform="matrix(-1 0 0 1 600.8613 0)">
					<stop  offset="0" style="stop-color:#FBD1BE"/>
					<stop  offset="1" style="stop-color:#F8B4A8"/>
				</linearGradient>
				<path style="fill-rule:evenodd;clip-rule:evenodd;fill:url(#SVGID_00000172407472677771813260000004626107922629285309_);" d="
					M48.762,212.939h6.166c0.721,1.875,2.465,3.058,3.015,3.017c-0.132,0.043-0.304,0.059-0.544,0.046
					c-0.671-0.034-1.531-0.313-1.688-0.347c-0.156-0.034-0.268,0.324-0.268,0.592c0,0.268,0.123,2.878,0.123,2.878h-6.288
					c0,0,0.67-2.549,0.202-4.578C49.342,213.958,49.075,213.453,48.762,212.939z"/>
				<path style="fill-rule:evenodd;clip-rule:evenodd;fill:#363E4F;" d="M50.585,201.15c1.312-0.239,3.32-0.117,4.645,0
					c1.325,0.116,3.707-0.017,4.259,0.403c0.554,0.418,1.393,6.389-4.226,8.803c-0.285,2.482-0.838,5.031-0.939,5.165
					c-0.101,0.135-2.423,0.767-4.767-0.555c-1.086-1.859-3.369-3.469-3.585-7.427C45.739,203.229,48.471,201.535,50.585,201.15z"/>
				<path style="fill-rule:evenodd;clip-rule:evenodd;fill:#363E4F;" d="M46.195,209.15c1.638,6.174,1.05,8.872-0.01,13.341
					c-0.786,3.314-3.053,13.833,3.382,14.949c6.434,1.118,6.649-3.234,5.887-7.551c-0.762-4.315-1.273-10.115-0.651-16.482
					L46.195,209.15z"/>
				<path style="fill-rule:evenodd;clip-rule:evenodd;fill:#FDDDC8;" d="M55.817,210.725c0,0-0.209-1.4-1.006-1.56
					c-0.796-0.159-1.131,0.948-1.047,1.728c0.084,0.779,0.855,1.911,1.165,2.046C55.239,213.073,56.035,212.217,55.817,210.725z"/>
				<path style="fill-rule:evenodd;clip-rule:evenodd;fill:#301D19;" d="M54.803,212.323c0,0.185,0.101,0.336,0.225,0.336
					c0.124,0,0.225-0.15,0.225-0.336c0-0.185-0.101-0.335-0.225-0.335C54.903,211.988,54.803,212.138,54.803,212.323z"/>
				<path style="fill-rule:evenodd;clip-rule:evenodd;fill:#363E4F;" d="M56.689,208.645c0,0-0.604,2.356,0,3.857
					c0,0-1.383-1.081-1.283-3.253L56.689,208.645z"/>
			</g>
		</g>
		<g>
			
				<linearGradient id="SVGID_00000078750129784247857710000006721913559138560167_" gradientUnits="userSpaceOnUse" x1="142.2652" y1="214.637" x2="152.3704" y2="220.0443">
				<stop  offset="0" style="stop-color:#8EA3CF"/>
				<stop  offset="1" style="stop-color:#798BB0"/>
			</linearGradient>
			<path style="fill:url(#SVGID_00000078750129784247857710000006721913559138560167_);" d="M147.694,214.465
				c-1.515-0.88-3.978-0.885-5.514,0c-1.525,0.881-1.534,2.313-0.018,3.194c1.517,0.882,3.988,0.882,5.514,0
				C149.211,216.773,149.211,215.347,147.694,214.465z"/>
			
				<linearGradient id="SVGID_00000130607843203655409710000011576685246157315243_" gradientUnits="userSpaceOnUse" x1="154.2038" y1="208.9251" x2="164.3094" y2="213.8891">
				<stop  offset="0" style="stop-color:#55617D"/>
				<stop  offset="1" style="stop-color:#363E4F"/>
			</linearGradient>
			<path style="fill:url(#SVGID_00000130607843203655409710000011576685246157315243_);" d="M158.638,208.148
				c-1.516-0.881-3.988-0.881-5.514,0c-1.526,0.881-1.534,2.313-0.018,3.194c1.517,0.881,3.988,0.881,5.515,0
				C160.146,210.46,160.155,209.028,158.638,208.148z"/>
			
				<linearGradient id="SVGID_00000003065956190946763950000008273318157950064256_" gradientUnits="userSpaceOnUse" x1="132.0897" y1="221.3235" x2="142.1065" y2="226.9079">
				<stop  offset="0" style="stop-color:#D4E2FF"/>
				<stop  offset="1" style="stop-color:#B9CAED"/>
			</linearGradient>
			<path style="fill:url(#SVGID_00000003065956190946763950000008273318157950064256_);" d="M136.752,220.784
				c-1.517-0.881-3.98-0.886-5.514,0c-1.527,0.881-1.535,2.313-0.019,3.194c1.516,0.881,3.988,0.881,5.515,0
				C138.269,223.091,138.268,221.665,136.752,220.784z"/>
			
				<linearGradient id="SVGID_00000120555300680247039280000015624971885579714984_" gradientUnits="userSpaceOnUse" x1="120.6267" y1="227.4727" x2="132.6825" y2="233.5891">
				<stop  offset="0" style="stop-color:#FFDB0D"/>
				<stop  offset="1" style="stop-color:#FFA408"/>
			</linearGradient>
			<path style="fill:url(#SVGID_00000120555300680247039280000015624971885579714984_);" d="M125.809,227.101
				c-1.516-0.881-3.979-0.886-5.514,0c-1.527,0.882-1.534,2.313-0.018,3.195c1.516,0.88,3.987,0.881,5.513,0
				C127.326,229.409,127.326,227.983,125.809,227.101z"/>
		</g>
		<g>
			<path style="fill:#55617D;" d="M251.521,398.377L85.868,303.053c-2.052-1.184-5.363-1.184-7.401,0.001l-4.275,2.483
				c-2.038,1.186-2.039,3.11,0.013,4.294l165.654,95.323c2.05,1.185,5.384,1.185,7.423-0.001l4.275-2.483
				C253.596,401.485,253.572,399.56,251.521,398.377z"/>
			<path style="fill:#363E4F;" d="M74.191,307.223l4.275-2.483c2.039-1.185,5.349-1.185,7.401-0.001l165.654,95.324
				c0.656,0.378,1.082,0.835,1.322,1.317c0.514-1.031,0.086-2.19-1.322-3.003L85.868,303.053c-2.052-1.184-5.363-1.184-7.401,0.001
				l-4.275,2.483c-1.391,0.81-1.809,1.959-1.297,2.987C73.131,308.048,73.547,307.597,74.191,307.223z"/>
			
				<linearGradient id="SVGID_00000066501364040177992910000014691436096533204661_" gradientUnits="userSpaceOnUse" x1="86.02" y1="310.4035" x2="199.5634" y2="376.3492">
				<stop  offset="0" style="stop-color:#FFDB0D"/>
				<stop  offset="1" style="stop-color:#FFA408"/>
			</linearGradient>
			<path style="fill:url(#SVGID_00000066501364040177992910000014691436096533204661_);" d="M78.466,304.739l-4.275,2.483
				c-0.644,0.374-1.061,0.825-1.297,1.302c0.238,0.478,0.659,0.931,1.311,1.307l124.215,71.478h20.512l-133.064-76.57
				C83.815,303.555,80.505,303.555,78.466,304.739z"/>
			
				<linearGradient id="SVGID_00000041986275242630510600000009322536022452647097_" gradientUnits="userSpaceOnUse" x1="150.1616" y1="333.0008" x2="116.6524" y2="377.3255">
				<stop  offset="0" style="stop-color:#FFDB0D"/>
				<stop  offset="1" style="stop-color:#FFA408"/>
			</linearGradient>
			<path style="fill:url(#SVGID_00000041986275242630510600000009322536022452647097_);" d="M77.441,305.336l-3.25,1.887
				c-0.644,0.374-1.061,0.825-1.297,1.302c0.238,0.478,0.659,0.931,1.311,1.307l124.215,71.478h11.048L77.441,305.336z"/>
			<g>
				<path style="fill:#55617D;" d="M265.858,412.409c2.054,0.458,3.306,0.438,4.866-0.467c2.132-1.239,1.371-2.873-1.259-4.392
					c-2.661-1.536-5.393-1.902-7.491-0.683c-1.504,0.875-1.588,1.655-0.938,2.757c-1.945-0.333-3.47-0.432-5.365,0.671
					c-2.517,1.463-1.174,3.106,1.284,4.525c2.534,1.463,5.409,2.192,8.074,0.644C266.776,414.449,266.589,413.512,265.858,412.409z
					 M263.662,414.503c-1.78,1.035-3.611,0.62-5.425-0.427c-1.738-1.004-2.482-2.074-0.809-3.048
					c1.357-0.787,2.724-0.724,4.346-0.188l1.942,1.122C264.595,412.867,265.08,413.679,263.662,414.503z M263.01,410.123
					c-0.784-0.936-0.802-1.636,0.317-2.286c1.451-0.843,3.091-0.553,4.871,0.475c1.793,1.035,2.292,2.004,0.841,2.847
					c-1.119,0.651-2.426,0.577-4.087,0.087L263.01,410.123z"/>
				<path style="fill:#55617D;" d="M286.251,421.103c-0.733-0.423-1.627-0.415-2.64,0.174c-1.04,0.604-1.078,1.145-0.351,1.564
					c0.721,0.416,1.669,0.4,2.693-0.197C286.98,422.048,286.977,421.522,286.251,421.103z M285.31,422.271
					c-0.634,0.369-1.094,0.487-1.503,0.252c-0.393-0.228-0.197-0.498,0.449-0.874c0.622-0.361,1.054-0.455,1.449-0.228
					C286.111,421.655,285.943,421.903,285.31,422.271z"/>
				<path style="fill:#55617D;" d="M284.497,418.574c0.719,0.415,1.653,0.407,2.685-0.192c1.032-0.6,1.03-1.118,0.298-1.542
					c-0.735-0.424-1.636-0.427-2.668,0.173C283.78,417.613,283.769,418.154,284.497,418.574z M285.472,417.394
					c0.634-0.369,1.08-0.463,1.468-0.239c0.399,0.23,0.232,0.486-0.402,0.854c-0.627,0.365-1.094,0.479-1.493,0.247
					C284.656,418.032,284.845,417.759,285.472,417.394z"/>
				<polygon style="fill:#55617D;" points="289.99,418.15 280.449,421.138 280.816,421.522 290.339,418.546 				"/>
				<path style="fill:#55617D;" d="M279.56,413.402c-1.773-1.024-3.912-1.717-4.024-1.753l-1.072,0.747
					c0.111,0.041,2.219,0.813,3.57,1.594c1.759,1.016,2.148,1.835,0.528,2.776c-1.43,0.83-3.365,0.862-6.445,0.897l-7.297,0.102
					l-1.195,0.694l7.804,4.507l1.229-0.716l-6.119-3.533l6.546-0.034c3.379,0.034,5.273-0.105,7.088-1.16
					C282.452,416.197,282.126,414.885,279.56,413.402z"/>
			</g>
		</g>
		<g>
			<g>
				<g>
					<path style="fill:#55617D;" d="M114.64,342.997c2.79,1.611,2.047,3.071-0.94,4.807c-2.981,1.733-5.397,2.109-8.188,0.498
						c-2.796-1.615-2.155-3.015,0.826-4.748C109.326,341.817,111.844,341.382,114.64,342.997z M107.066,347.399
						c1.462,0.844,2.746,0.52,4.782-0.664c2.036-1.183,2.7-1.991,1.238-2.835s-2.854-0.457-4.89,0.726
						C106.16,345.81,105.604,346.555,107.066,347.399"/>
				</g>
				<g>
					<polygon style="fill:#55617D;" points="110.063,340.531 108.478,341.453 106.122,340.092 98.884,344.298 97.084,343.259 
						104.321,339.053 101.946,337.681 103.532,336.76 					"/>
				</g>
				<g>
					<polygon style="fill:#55617D;" points="102.395,336.104 93.572,341.231 91.772,340.192 100.595,335.064 					"/>
				</g>
				<g>
					<polygon style="fill:#55617D;" points="98.66,333.947 89.837,339.075 86.875,337.364 91.922,331.864 91.788,331.787 
						84.525,336.008 82.725,334.968 91.548,329.84 94.587,331.595 89.469,337.055 89.597,337.128 96.86,332.907 					"/>
				</g>
				<g>
					<path style="fill:#55617D;" d="M86.478,326.736c2.79,1.611,2.047,3.071-0.94,4.807c-2.981,1.733-5.397,2.109-8.188,0.498
						c-2.796-1.615-2.155-3.015,0.826-4.748C81.163,325.557,83.681,325.122,86.478,326.736z M78.904,331.138
						c1.462,0.844,2.746,0.52,4.782-0.664c2.036-1.183,2.7-1.991,1.238-2.835c-1.462-0.844-2.854-0.457-4.89,0.726
						C77.998,329.549,77.442,330.294,78.904,331.138"/>
				</g>
				<g>
					<polygon style="fill:#55617D;" points="81.103,323.809 72.279,328.937 70.479,327.898 77.304,323.931 77.106,323.817 
						68.938,326.552 67.137,325.513 71.833,320.772 71.635,320.658 64.809,324.624 63.009,323.585 71.832,318.457 74.903,320.23 
						70.029,324.875 78.032,322.036 					"/>
				</g>
				<g>
					<polygon style="fill:#55617D;" points="129.607,351.815 120.783,356.943 118.983,355.903 127.806,350.775 					"/>
				</g>
				<g>
					<path style="fill:#55617D;" d="M123.381,351.586c-1.224,0.711-2.528,0.899-3.846,0.726l-2.11,2.691l-1.973-1.139l1.928-2.311
						l-1.737-1.003l-2.956,1.718l-1.8-1.04l8.823-5.128l3.448,1.991C125.182,349.26,125.392,350.418,123.381,351.586z
						 M118.851,350.624c0.9,0.52,1.886,0.369,2.666-0.085c0.837-0.487,0.968-1.058,0.106-1.556l-1.647-0.951l-2.797,1.626
						L118.851,350.624"/>
				</g>
				<g>
					<path style="fill:#55617D;" d="M183,382.467c1.373,0.793,2.667,1.938,2.735,1.998l-1.447,0.774
						c-0.07-0.05-1.393-1.003-2.581-1.688c-1.539-0.888-2.506-0.859-4.986,0.582c-2.347,1.364-2.681,1.935-1.059,2.872
						c0.536,0.31,1.106,0.583,1.136,0.597l1.713-0.995l-0.811-0.468l1.554-0.903l2.586,1.493l-4.573,2.658
						c-0.108-0.045-2.169-0.907-3.331-1.578c-2.899-1.674-2.022-3.027,0.934-4.744C178.086,381.196,180.376,380.952,183,382.467z"/>
				</g>
				<g style="enable-background:new    ;">
					<g>
						<polygon style="fill:#55617D;" points="162.283,370.682 153.46,375.81 150.497,374.099 155.538,368.595 155.411,368.522 
							148.148,372.743 146.347,371.703 155.171,366.575 158.21,368.33 153.092,373.79 153.22,373.863 160.482,369.642 						"/>
					</g>
					<g>
						<polygon style="fill:#55617D;" points="169.881,375.069 168.32,375.976 164.458,373.745 161.863,375.253 165.024,377.078 
							163.469,377.981 160.309,376.156 157.195,377.966 155.394,376.927 164.217,371.799 						"/>
					</g>
					<g>
						<path style="fill:#55617D;" d="M174.591,377.612c2.796,1.615,2.054,3.074-0.934,4.811c-2.981,1.733-5.397,2.109-8.194,0.494
							c-2.79-1.611-2.155-3.015,0.826-4.748C169.277,376.433,171.801,376.001,174.591,377.612z M167.018,382.014
							c1.462,0.844,2.746,0.52,4.782-0.664c2.036-1.183,2.7-1.991,1.238-2.835c-1.462-0.844-2.854-0.457-4.89,0.726
							C166.111,380.425,165.556,381.17,167.018,382.014"/>
					</g>
				</g>
				<g>
					<polygon style="fill:#55617D;" points="153.236,365.458 144.413,370.586 142.612,369.547 151.436,364.419 					"/>
				</g>
				<g>
					<path style="fill:#55617D;" d="M143.926,359.907c1.366,0.789,2.66,1.934,2.729,1.994l-1.44,0.778
						c-0.07-0.05-1.393-1.003-2.58-1.688c-1.545-0.892-2.506-0.859-4.986,0.582c-2.347,1.364-2.681,1.935-1.066,2.868
						c0.536,0.31,1.106,0.583,1.136,0.597l1.713-0.995l-0.811-0.468l1.554-0.903l2.586,1.493l-4.573,2.658
						c-0.108-0.045-2.162-0.903-3.324-1.574c-2.899-1.674-2.028-3.03,0.928-4.748C139.006,358.631,141.302,358.392,143.926,359.907z
						"/>
				</g>
				<g>
					<polygon style="fill:#55617D;" points="138.654,357.039 129.83,362.166 126.868,360.456 131.909,354.952 131.781,354.878 
						124.518,359.099 122.718,358.06 131.541,352.932 134.58,354.687 129.456,360.143 129.59,360.22 136.853,355.999 					"/>
				</g>
				<g>
					<polygon style="fill:#55617D;" points="221.928,405.12 213.105,410.248 211.298,409.205 220.121,404.077 					"/>
				</g>
				<g>
					<path style="fill:#55617D;" d="M227.054,407.904c0.926,0.535,1.827,1.312,2.25,1.703l-1.485,0.796
						c-0.511-0.398-1.495-1.091-2.083-1.43c-1.373-0.793-2.289-0.763-4.795,0.693c-2.372,1.379-2.668,1.913-1.123,2.805
						c0.6,0.347,1.819,0.925,2.412,1.18l-1.427,0.874c-0.727-0.265-2.073-0.852-2.877-1.316c-2.745-1.585-1.919-2.82,1.164-4.612
						C222.439,406.65,224.417,406.381,227.054,407.904z"/>
				</g>
				<g>
					<polygon style="fill:#55617D;" points="218.193,402.964 209.37,408.092 207.563,407.048 211.223,404.921 207.922,403.015 
						204.262,405.142 202.461,404.103 211.285,398.975 213.085,400.015 209.476,402.112 212.777,404.018 216.386,401.921 					"/>
				</g>
				<g>
					<path style="fill:#55617D;" d="M206.86,396.42c2.088,1.205,2.139,2.411,0.09,3.602c-2.049,1.191-4.257,1.239-6.345,0.033
						l-1.462-0.844l-2.569,1.493l-1.8-1.04l8.823-5.128L206.86,396.42z M202.122,399.159c0.9,0.52,1.886,0.457,3.003-0.192
						c1.104-0.641,1.088-1.143,0.188-1.663l-1.449-0.837l-3.191,1.854L202.122,399.159"/>
				</g>
				<g>
					<path style="fill:#55617D;" d="M200.405,392.693l-6.825,6.282l-1.8-1.04l1.247-1.132l-3.109-1.795l-1.95,0.726l-1.8-1.04
						l10.822-3.974L200.405,392.693z M191.81,394.301l2.433,1.405l3.293-2.956l-0.626-0.361L191.81,394.301"/>
				</g>
				<g>
					<path style="fill:#55617D;" d="M191.314,390.81c-1.224,0.711-2.534,0.896-3.846,0.726l-2.11,2.691l-1.973-1.139l1.928-2.311
						l-1.737-1.003l-2.956,1.718l-1.8-1.04l8.823-5.128l3.441,1.987C193.108,388.48,193.324,389.641,191.314,390.81z
						 M186.783,389.848c0.9,0.52,1.886,0.369,2.666-0.085c0.837-0.487,0.961-1.062,0.099-1.559l-1.641-0.947l-2.797,1.626
						L186.783,389.848"/>
				</g>
			</g>
		</g>
	</g>
</g>
</svg>
