<?xml version="1.0" encoding="utf-8"?>
<!-- Generator: Adobe Illustrator 27.5.0, SVG Export Plug-In . SVG Version: 6.00 Build 0)  -->
<svg version="1.1" xmlns="http://www.w3.org/2000/svg" xmlns:xlink="http://www.w3.org/1999/xlink" x="0px" y="0px"
	 viewBox="0 0 500 500" style="enable-background:new 0 0 500 500;" xml:space="preserve">
<g id="BACKGROUND">
	<rect style="fill:transparent" width="500" height="500"/>
</g>
<g id="OBJECT">
	<g>
		<ellipse style="fill:#C6C6F7;" cx="243.421" cy="418.002" rx="184.541" ry="16.528"/>
		<g>
			<path style="fill:#C6C6F7;" d="M138.524,180.124c23.129-14.13,28.939-22.547,53.194-49.236
				c26.056-28.67,60.39-45.415,99.423-43.792c49.867,2.074,143.847,41.583,136.647,138.398
				c-7.199,96.815-94.836,130.167-178.401,142.826C146.161,383.957-8.372,269.865,138.524,180.124z"/>
			
				<ellipse transform="matrix(0.807 -0.5906 0.5906 0.807 -15.5829 141.5807)" style="fill:#C6C6F7;" cx="208.813" cy="94.631" rx="10.183" ry="10.183"/>
			<path style="fill:#C6C6F7;" d="M423.09,285.715c-1.235,3.143,0.312,6.691,3.454,7.927c3.143,1.235,6.692-0.312,7.926-3.454
				c1.235-3.143-0.312-6.691-3.454-7.926C427.874,281.025,424.325,282.572,423.09,285.715z"/>
			<path style="fill:#C6C6F7;" d="M229.269,82.978c-0.972,2.473,0.245,5.265,2.718,6.236c2.473,0.972,5.265-0.245,6.236-2.718
				c0.972-2.473-0.245-5.265-2.718-6.236C233.033,79.289,230.241,80.506,229.269,82.978z"/>
		</g>
		<g>
			<g>
				<path style="fill:#FC9EA2;stroke:#ED8867;stroke-width:0.4723;stroke-miterlimit:10;" d="M301.361,137.665
					c1.108,1.139-1.768,3.536-3.029,2.434C297.07,138.997,299.91,136.174,301.361,137.665z"/>
				<path style="fill:#FC9EA2;stroke:#ED8867;stroke-width:0.4723;stroke-miterlimit:10;" d="M303.343,137.28
					c1.436,0.681-0.423,3.932-1.989,3.339C299.787,140.026,301.463,136.39,303.343,137.28z"/>
				<path style="fill:#FC9EA2;stroke:#ED8867;stroke-width:0.4723;stroke-miterlimit:10;" d="M306.375,136.596
					c1.623,0.728-0.487,4.224-2.258,3.591C302.347,139.553,304.251,135.643,306.375,136.596z"/>
				<path style="fill:#FC9EA2;stroke:#ED8867;stroke-width:0.4723;stroke-miterlimit:10;" d="M308.654,135.985
					c-1.398,0.058-2.364,4.345,0.202,4.409C310.876,140.445,311.091,135.884,308.654,135.985z"/>
			</g>
			<g>
				<polygon style="fill:#4B62D6;" points="388.821,272.097 368.671,328.98 355.727,398.653 335.063,397.532 341.166,340.794 
					364.684,252.911 392.534,254.562 				"/>
				<path style="fill:#6170ED;" d="M402.436,255.387c0,0,3.095,11.14,2.269,28.263c-0.825,17.123-1.65,31.619-1.444,37.395
					c0.206,5.776,0.413,9.345,0,14.503c-0.413,5.158-1.952,64.018-1.952,64.018h-22.391l-5.983-144.798L402.436,255.387z"/>
				<path style="fill:none;stroke:#F9F8F7;stroke-width:0.4126;stroke-linecap:round;stroke-miterlimit:10;" d="M391.073,255.612
					c0,0,0.223,16.072,12.188,22.467"/>
			</g>
			<path style="fill:#FFC96C;" d="M394.391,155.126c0,0,14.853,1.032,21.042,8.665c0,0-13.822,40.641-11.346,92.215
				c0,0-22.486,2.063-40.847-1.031l-1.857-94.897c0,0,15.885-4.539,18.979-4.951C383.457,154.714,394.391,155.126,394.391,155.126z"
				/>
			<g>
				<path style="fill:#FFFFFF;" d="M94.955,377.915c0,0,74.912-72.848,65.006-236.292l218.957-2.476
					c0,0-13.718,259.866-95.765,275.882c-1.228,0.24-4.05,0.237-4.53,0.24l-27.027-6.198L94.955,377.915z"/>
				<path style="fill:#EFEFEF;" d="M59.873,349.436c0,0,133.727,20.637,206.369,22.494c0,0-10.318,6.604-10.731,18.986
					c-0.413,12.382,13.827,25.383,27.653,24.145c0,0-2.476,0.413-10.938,0.413H136.378c-0.695,0-1.389-0.054-2.075-0.165
					C125.432,413.88,65.793,402.333,59.873,349.436z"/>
			</g>
			<path style="fill:none;stroke:#E8AD56;stroke-width:0.4126;stroke-linecap:round;stroke-miterlimit:10;" d="M381.188,189.372
				c0,0-4.745,35.483-4.951,65.809"/>
			<path style="fill:#F9BB62;" d="M405.118,186.69l-0.919,0.549c0,0-10.321,47.924-8.456,69.267c5.069-0.2,8.344-0.5,8.344-0.5
				c-1.076-22.409,0.926-42.752,3.533-58.596L405.118,186.69z"/>
			<g>
				<g>
					<path style="fill:#FC9EA2;" d="M371.008,213.988c-3.258-0.345-6.263-1.299-8.292-2.025c-2.029-0.726-6.533-0.894-6.777-0.526
						c-0.244,0.368-0.089,1.433,2.622,2.259c1.601,0.488,2.238,1.043,2.238,1.043s-0.745,0.815-2.068,1.188
						c-1.323,0.373-6.703,2.399-7.361,2.622c-0.658,0.223-0.398,1.13,0.717,1.078c-1.618,0.46-1.626,1.546,0.115,1.758
						c0,0-1.037,0.852,0.811,1.256c1.848,0.404,4.665,0.468,4.665,0.468s-3.18,0.462-3.523,0.678
						c-0.343,0.216-0.278,0.889,0.92,0.966c1.198,0.077,9.144-0.378,10.471-0.568c1.623-0.232,4.732-1.05,4.732-1.05
						S373.001,217.052,371.008,213.988z"/>
				</g>
				
					<path style="fill:none;stroke:#ED8867;stroke-width:0.3724;stroke-linecap:round;stroke-linejoin:round;stroke-miterlimit:10;" d="
					M360.102,211.421c-1.951-0.237-4-0.229-4.163,0.016c-0.244,0.368-0.089,1.433,2.622,2.259c1.601,0.488,2.238,1.043,2.238,1.043
					s-0.745,0.815-2.068,1.188c-1.323,0.373-6.703,2.399-7.361,2.622c-0.658,0.223-0.398,1.13,0.717,1.078
					c-1.618,0.46-1.626,1.546,0.115,1.758c0,0-1.037,0.852,0.811,1.256c1.848,0.404,4.665,0.468,4.665,0.468
					s-3.18,0.462-3.523,0.678c-0.343,0.216-0.278,0.889,0.92,0.966c0.358,0.023,1.316-0.001,2.519-0.052"/>
				
					<path style="fill:none;stroke:#ED8867;stroke-width:0.3724;stroke-linecap:round;stroke-linejoin:round;stroke-miterlimit:10;" d="
					M357.679,223.109c1.018-0.132,1.804-0.171,1.804-0.171"/>
				
					<line style="fill:none;stroke:#ED8867;stroke-width:0.3724;stroke-linecap:round;stroke-linejoin:round;stroke-miterlimit:10;" x1="352.203" y1="221.385" x2="359.086" y2="220.755"/>
				
					<line style="fill:none;stroke:#ED8867;stroke-width:0.3724;stroke-linecap:round;stroke-linejoin:round;stroke-miterlimit:10;" x1="352.087" y1="219.626" x2="358.342" y2="218.596"/>
			</g>
			<path style="fill:#F4D5B0;" d="M370.667,213.715c0,0,1.35,4.364-0.666,9.609l5.617-0.531l0.206-9.077H370.667z"/>
			<path style="fill:#FFC96C;" d="M408.832,162.76c0,0,8.664-3.094,11.553,9.077c2.888,12.172,9.696,49.305,4.951,50.749
				c-4.745,1.444-27.644,1.65-34.039,1.65c-6.395,0-17.419-0.775-17.419-0.775s1.947-5.001,0.091-10.158l35.896-2.682
				C409.863,210.62,394.185,167.092,408.832,162.76z"/>
			<polygon style="fill:#F4D5B0;" points="379.107,158.674 395.629,159.665 381.188,189.372 			"/>
			<g>
				<path style="fill:#3F2F3C;" d="M402.089,138.272c0,0-2.8,4.667-5.6,4.667l1.867-3.733L402.089,138.272z"/>
				<path style="fill:#FFA0A4;" d="M396.596,155.74c0,0-1.47,6.106-8.258,7.631c-6.783,1.531-9.36-1.803-9.232-4.696
					c0.008-0.204,0.017-0.408,0.032-0.617c0.18-3.216,0.634-6.797,0.862-13.167c0.034-0.998,0.251-2.098,0.612-3.208
					c2.045-6.427,13.003-14.399,13.507-3.009C394.388,144.748,396.596,155.74,396.596,155.74z"/>
				<path style="fill:#F48C93;" d="M379.138,158.058c0.18-3.216,0.634-6.797,0.862-13.167c0.034-0.998,0.251-2.098,0.612-3.208
					c3.541,0.636,7.916,2.653,7.861,6.05C388.391,152.806,386.68,158.387,379.138,158.058z"/>
				<g>
					<path style="fill:#FFA0A4;" d="M380.449,152.753c6.561-0.008,15.248-5.449,19.466-14.143c4.618-9.52-0.847-13.981-2.39-17.491
						c-1.543-3.51-7.153-10.882-15.827-5.061c-7.765,5.195-9.737,2.547-10.109,18.879c-0.032,1.402,0.537,5.667,1.096,8.763
						C374.07,151.383,376.536,152.758,380.449,152.753z"/>
				</g>
				<path style="fill:#372834;" d="M376.746,131.933c0.088,0.71-0.154,1.325-0.541,1.373c-0.387,0.048-0.772-0.489-0.86-1.199
					c-0.088-0.71,0.154-1.324,0.541-1.372C376.273,130.686,376.658,131.223,376.746,131.933z"/>
				<path style="fill:#F48C93;" d="M385.672,138.181c0.64,2.007,2.785,3.115,4.791,2.475c2.007-0.64,3.115-2.785,2.475-4.791
					c-0.64-2.007-2.785-3.115-4.791-2.475C386.141,134.029,385.033,136.175,385.672,138.181z"/>
				
					<path style="fill:none;stroke:#DD7A81;stroke-width:0.4913;stroke-linecap:round;stroke-linejoin:round;stroke-miterlimit:10;" d="
					M378.287,133.809c0,0-1.576,4.133-1.332,5.076c0.244,0.943,2.43-0.207,2.43-0.207"/>
				
					<path style="fill:none;stroke:#DD7A81;stroke-width:0.4913;stroke-linecap:round;stroke-linejoin:round;stroke-miterlimit:10;" d="
					M383.725,140.128c0,0,0.07,3.665-3.311,2.417"/>
				<path style="fill:#F48C93;" d="M371.589,134.938c0.003-0.155,0.008-0.296,0.012-0.448c1.565,0.054,3,1.062,3.503,2.639
					c0.64,2.007-0.469,4.152-2.475,4.791c-0.078,0.025-0.157,0.042-0.235,0.062C371.945,139.194,371.562,136.093,371.589,134.938z"
					/>
				<path style="fill:#372834;" d="M377.201,128.483c0,0,0.346-0.224-0.238-0.544c-0.584-0.319-2.148-0.722-3.301,0.219
					c0,0-0.399,0.352,0.242,0.519C374.258,128.77,376.2,129.034,377.201,128.483z"/>
				<path style="fill:#372834;" d="M380.815,128.533c0,0-0.34-0.233,0.253-0.537c0.593-0.303,2.167-0.663,3.293,0.309
					c0,0,0.389,0.362-0.256,0.512C383.749,128.9,381.8,129.111,380.815,128.533z"/>
				<g>
					<g>
						<g>
							<g>
								<g>
									<path style="fill:#372834;" d="M370.506,126.04l0.109,2.413c-0.13,2.616-0.433,4.276,0.974,6.484
										c0,0,0.066-4.86,0.677-9.08c0.209-1.446,0.965-2.768,2.127-3.653c5.623-4.282,7.192-1.181,11.111-1.035
										c1.183,0.044,3.098,0.158,4.806,0.488c1.103,0.213,1.72,1.297,1.557,2.409c-0.015,0.101-0.022,0.203-0.019,0.306
										c-0.62,5.51,2.079,11.398,5.255,13.987c0.321,0.261,0.412,0.727,0.778,0.874c1.248,0.501,1.63-1.035,2.393-1.758
										c0.565-0.535,1.794,0.077,2.705,0.084c0.544-1.497,5.039-8.28,2.999-16.342c-1.163-4.598-2.964-9.864-6.74-10.584
										c-4.436-4.224-9.156-2.545-11.021-2.953c-2.899-0.633-6.901,0.269-9.655,1.433c-2.129,0.9-4.982,2.265-6.699,5.768
										C368.805,121.121,370.327,123.46,370.506,126.04z"/>
								</g>
							</g>
						</g>
					</g>
				</g>
				<path style="fill:#FFA0A4;" d="M395.003,136.638c-0.257-4.078,5.227-8.038,7.765-2.966c2.197,4.391-2.025,6.154-4.358,6.726
					L395.003,136.638z"/>
				
					<path style="fill:none;stroke:#DD7A81;stroke-width:0.4913;stroke-linecap:round;stroke-linejoin:round;stroke-miterlimit:10;" d="
					M396.712,137.125c0,0,0.753-5.199,4.843-2.98"/>
				
					<path style="fill:none;stroke:#DD7A81;stroke-width:0.4913;stroke-linecap:round;stroke-linejoin:round;stroke-miterlimit:10;" d="
					M400.223,136.654c0,0,0.463-2.326-1.3-3.061"/>
				<path style="fill:#372834;" d="M382.926,132.017c0.088,0.71-0.154,1.325-0.541,1.372c-0.387,0.048-0.772-0.489-0.86-1.199
					c-0.088-0.71,0.154-1.325,0.541-1.372C382.453,130.771,382.838,131.307,382.926,132.017z"/>
				<path style="fill:#372834;" d="M399.289,111.205c0,0-0.933-0.933-0.933-3.733c0,0,0.933,1.867,1.867,2.8h1.867L399.289,111.205z
					"/>
			</g>
			<path style="fill:none;stroke:#E8AD56;stroke-width:0.4126;stroke-linecap:round;stroke-miterlimit:10;" d="M403.055,174.931
				c0.506-5.108,1.7-9.108,4.052-10.343c0.012-0.009,0.026-0.013,0.038-0.022c5.869-3.067,9.312-0.911,11.884,3.445"/>
			<path style="fill:none;stroke:#E8AD56;stroke-width:0.4126;stroke-linecap:round;stroke-miterlimit:10;" d="M406.897,201.645
				l-2.783-12.268c-0.841-3.709-1.331-7.489-1.462-11.29l-0.009-0.269"/>
			<path style="fill:none;stroke:#E8AD56;stroke-width:0.4126;stroke-linecap:round;stroke-miterlimit:10;" d="M409.863,210.62
				c0,0,6.602-2.269,11.553,5.983"/>
			
				<line style="fill:none;stroke:#E8AD56;stroke-width:0.4126;stroke-linecap:round;stroke-miterlimit:10;" x1="406.463" y1="210.906" x2="384.03" y2="212.416"/>
			
				<line style="fill:none;stroke:#E8AD56;stroke-width:0.4126;stroke-linecap:round;stroke-miterlimit:10;" x1="382.589" y1="212.416" x2="379.125" y2="212.684"/>
			
				<line style="fill:none;stroke:#E8AD56;stroke-width:0.4126;stroke-linecap:round;stroke-miterlimit:10;" x1="377.062" y1="223.411" x2="408.453" y2="224.055"/>
			<path style="fill:none;stroke:#E8AD56;stroke-width:0.4126;stroke-linecap:round;stroke-miterlimit:10;" d="M422.813,183.626
				c0,0,4.266,22.453,4.116,32.563"/>
			<path style="fill:none;stroke:#E8AD56;stroke-width:0.4126;stroke-linecap:round;stroke-miterlimit:10;" d="M374.752,217.887
				c0.165,2.728-0.875,5.574-0.875,5.574l1.947-0.05"/>
			<path style="fill:none;stroke:#E8AD56;stroke-width:0.4126;stroke-linecap:round;stroke-miterlimit:10;" d="M374.271,214.405
				c0,0-0.304-0.896-0.51-1.515l2.888-0.206"/>
			<g>
				<path style="fill:#E8AD56;" d="M396.378,154.584c0,0-12.509,21.585-15.191,34.788l13.616-15.472l-2.475-4.332l6.189-1.032
					l1.444-13.409C399.961,155.126,401.461,155.279,396.378,154.584z"/>
				<polygon style="fill:#E8AD56;" points="379.331,155.126 381.188,189.372 375.618,170.599 377.681,167.917 374.793,166.06 
					376.443,155.333 				"/>
			</g>
			<g>
				<path style="fill:#FFC96C;" d="M355.24,418.002c0,0,0.519-11.685-2.337-11.945c-2.856-0.26-4.414,2.856-8.05,2.337
					c-3.635-0.519-8.309-2.597-9.088-2.337c-0.779,0.26-19.735,3.895-19.475,8.309v3.635H355.24z"/>
				<path style="fill:#E29B3D;" d="M316.29,418.002h38.95c0,0,0.054-1.209,0.032-2.856H316.29V418.002z"/>
			</g>
			<g>
				<path style="fill:#FFC96C;" d="M401.273,418.002c0,0,0.519-11.685-2.337-11.945c-2.856-0.26-4.414,2.856-8.05,2.337
					c-3.635-0.519-8.309-2.597-9.088-2.337c-0.779,0.26-19.735,3.895-19.475,8.309v3.635H401.273z"/>
				<path style="fill:#E29B3D;" d="M362.323,418.002h38.95c0,0,0.053-1.209,0.031-2.856h-38.982V418.002z"/>
			</g>
			<path style="fill:#FC9EA2;" d="M339.141,397.672c0,1.557,0,3.593,0,5.01c0,2.158-3.048,3.24-4.077,3.543
				c0.38-0.086,0.626-0.143,0.702-0.168c0.779-0.26,5.453,1.818,9.088,2.337c3.635,0.519,5.193-2.597,8.05-2.337
				c0.05,0.005,0.099,0.013,0.147,0.025l-0.371-7.614L339.141,397.672z"/>
			<path style="fill:#FC9EA2;" d="M384.764,399.566c0.171,1.114,0.25,3.852-2.336,6.526c1.581,0.316,5.39,1.864,8.459,2.303
				c3.026,0.432,4.613-1.652,6.707-2.214l-0.207-6.614H384.764z"/>
		</g>
		<g>
			<path style="fill:#6D27A5;" d="M136.987,341.334c0,0,1.098,6.038,1.464,10.978l-3.111,0.183l-0.732-8.783L136.987,341.334z"/>
			
				<rect x="121.914" y="353.136" transform="matrix(-1 -1.224647e-16 1.224647e-16 -1 274.0193 716.3354)" style="fill:#6170ED;" width="30.19" height="10.063"/>
			<path style="fill:#473DD5;" d="M119.444,368.871h35.131v-7.201c0-0.874-0.708-1.582-1.582-1.582h-31.967
				c-0.874,0-1.582,0.708-1.582,1.582V368.871z"/>
			<path style="fill:#5757E8;" d="M105.302,418.274h63.415c2.598,0,4.704-2.106,4.704-4.704v-42.922
				c0-2.598-2.106-4.704-4.704-4.704h-63.415c-2.598,0-4.704,2.106-4.704,4.704v42.922
				C100.598,416.168,102.704,418.274,105.302,418.274z"/>
			<path style="fill:#473DD5;" d="M122.646,354.6h28.726c1.061,0,1.921-0.86,1.921-1.921l0,0c0-1.061-0.86-1.921-1.921-1.921
				h-28.726c-1.061,0-1.921,0.86-1.921,1.921l0,0C120.725,353.74,121.585,354.6,122.646,354.6z"/>
			<path style="fill:#B256DF;" d="M136.529,346.549c0,0,21.957-41.717-22.688-72.823c-44.645-31.105-40.986-40.254-40.986-40.254
				s1.647,42.815,11.71,61.113c0,0,10.612,1.83,9.88,2.013c-0.732,0.183-6.77,6.404-6.77,6.404S105.241,344.902,136.529,346.549z"/>
			<g>
				<path style="fill:#A245D8;" d="M72.855,233.473c0,0,0.024,0.622,0.084,1.747C72.646,233.997,72.855,233.473,72.855,233.473z"/>
				<path style="fill:#8E40BC;" d="M72.939,235.22c0.931,3.888,6.938,14.843,40.902,38.507
					c44.645,31.105,22.688,72.823,22.688,72.823c-2.221-0.117-4.372-0.437-6.453-0.93c4.953-10.927,14.861-42.535-19.485-70.292
					c-28.545-23.069-35.879-34.611-37.629-39.681C72.954,235.497,72.946,235.355,72.939,235.22z"/>
			</g>
			<path style="fill:none;stroke:#6C27A8;stroke-width:0.5489;stroke-linecap:round;stroke-miterlimit:10;" d="M136.438,346.641
				c0,0-2.653-26.622-21.682-47.847c-19.029-21.225-28.544-27.629-31.654-38.058"/>
			<path style="opacity:0.1;fill:#B2BBED;" d="M105.302,365.944h55.055c1.513,4.387,2.337,9.096,2.337,13.997
				c0,16.757-9.608,31.269-23.614,38.332h-33.778c-2.598,0-4.704-2.106-4.704-4.704v-42.922
				C100.598,368.05,102.704,365.944,105.302,365.944z"/>
			<path style="opacity:0.1;fill:#B2BBED;" d="M105.302,365.944h31.196c-1.933,19.425-16.821,35.035-35.9,38.07v-33.366
				C100.598,368.05,102.704,365.944,105.302,365.944z"/>
			<path style="opacity:0.4;fill:#F7F7F9;" d="M122.549,361.953h16.616c0.262,0,0.475-0.212,0.475-0.475l0,0
				c0-0.262-0.212-0.475-0.475-0.475h-16.616c-0.262,0-0.475,0.212-0.475,0.475l0,0
				C122.075,361.741,122.287,361.953,122.549,361.953z"/>
			<circle style="opacity:0.4;fill:#F7F7F9;" cx="121.251" cy="361.461" r="0.457"/>
			<path style="opacity:0.4;fill:#F7F7F9;" d="M124.379,352.439h16.616c0.262,0,0.475-0.212,0.475-0.475l0,0
				c0-0.262-0.213-0.475-0.475-0.475h-16.616c-0.262,0-0.475,0.213-0.475,0.475l0,0
				C123.904,352.226,124.117,352.439,124.379,352.439z"/>
			<path style="opacity:0.4;fill:#F7F7F9;" d="M122.623,351.947c0,0.253,0.205,0.457,0.457,0.457c0.253,0,0.457-0.205,0.457-0.457
				c0-0.253-0.205-0.457-0.457-0.457C122.828,351.489,122.623,351.694,122.623,351.947z"/>
		</g>
		<g>
			<path style="fill:#8A8DFF;" d="M138.075,206.194H86.655c-3.858,0-6.985-3.128-6.985-6.985v-29.032
				c0-3.858,3.128-6.985,6.985-6.985h51.421c3.858,0,6.985,3.127,6.985,6.985v29.032
				C145.061,203.066,141.933,206.194,138.075,206.194z"/>
			<g>
				<path style="fill:#F4B962;" d="M110.608,181.803H97.812c-0.491,0-0.89-0.398-0.89-0.889v-8.865c0-0.491,0.398-0.889,0.89-0.889
					h12.796c0.491,0,0.889,0.398,0.889,0.889v8.865C111.497,181.405,111.099,181.803,110.608,181.803z"/>
				<path style="fill:#F9F9F9;" d="M125.922,196.838H98.808c-1.041,0-1.885-0.844-1.885-1.885v-18.786
					c0-1.041,0.844-1.885,1.885-1.885h27.114c1.041,0,1.885,0.844,1.885,1.885v18.786
					C127.807,195.994,126.963,196.838,125.922,196.838z"/>
				<path style="fill:#F4B962;" d="M125.922,198.226H98.808c-1.041,0-1.885-0.844-1.885-1.885v-18.786
					c0-1.041,0.844-1.885,1.885-1.885h27.114c1.041,0,1.885,0.844,1.885,1.885v18.786
					C127.807,197.382,126.963,198.226,125.922,198.226z"/>
				<path style="fill:#FFC96C;" d="M127.807,177.555c0-1.041-0.844-1.885-1.885-1.885H98.808c-1.041,0-1.885,0.844-1.885,1.885
					v15.864c2.499,0.694,5.164,1.073,7.933,1.073c10.044,0,18.734-4.933,22.951-12.115V177.555z"/>
				<circle style="fill:#F8F7F9;" cx="119.132" cy="178.1" r="0.694"/>
				<circle style="fill:#F8F7F9;" cx="121.561" cy="178.1" r="0.694"/>
				<circle style="fill:#F8F7F9;" cx="123.99" cy="178.1" r="0.694"/>
			</g>
		</g>
		<g>
			<path style="fill:#8A8DFF;" d="M171.093,149.775h-35.598c-2.998,0-5.429-2.43-5.429-5.428v-25.699
				c0-2.998,2.43-5.428,5.429-5.428h35.598c2.998,0,5.428,2.43,5.428,5.428v25.699C176.522,147.344,174.091,149.775,171.093,149.775
				z"/>
			<g>
				<g>
					<g>
						<path style="fill:#FFFFFF;" d="M139.615,122.241c0,0,11.037,9.942,7.883,23.418l19.236-3.642c0,0,0.473-15.647-8.987-22.757
							L139.615,122.241z"/>
					</g>
					<g>
						
							<rect x="145.152" y="122.773" transform="matrix(0.9874 -0.1583 0.1583 0.9874 -17.5491 25.5035)" style="fill:#D2E0FF;" width="12.385" height="0.315"/>
					</g>
					<g>
						
							<rect x="146.597" y="124.104" transform="matrix(0.9885 -0.1509 0.1509 0.9885 -17.0048 24.4561)" style="fill:#D2E0FF;" width="12.052" height="0.315"/>
					</g>
					<g>
						
							<rect x="147.855" y="125.576" transform="matrix(0.9872 -0.1595 0.1595 0.9872 -18.0846 26.0972)" style="fill:#D2E0FF;" width="11.429" height="0.315"/>
					</g>
					<g>
						
							<rect x="148.637" y="127.328" transform="matrix(0.9894 -0.1451 0.1451 0.9894 -16.8686 23.7673)" style="fill:#D2E0FF;" width="11.615" height="0.315"/>
					</g>
					<g>
						
							<rect x="149.337" y="128.729" transform="matrix(0.9892 -0.1465 0.1465 0.9892 -17.2115 24.1137)" style="fill:#D2E0FF;" width="11.477" height="0.315"/>
					</g>
					<g>
						
							<rect x="149.31" y="130.621" transform="matrix(0.9858 -0.168 0.168 0.9858 -19.7648 28.0025)" style="fill:#D2E0FF;" width="12.512" height="0.315"/>
					</g>
				</g>
				<g>
					<path style="fill:#5151D2;" d="M164.725,118.463l1.054,0.416l1.053,0.416l0.097-0.247c0.129-0.327-0.033-0.7-0.36-0.828
						l-2.132-0.841c-0.327-0.129-0.7,0.033-0.829,0.36l-0.097,0.247l0.49,0.193L164.725,118.463z"/>
					<polygon style="fill:#5151D2;" points="164.001,118.178 163.511,117.984 163.414,118.231 158.139,131.607 158.628,131.8 					
						"/>
					
						<rect x="154.355" y="124.743" transform="matrix(0.3668 -0.9303 0.9303 0.3668 -14.0387 229.6369)" style="fill:#5757E8;" width="14.644" height="0.778"/>
					<polygon style="fill:#6767E5;" points="165.778,118.879 164.725,118.463 159.352,132.085 160.133,132.393 160.406,132.501 
											"/>
					<polygon style="fill:#7575EA;" points="160.406,132.501 161.459,132.917 166.735,119.54 166.832,119.294 165.778,118.879 					
						"/>
					<polygon style="fill:#F6E7D4;" points="158.206,134.946 158.206,134.946 158.139,131.607 					"/>
					<path style="fill:#F6E7D4;" d="M160.133,132.393c-0.15,0.108-0.291,0.227-0.42,0.35c-0.445,0.426-0.82,0.973-1.005,1.564
						c-0.08,0.255-0.117,0.517-0.14,0.781l0.562,0.222l2.328-2.394l-1.054-0.416L160.133,132.393z"/>
					<path style="fill:#F3CCB2;" d="M158.569,135.089c0.023-0.264,0.059-0.526,0.14-0.781c0.185-0.591,0.56-1.138,1.005-1.564
						c0.129-0.123,0.27-0.242,0.42-0.35l-0.781-0.308l-0.724-0.285l-0.49-0.193l0.067,3.339L158.569,135.089z"/>
					<path style="fill:#5564AB;" d="M158.206,134.946L158.206,134.946l-0.034,1.442l0.959-1.077l-0.562-0.222L158.206,134.946z
						 M159.038,135.311l-0.647,0.726l0.266-0.877L159.038,135.311z"/>
					<polygon style="fill:#6873B5;" points="158.39,136.037 159.038,135.311 158.656,135.16 					"/>
				</g>
			</g>
		</g>
		<g>
			<g>
				<g>
					<g>
						<path style="fill:#B056DD;" d="M423.289,360.037l-1.459-1.245c-1.557-1.329-1.743-3.677-0.415-5.234l10.444-12.24
							c1.328-1.557,3.676-1.743,5.233-0.415l2.089,1.783c0.305,0.26,0.342,0.719,0.081,1.024c-0.26,0.305-0.719,0.341-1.025,0.081
							l-2.089-1.783c-0.948-0.809-2.377-0.696-3.186,0.252l-10.444,12.24c-0.809,0.948-0.696,2.377,0.252,3.186l1.459,1.244
							c0.948,0.809,2.377,0.696,3.185-0.252l6.934-8.125c0.26-0.305,0.719-0.342,1.024-0.081c0.305,0.261,0.342,0.719,0.081,1.024
							l-6.933,8.125C427.194,361.18,424.845,361.366,423.289,360.037z"/>
					</g>
				</g>
				<g>
					<g>
						<path style="fill:#B056DD;" d="M413.246,373.083l-2.615-2.231c-2.428-2.072-2.597-5.874-0.378-8.475l15.702-18.402
							c0.261-0.305,0.72-0.341,1.025-0.081c0.305,0.26,0.342,0.719,0.081,1.024l-15.702,18.402c-1.7,1.992-1.603,4.875,0.216,6.426
							l2.615,2.231c1.819,1.552,4.681,1.193,6.38-0.798l17.885-20.961c1.699-1.992,1.603-4.875-0.216-6.426
							c-0.305-0.26-0.341-0.719-0.081-1.024c0.26-0.305,0.719-0.342,1.024-0.081c2.428,2.072,2.598,5.874,0.378,8.475
							l-17.886,20.961C419.455,374.724,415.674,375.155,413.246,373.083z"/>
					</g>
				</g>
			</g>
			<g>
				<g>
					<g>
						<path style="fill:#B056DD;" d="M295.714,84.317l1.92-1.121c2.049-1.198,4.691-0.505,5.888,1.545l9.412,16.107
							c1.197,2.049,0.504,4.69-1.545,5.888l-2.749,1.606c-0.401,0.234-0.917,0.1-1.152-0.302c-0.235-0.401-0.1-0.917,0.302-1.152
							l2.749-1.607c1.247-0.729,1.669-2.336,0.94-3.583l-9.411-16.107c-0.729-1.247-2.336-1.669-3.583-0.941l-1.92,1.122
							c-1.248,0.729-1.669,2.337-0.94,3.583l6.247,10.692c0.235,0.402,0.099,0.918-0.303,1.153
							c-0.401,0.234-0.918,0.099-1.152-0.302l-6.247-10.692C292.971,88.156,293.664,85.514,295.714,84.317z"/>
					</g>
				</g>
				<g>
					<g>
						<path style="fill:#B056DD;" d="M285.267,68.342l3.441-2.011c3.195-1.867,7.421-0.601,9.422,2.822l14.149,24.216
							c0.235,0.402,0.099,0.917-0.302,1.152c-0.402,0.235-0.918,0.099-1.152-0.302l-14.149-24.215
							c-1.532-2.621-4.725-3.616-7.118-2.218l-3.441,2.011c-2.393,1.398-3.094,4.668-1.562,7.29l16.117,27.582
							c1.531,2.621,4.724,3.616,7.118,2.218c0.401-0.235,0.917-0.1,1.152,0.302c0.235,0.401,0.099,0.917-0.302,1.152
							c-3.195,1.867-7.422,0.601-9.422-2.822L283.1,77.936C281.1,74.513,282.072,70.209,285.267,68.342z"/>
					</g>
				</g>
			</g>
		</g>
		<g>
			<path style="fill:#C5C9F8;" d="M250.714,186.025h51.348c1.635,0,2.96-1.326,2.96-2.961l0,0c0-1.635-1.325-2.96-2.96-2.96h-51.348
				c-1.635,0-2.96,1.325-2.96,2.96l0,0C247.753,184.699,249.079,186.025,250.714,186.025z"/>
			<g>
				<g>
					<g>
						<path style="fill:#8A8DFF;" d="M189.951,194.138l-16.78,27.153c-0.466,0.754,0.249,1.684,1.098,1.427l9.25-2.803
							c0.572-0.173,1.163,0.211,1.235,0.805l1.126,9.245c0.11,0.903,1.296,1.164,1.774,0.39l17.14-27.736L189.951,194.138z"/>
						<path style="fill:#727BF2;" d="M185.105,223.601l0.775,6.364c0.11,0.903,1.296,1.164,1.774,0.39l17.14-27.736l-2.565-1.466
							L185.105,223.601z"/>
					</g>
					<g>
						<path style="fill:#8A8DFF;" d="M220.611,194.138l16.78,27.153c0.466,0.754-0.249,1.684-1.098,1.427l-9.25-2.803
							c-0.572-0.173-1.162,0.211-1.235,0.805l-1.126,9.245c-0.11,0.903-1.296,1.164-1.774,0.39l-17.14-27.736L220.611,194.138z"/>
						<path style="fill:#727BF2;" d="M225.458,223.601l-0.775,6.364c-0.11,0.903-1.296,1.164-1.775,0.39l-17.14-27.736l2.565-1.466
							L225.458,223.601z"/>
					</g>
				</g>
				<g>
					<circle style="fill:#4B4BDD;" cx="205.281" cy="186.337" r="28.465"/>
					<g>
						<path style="fill:#8A8DFF;" d="M211.029,167.738c10.272,3.174,16.025,14.075,12.851,24.347
							c-3.175,10.272-14.075,16.025-24.347,12.851s-16.025-14.075-12.851-24.347C189.857,170.317,200.757,164.563,211.029,167.738z"
							/>
						<path style="opacity:0.5;fill:#473DD5;" d="M204.274,197.48c0.221-0.349,0.462-0.551,0.898-0.918
							c0.36-0.303,0.425-0.394,0.596-0.636c0.072-0.102,0.193-0.271,0.26-0.335c0.076-0.072,0.23-0.098,0.321-0.076
							c0.25,0.06,0.175,0.414-0.051,0.707c-0.017,0.022-0.043,0.048-0.063,0.066c-0.201,0.181-0.46,0.275-0.673,0.437
							c-0.353,0.27-0.493,0.738-0.895,0.962c-0.165,0.027-0.182,0.03-0.277-0.036c0.04-0.072,0.078-0.145,0.116-0.217
							c-0.102,0.05-0.196,0.115-0.3,0.161C204.227,197.559,204.253,197.513,204.274,197.48z M203.272,198.849
							c-0.04,0-0.068,0.064-0.113,0.031c0.118-0.124,0.064-0.314,0.171-0.442c0.106-0.127,0.268-0.173,0.394-0.271
							c0.104-0.08,0.104-0.08,0.118-0.415c0.011-0.246,0.268-0.254,0.384-0.399c-0.297-0.067-1.63,0.91-1.667,0.999
							c-0.002,0.005-0.003,0.012-0.004,0.016c0.156,0.053,0.312-0.179,0.461-0.02c0.049,0.052,0.049,0.052-0.073,0.431
							c0.151-0.111,0.151-0.111,0.173-0.148c0.022,0.708,0.022,0.708-0.055,0.818c0.028-0.007,0.065-0.017,0.093-0.024
							C203.332,199.262,203.231,199.04,203.272,198.849z M209.588,196.738c-0.004,0.005-0.01,0.01-0.015,0.014
							c0.1-0.04,0.204-0.071,0.302-0.116c0.068-0.033,0.275-0.136,0.28-0.347c0.008-0.279-0.169-0.495-0.249-0.745
							c-0.003,0.002-0.285,0.228-0.276,0.365C209.66,196.369,209.63,196.679,209.588,196.738z M207.561,201.91
							c-0.002,0.012-0.003,0.024-0.005,0.036l0-0.001C207.559,201.934,207.561,201.922,207.561,201.91z M211.654,197.583
							c0,0.004,0.001,0.01,0.001,0.014c0-0.001,0-0.002,0-0.003C211.654,197.591,211.654,197.586,211.654,197.583z M220.791,174.568
							c-0.021-0.028-0.043-0.055-0.064-0.082C220.749,174.514,220.771,174.543,220.791,174.568z M208.279,167.099
							c0.001,0,0.001,0,0.002,0l0,0L208.279,167.099z M220.727,174.486c-2.438-3.183-5.877-5.644-10.023-6.846
							c-0.806-0.234-1.615-0.413-2.423-0.54c-0.051,0.001-0.119,0.001-0.171,0.001c0.058,0.026,0.141,0.046,0.203,0.058
							c-0.138-0.013-0.325-0.036-0.461-0.014c0.203,0.158,1.319,0.517,1.681,0.623c-0.066-0.008-0.157-0.009-0.223,0.005
							c0.005,0.006,0.005,0.006,0.241,0.21c-0.031,0.037-0.079,0.082-0.117,0.113c0.049,0.062,0.049,0.062,0.194,0.199
							c0,0,0.035,0.015,0.036,0.056c-0.116,0.464-0.868,0.29-0.869,0.868c-0.001,0.302,0.244,0.502,0.32,0.771
							c0.088,0.31,0.036,0.635,0.098,0.948c0.118,0.608,0.59,1.098,0.585,1.748c-0.003,0.372-0.47,0.69-0.145,1.1
							c0.63,0.794,3.937,0.8,4.58,0.323c0.059-0.044,0.108-0.132,0.154-0.189c-0.013-0.083-0.031-0.195-0.044-0.278
							c0.303,0.1,0.543,0.18,0.88,0.191c0.523,0.018,0.41-0.799,0.967-0.736c0.222,0.025,0.626,0.238,0.778,0.318
							c0.391,0.206,0.795,0.418,1.009,0.35c0.251-0.08,0.148-0.436,0.4-0.516c0.023,0.002,0.053,0.006,0.076,0.008
							c-0.438-0.609,0.225-0.576,0.232-0.574c0.4,0.071,1.234,0.8,1.983,1.732C220.688,174.435,220.708,174.461,220.727,174.486z
							 M221.553,196.128c0-0.001,0.001-0.003,0-0.003c-0.003,0.001-0.023,0.019-0.029,0.036c0,0.001,0,0.001-0.001,0.001
							C221.546,196.139,221.551,196.132,221.553,196.128z M218.944,199.279c-0.031,0.002-0.031,0.002-0.24,0.14l-0.006,0.008
							c-0.205,0.187-0.387,0.396-0.593,0.582c0.005,0,0.011,0,0.015-0.001c-0.024,0.064-0.712,0.651-0.758,0.683
							c0.005-0.006,0.012-0.014,0.017-0.02c-0.391,0.393-0.391,0.393-0.544,0.498c0.037-0.038,0.09-0.085,0.13-0.119
							c-0.034,0.018-0.034,0.018-0.146,0.094l-0.008,0.009c-0.075,0.066-0.147,0.136-0.223,0.201
							c-0.002-0.002-0.005-0.006-0.007-0.008c-0.088,0.072-0.088,0.072-0.132,0.139c-0.005,0.006-0.013,0.012-0.018,0.017
							c0.007-0.005,0.017-0.011,0.024-0.016c0.001-0.001,0.002-0.002,0.004-0.003c0.042-0.03,0.079-0.066,0.123-0.093
							c0.419-0.327,0.419-0.327,0.425-0.337c0.203-0.145,0.203-0.145,1.408-1.272c-0.045,0.027-0.063,0.042-0.099,0.072
							c0.158-0.225,0.42-0.331,0.604-0.527C218.939,199.304,218.939,199.304,218.944,199.279z M217.103,201.698
							c0.007-0.005,0.013-0.01,0.02-0.015c0,0,0.001-0.001,0.001-0.001C217.117,201.688,217.11,201.693,217.103,201.698
							C217.102,201.698,217.102,201.698,217.103,201.698z M221.54,196.11c-0.104,0.201-0.185,0.413-0.293,0.612
							c-0.095,0.153-1.336,1.744-1.347,1.757c-0.173,0.211-0.311,0.343-0.412,0.393c0.08-0.124,0.164-0.239,0.317-0.398
							c-0.285,0.211-0.472,0.527-0.778,0.714c-0.005-0.001-0.013-0.004-0.018-0.005c-0.003-0.043,0.211-0.289,0.289-0.319
							c0.051-0.019,1.23-1.417,1.347-1.563c-0.001,0.002-0.002,0.003-0.003,0.004c-0.002,0.003-0.003,0.005-0.005,0.008
							C221.004,196.838,221.215,196.557,221.54,196.11z M220.642,197.311c-0.008,0.007-0.014,0.017-0.021,0.025
							c-0.013,0.018-0.026,0.034-0.037,0.054c0,0,0,0,0,0.001C220.588,197.385,220.64,197.316,220.642,197.311z M221.696,196.028
							c0.015-0.011,0.028-0.024,0.045-0.033l0.002-0.002c-0.001,0.002-0.002,0.003-0.003,0.004
							c-0.237,0.531-0.237,0.531-0.225,0.565c0.062,0.002,0.089-0.005,0.248-0.161c-0.34,0.402-0.34,0.402-0.449,0.599
							c0.011-0.013,0.026-0.03,0.038-0.043c0.004,0.004,0.009,0.01,0.013,0.015c-0.015,0.029-0.039,0.052-0.055,0.081l0.039-0.047
							l-0.009,0.015c0.004-0.005,0.009-0.011,0.013-0.017c0.006-0.007,0.006-0.008,0.007-0.009l0.002-0.002
							c0.38-0.471,0.91-1.176,1.278-1.865c-0.017,0.031-0.033,0.063-0.049,0.094c0.063-0.088,0.269-0.502,0.449-0.902
							c0.087-0.193,0.169-0.389,0.25-0.586c-0.367,0.853-0.75,1.31-1.248,1.857C221.835,195.818,221.745,195.921,221.696,196.028z
							 M210.518,204.097c0.431-0.344,0.201-1.04,0.713-1.341c0.128-0.075,1.552-0.458,1.456,0.07
							c-0.022,0.123-0.072,0.237-0.101,0.358c0.059-0.053,0.119-0.104,0.178-0.158c0.014,0.011,0.033,0.028,0.047,0.039
							c0.19-0.111,0.225-0.131,0.755-0.316c0.543-0.189,0.543-0.189,0.579-0.262c-0.022-0.009-0.052-0.022-0.074-0.031
							c-0.006-0.017-0.013-0.04-0.019-0.057c0.541-0.382,0.969-0.684,0.635-0.888c0.214-0.097,0.253-0.123,0.425-0.271
							c0.277,0.059,0.457-0.178,0.699-0.228c0.004-0.007,0.371-0.69,0.588-0.93c0,0,0,0,0,0l0,0c0,0,0,0,0,0c0,0,0,0,0,0
							c0,0,0,0,0,0l0,0c0,0,0,0,0-0.001l0,0c-0.039-0.011-0.09-0.034-0.121-0.059c0.017-0.029,0.039-0.068,0.054-0.098
							c-0.01-0.016-0.023-0.037-0.033-0.052c0.068,0.002,0.11,0.004,0.231,0.064c0.041-0.06,0.096-0.141,0.128-0.207
							c0.147-0.306,0.116-0.664,0.289-0.962c0.899-1.544,0.899-1.544,0.924-1.625c0.104-0.339,0.171-0.357,0.221-0.37
							c0.011,0.015,0.025,0.035,0.037,0.05c0.207-0.533,0.132-0.58-0.595-1.026c0.033-0.022,0.082-0.045,0.12-0.058
							c-0.317-0.444-0.965-0.283-1.293-0.707c-0.181-0.233-0.136-0.573-0.369-0.781c-0.015-0.013-0.035-0.032-0.053-0.04
							c-0.057-0.027-0.229-0.108-0.502,0.478c-1.108,2.378-1.108,2.378-1.869,3.021c-0.605,0.511-0.605,0.511-1.455-0.214
							c-0.068,0.35-0.27,0.66-0.304,1.021c-0.375-0.286,0.114-0.658,0.111-0.994c-0.14,0.103-0.14,0.103-0.229,0.527
							c-0.092-0.141-0.023-0.296-0.04-0.444c-0.017,0.013-0.039,0.031-0.056,0.044c-0.362-0.103-0.246-0.665-0.674-0.706
							c-0.104-0.01-0.104-0.01-0.755,0.569c-0.036-0.107-0.021-0.119,0.048-0.176c-0.016-0.008-0.038-0.018-0.054-0.025
							c-0.029,0.025-0.063,0.064-0.083,0.097c-0.08-0.038-0.08-0.038-0.208-0.22c-0.2,0.479-0.652,0.778-0.882,1.236
							c-0.246,0.491-0.42,1.017-0.696,1.494c-0.026,0.045-0.061,0.104-0.087,0.149c-0.589,1.006-0.623,1.219-0.639,1.743
							c0.004-0.018,0.009-0.042,0.012-0.061c-0.003,0.024-0.012,0.056-0.009,0.079l-0.001,0.018l-0.003,0.01
							c-0.002,0.015-0.004,0.034-0.007,0.049c0.001,0.039,0.047,0.226,0.243,0.374l0.799,0.592c0.254,0.171,0.602-0.02,0.839,0.217
							c0.074,0.075,0.076,0.16,0.071,0.303c-0.009,0.3,0.051,0.309,0.521,0.386c0.404,0.066,0.434,0.088,0.532,0.16
							c0.002,0.022,0.004,0.051,0.006,0.073c-0.026,0.028-0.059,0.066-0.084,0.095c0,0-0.001,0.001-0.001,0.001c0,0,0,0,0,0
							c0.005-0.001,0.01-0.002,0.014-0.004C210.508,204.102,210.513,204.099,210.518,204.097z M218.565,174.975
							c0.066,0,0.152,0.035,0.211,0.065c0.271,0.139,0.508,0.333,0.774,0.48c0.123,0.068,0.263,0.096,0.387,0.162
							c0.325,0.173,0.325,0.173,0.397,0.235c0.037,0.047,0.088,0.11,0.051,0.225c-0.038,0.12-0.171,0.169-0.214,0.285l0.008-0.021
							c-0.023-0.07-0.023-0.07-0.243-0.044c0,0,0,0,0,0c0.008-0.047,0.012-0.056,0.036-0.084c-0.211-0.085-0.274-0.078-0.611,0.067
							c-0.318,0.137-2.182,0.404-2.31-0.436c-0.039-0.254,0.142-0.407,0.254-0.476C217.442,175.349,218.532,174.975,218.565,174.975
							z M220.201,176.356c-0.004,0.002-0.004,0.006-0.005,0.01c-0.002,0.004-0.003,0.01-0.005,0.014
							c0.003-0.006,0.005-0.012,0.008-0.018C220.2,176.36,220.201,176.359,220.201,176.356z M217.098,201.701L217.098,201.701
							C217.098,201.701,217.098,201.701,217.098,201.701C217.098,201.701,217.098,201.701,217.098,201.701z M192.283,172.436
							l0.19-0.04c0,0,0,0,0.008,0.027c0.008,0.023-0.298,0.422-0.241,0.83c-0.026,0.374-0.026,0.381-0.238,0.636l0,0c0,0,0,0,0.06,0
							c0.007,0.007,0.766,0.885,0.776,1.415c0,0.006-0.154,0.762-0.397,0.964c-0.001,0.001-0.159,0.449-0.306,1.456
							c0.433-0.006,0.543,0.081,0.609,0.134c0.143,0.114,0.973,2.093,0.974,2.107c0.008,0.097-0.161,0.748-0.708,0.921
							c0.236-0.045,0.456-0.147,0.691-0.198c0.635-0.139,1.109,0.461,0.492,1.345c0.524-0.059,0.52-0.001,0.484,0.558
							c0.046,0.025,0.046,0.025,0.557-0.05c0,0,0,0,0,0s0,0,0,0l0,0c0.117-0.107,0.17-0.086,0.242-0.056
							c-0.157,0.156-0.157,0.156-0.172,0.175c0.014,0.018,0.034,0.042,0.048,0.061c0.036-0.028,0.075-0.08,0.091-0.122
							c0.05,0.025,0.117,0.059,0.167,0.084c0.29,0.14,0.355,0.525,0.68,0.626c0.259,0.081,0.39-0.171,0.595-0.229
							c0.061-0.018,0.152-0.014,0.21,0.009c0.036,0.014,0.083,0.033,0.118,0.049c0.284,0.124,0.459,0.403,0.746,0.524
							c0.219,0.092,0.466,0.004,0.685,0.105c-0.001,0.025-0.002,0.058-0.003,0.083c0.292-0.245,0.697-0.077,1.001-0.275
							c0.04,0.121,0.037,0.249,0.061,0.373c0.054-0.006,0.126-0.008,0.18-0.004c-0.043,0.02-0.098,0.047-0.139,0.069
							c0,0.023-0.001,0.055-0.001,0.078c-0.061-0.009-0.144-0.012-0.206-0.007c-0.026,0.041-0.081,0.086-0.129,0.099
							c-0.005,0.024-0.011,0.056-0.015,0.08c-0.024-0.001-0.056-0.003-0.08-0.004c-0.008-0.025-0.019-0.057-0.028-0.082
							c-0.04,0.102-0.157,0.136-0.208,0.23c-0.056,0.008-0.133,0.008-0.189,0.002c-0.014-0.018-0.033-0.043-0.047-0.061
							c0,0,0,0,0.001-0.003c-0.104,0.048-0.185,0.138-0.303,0.158c0.05-0.071,0.136-0.135,0.115-0.117
							c-0.032-0.008-0.074-0.019-0.106-0.027c-0.009,0.021-0.022,0.049-0.031,0.07c-0.299,0.023-0.299,0.023-0.309,0.023
							c0.049-0.032,0.116-0.075,0.165-0.106c-0.355,0.101-0.355,0.101-0.427,0.11c0,0.005,0,0.013,0,0.018
							c-0.256,0.026-0.504-0.051-0.757-0.061c0.022,0.01,0.052,0.023,0.074,0.033c0.208,0.068,0.289,0.076,0.392,0.085
							c-0.118,0.039-0.145,0.044-0.452,0.056l-0.091-0.023c-0.032,0.026-0.091,0.034-0.133,0.037
							c-0.059,0.007-0.059,0.007-0.229,0.041c0.054-0.126,0.085-0.14,0.275-0.176c-0.171,0.01-0.343-0.037-0.513,0.009
							c-0.021-0.012-0.049-0.028-0.07-0.041c-0.081,0.081-0.197,0.114-0.275,0.199c-0.231-0.037-0.231-0.037-0.313-0.077
							c0.023-0.008,0.053-0.019,0.076-0.028c-0.017-0.018-0.039-0.043-0.056-0.061c-0.276,0.023-0.276,0.023-0.355,0.108
							c-0.007-0.023-0.016-0.052-0.023-0.075c-0.049-0.019-0.119-0.036-0.171-0.037c0.141-0.047,0.304-0.006,0.433-0.105
							c-0.026-0.001-0.026-0.001-0.291-0.043c0.015-0.017,0.035-0.04,0.05-0.058c-0.173-0.004-0.612-0.005-0.946,0.085
							c0.139,0.019,0.272,0.072,0.414,0.074c0.028,0.04,0.053,0.104,0.059,0.153c-0.386,0.064-0.435,0.005-0.517-0.092
							c-0.221,0.198-1.67,0.215-1.684,0.215c-0.494-0.01-0.921-0.292-1.405-0.343c-0.489-0.052-0.974,0.051-1.462,0.038
							c-0.135-0.004-0.316-0.018-0.45-0.042c-1.44-0.254-1.825,0.619-2.727,3.181c-0.224,0.588-0.224,0.588-0.654,1.021
							c0.014,0.058,0.018,0.138,0.014,0.197c-0.183-0.256-0.229-0.518-0.288-0.849l-0.011-0.112
							c-0.168-2.252,0.056-4.572,0.722-6.868c0.386-1.33,0.901-2.588,1.528-3.763c0.151-0.27,0.185-0.315,0.26-0.415
							c-0.011,0.027-0.025,0.063-0.036,0.09c0.015-0.023,0.034-0.055,0.048-0.078c-0.022,0.052-0.052,0.122-0.074,0.173
							c0.179-0.341,0.189-0.349,0.309-0.453c-0.001,0.04-0.003,0.093-0.004,0.133c0.21-0.689,0.918-1.513,0.925-1.521
							c0.339-0.385,0.339-0.385,0.514-0.619C190.23,174.227,191.164,173.024,192.283,172.436z M198.911,184.086
							c0.036,0.034,0.036,0.034,0.031,0.19c0.083-0.114,0.165-0.148,0.313-0.132c-0.048-0.034-0.092-0.041-0.177-0.03
							c-0.023-0.041-0.015-0.063,0.032-0.082c-0.037-0.016-0.037-0.016-0.152-0.113c-0.002-0.001-0.004-0.003-0.005-0.004
							c-0.019,0.008-0.026,0.019-0.04,0.056c0,0,0,0.001,0,0.001c0,0,0,0.001,0,0.001c0,0,0,0.001,0,0.001c0,0,0,0-0.001,0.001
							c0,0,0,0.001,0,0.001c0,0,0,0.001,0,0.001c0,0,0,0-0.001,0.001c0,0,0,0,0,0.001c-0.044,0.113-0.168,0.046-0.238-0.005
							c0.012,0.032,0.016,0.049,0.02,0.074C198.742,184.042,198.855,184.033,198.911,184.086z M215.507,202.796
							c0.062-0.03,0.09-0.042,0.107-0.042c0,0.001,0.001,0.002,0.002,0.003c-0.018,0.032-0.17,0.125-0.235,0.164
							c-0.001,0.001-0.003,0.001-0.004,0.002c0.074-0.035,0.084-0.039,0.098-0.038c-0.002,0.008-0.003,0.011-0.037,0.04
							c0.078-0.047,0.17-0.109,0.191-0.127c-0.001,0.001-0.003,0.002-0.005,0.002c0.019-0.013,0.037-0.027,0.056-0.04
							c0.022,0.009,0.036-0.009,0.055-0.015c0,0.001,0,0.002,0,0.002c-0.013,0.01-0.03,0.022-0.044,0.031
							c0.009-0.006,0.021-0.013,0.03-0.02c0.105-0.069,0.17-0.116,0.146-0.121c-0.001,0-0.004,0-0.005,0
							c0.008-0.004,0.016-0.009,0.024-0.014C215.885,202.624,215.662,202.69,215.507,202.796z M218.404,200.422
							c-0.086-0.014-0.173,0.044-0.259-0.003c-0.104,0.106-0.193,0.186-0.308,0.276c0.152,0.128,0.011,0.315-0.12,0.335
							c-0.043,0.007-0.087-0.022-0.13,0.001c-0.134,0.068-0.293,0.212-0.294,0.214c0.019-0.067-0.059-0.041-0.06-0.041
							c-0.014,0.006-0.031,0.019-0.045,0.027c-0.136,0.128-0.111,0.196-0.096,0.208c0.015-0.003,0.038-0.008,0.144-0.121
							c0.031,0.017,0.079,0.018,0.384-0.128c0.021-0.01,0.05-0.023,0.073-0.03c-0.213,0.147-0.365,0.359-0.565,0.52c0,0,0,0,0,0
							c0.358-0.268,0.66-0.603,1.037-0.847c-0.041,0.057-0.274,0.28-0.502,0.472c-0.296,0.248-0.612,0.469-0.91,0.714
							c0.011-0.009,0.025-0.022,0.036-0.031c-0.077,0.064-0.157,0.124-0.23,0.193c0.061-0.026,0.128-0.085,0.182-0.124
							c0.919-0.684,1.32-1.069,1.324-1.073c0.05-0.049,0.067-0.074,0.073-0.084l0.278-0.462
							C218.411,200.433,218.407,200.427,218.404,200.422z M223.31,193.687l0.01-0.025c-0.01,0.024-0.02,0.048-0.03,0.071
							C223.296,193.718,223.303,193.703,223.31,193.687z M220.442,198.206c0.099-0.101,0.625-0.508,0.627-0.508
							c-0.002,0.003-0.251,0.398-0.832,1.109l-0.09,0.108c-0.377,0.445-0.773,0.872-1.186,1.279
							c-0.028,0.028-0.056,0.055-0.084,0.082c0.028-0.028,0.056-0.055,0.084-0.083c-0.329,0.315-0.416,0.382-0.462,0.398
							c0.002-0.005,0.025-0.037,0.238-0.222c-0.011,0.003-0.026,0.007-0.037,0.01c0.098-0.155,0.248-0.273,0.328-0.442
							c0.015-0.031,0.018-0.042-0.004-0.077c-0.027-0.041,0.006-0.09,0.077-0.198c-0.01,0.016-0.021,0.042-0.023,0.061
							c0.02-0.016,0.06-0.052,0.111-0.113c0.373-0.442,0.397-0.44,0.435-0.437C219.689,199.086,220.438,198.21,220.442,198.206z
							 M220.833,197.897c0.001-0.001,0.007-0.008,0.009-0.011c-0.002,0.003-0.005,0.007-0.008,0.01
							C220.834,197.895,220.833,197.896,220.833,197.897L220.833,197.897z M222.725,194.988l0.003-0.006
							c-0.023,0.046-0.048,0.09-0.071,0.136C222.68,195.076,222.699,195.038,222.725,194.988z M206.829,205.446
							c-0.125-0.018-0.176-0.021-0.24-0.016l-0.003-0.001c-0.099,0.016-0.105,0.021-0.118,0.032l-0.012,0.009l0.008,0.003
							l0.019-0.003c0.002,0.001,0.006,0.002,0.008,0.003c0.002-0.001,0.003-0.001,0.004-0.001c0.014,0.066,0.396,0.1,0.731,0.064
							c0.068-0.008,0.106-0.014,0.16-0.027c-0.031,0-0.05,0-0.099-0.003c0.056-0.003,0.076-0.008,0.092-0.013
							c-0.013-0.003-0.013-0.003-0.093,0.01c-0.043,0.007-0.28-0.03-0.382-0.046c0.211-0.036,0.41-0.129,0.626-0.143
							c0.225-0.016,0.238-0.017,0.404-0.047c0.021-0.003,0.05-0.009,0.071-0.013c0.167-0.033,0.17-0.038,0.177-0.049
							c-0.089-0.032-0.138-0.05-0.814,0.07C206.94,205.352,206.856,205.403,206.829,205.446z M216.753,200.926
							c-0.044,0.041-0.044,0.041-0.364,0.356c-0.006,0.007-0.624,0.638-0.627,0.681c0.002,0.001,0.004,0.002,0.006,0.003
							c0.023-0.009,0.039-0.02,0.106-0.067C216.58,201.37,216.749,201.01,216.753,200.926z M214.238,203.413
							c-0.001,0.001-0.002,0.001-0.003,0.002c-0.175,0.087-0.391,0.076-0.54,0.226c-0.341-0.057-0.577,0.197-0.865,0.294
							c-0.375,0.126-0.458,0.127-1.003,0.132c0.254-0.047,0.368-0.173,0.432-0.264c-0.154,0.045-0.577,0.224-0.815,0.327
							c-0.148-0.122-0.874,0.137-1.079,0.292c0.031,0.005,0.074,0.004,0.104-0.004c0,0,0.001-0.001,0.001-0.001
							c0,0,0.001,0,0.001-0.001c-0.287,0.105-0.287,0.105-0.316,0.119c0.008,0,0.019,0,0.027,0l-0.036,0.004
							c-0.193,0.11-0.943,0.18-1.105,0.15c-0.652-0.123-1.435,0.036-1.442,0.038c-0.003,0.01-0.006,0.024-0.009,0.034
							c0.36,0.134,0.752,0.032,1.116,0.144c-0.015,0.031-0.015,0.031-0.098,0.124c0.249,0.169,1.837-0.1,2.469-0.263
							c0.68-0.176,0.68-0.176,1.981-0.818c0.185-0.092,0.398-0.057,0.587-0.129c0.163-0.063,0.33-0.148,0.44-0.205
							c0.232-0.124,0.721-0.401,0.722-0.402c-0.12,0.048-0.72,0.308-1.172,0.539C213.828,203.624,214.042,203.534,214.238,203.413z
							 M214.251,203.405c-0.004,0.002-0.009,0.006-0.013,0.008l0,0C214.242,203.411,214.247,203.408,214.251,203.405z
							 M215.385,202.747c0.142-0.088,0.247-0.161,0.255-0.179c-0.016,0.002-0.027,0.004-0.219,0.108
							c0.004-0.003,0.008-0.006,0.011-0.009c-0.006,0.003-0.704,0.387-0.762,0.447c-0.002,0.003-0.006,0.007-0.008,0.01
							c0.018,0.007,0.112-0.039,0.116-0.042c-0.028,0.011-0.065,0.027-0.094,0.038C214.87,203.043,215.132,202.904,215.385,202.747z
							 M215.82,202.423c0,0.001,0,0.002,0,0.003c0.002,0.001,0.006,0.001,0.008,0.001c0.001-0.001,0.001-0.001,0.002-0.001
							c0.05-0.014,0.206-0.105,0.334-0.194c0.062-0.045,0.075-0.058,0.082-0.071c-0.001-0.001-0.001-0.002-0.002-0.004
							C216.169,202.147,215.826,202.404,215.82,202.423z M222.087,196.13c0,0,0.001-0.001,0.001-0.001
							c0.082-0.143,0.179-0.277,0.261-0.42c0.106-0.194,0.207-0.392,0.307-0.59c-0.069,0.128-0.167,0.302-0.557,0.987
							C222.096,196.113,222.091,196.122,222.087,196.13z M201.092,182.416c-0.5,0.201-0.111,1.101,0.062,1.398
							c0.054,0.092,0.135,0.165,0.187,0.262c0.075,0.141,0.124,0.322,0.209,0.458c0.096,0.155,0.325,0.46,0.526,0.41
							c0.126,0.559-0.331,1.006-0.456,1.517c-0.074,0.301-0.038,0.556,0.179,0.78c0.08,0.082,0.168,0.105,0.232,0.208
							c0.077,0.122,0.061,0.29,0.156,0.408c0.105,0.13,0.265,0.141,0.372,0.323c0.153,0.262,0.481,0.57,0.546,0.881
							c0.176,0.004,0.378-0.017,0.554-0.049c0.224-0.041,0.285-0.225,0.476-0.292c0.231-0.08,0.579,0.045,0.826,0.026
							c0.292-0.022,0.585-0.06,0.877-0.093c0.342-0.038,0.408,0.055,0.616,0.299c0.301,0.353,0.306,0.558,0.003,0.872
							c-0.174,0.18-0.36,0.301-0.373,0.576c-0.016,0.324,0.173,0.3,0.425,0.272c0.258-0.029,0.516-0.01,0.743-0.013
							c0.24-0.003,0.537-0.131,0.738-0.256c0.423-0.264,0.913-0.246,1.33-0.553c0.263-0.194,0.406-0.384,0.613-0.635
							c0.214-0.259,0.522-0.392,0.776-0.603c0.215-0.178,0.491-0.338,0.638-0.571c0.183-0.291,0.383-0.602,0.545-0.913
							c0.159-0.306,0.312-0.549,0.216-0.901c-0.076-0.28-0.244-0.356-0.418-0.559c-0.156-0.182-0.202-0.461-0.311-0.667
							c-0.176-0.332-0.348-0.578-0.393-0.952c-0.056-0.467-0.051-0.974-0.207-1.423c-0.132-0.382-0.414-0.719-0.674-1.019
							c-0.148-0.169-0.242-0.224-0.426-0.346c-0.224-0.148-0.398-0.275-0.633-0.413c-0.167-0.098-0.327-0.355-0.531-0.404
							c-0.222-0.053-0.522,0.091-0.755,0.083c-0.223-0.008-0.399-0.014-0.598-0.109c-0.092-0.044-0.149-0.141-0.256-0.182
							c-0.178-0.068-0.384-0.042-0.583-0.079c-0.303-0.057-0.536-0.152-0.838-0.148c-0.458,0.006-0.813,0.078-1.042,0.489
							c-0.046,0.082-0.048,0.166-0.096,0.248c-0.06,0.103-0.182,0.175-0.211,0.29c-0.076,0.302,0.122,0.71,0.038,1.014
							c-0.052,0.188-0.275,0.393-0.347,0.557c-0.08,0.183-0.107,0.398-0.218,0.581c-0.083,0.137-0.22,0.385-0.344,0.48
							c-0.459,0.353-1.111,0.045-1.46-0.291c-0.082-0.079-0.165-0.212-0.251-0.276c-0.076-0.056-0.185-0.057-0.251-0.111
							C201.122,182.84,201.178,182.601,201.092,182.416z"/>
						<path style="opacity:0.05;fill:#162684;" d="M214.135,168.993c2.313,2.83,3.857,6.341,4.273,10.246
							c1.139,10.693-6.607,20.285-17.301,21.424c-3.905,0.416-7.663-0.354-10.916-2.019c4.02,4.919,10.363,7.777,17.152,7.055
							c10.694-1.139,18.439-10.731,17.301-21.424C223.921,177.486,219.791,171.887,214.135,168.993z"/>
						<path style="opacity:0.07;fill:#FFFFFF;" d="M185.993,183.64c0.426-0.003,0.855-0.027,1.287-0.073
							c7.11-0.757,12.26-7.135,11.503-14.245c-0.046-0.432-0.114-0.857-0.2-1.273C191.847,170.511,186.981,176.537,185.993,183.64z"
							/>
					</g>
				</g>
			</g>
			<path style="fill:#C5C9F8;" d="M248.847,202.825h103.615c1.635,0,2.96-1.326,2.96-2.96l0,0c0-1.635-1.325-2.96-2.96-2.96H248.847
				c-1.635,0-2.96,1.325-2.96,2.96l0,0C245.887,201.499,247.212,202.825,248.847,202.825z"/>
			<path style="fill:#C5C9F8;" d="M312.14,186.025h45.162c1.539,0,2.786-1.248,2.786-2.786v-0.348c0-1.539-1.248-2.786-2.786-2.786
				H312.14c-1.539,0-2.786,1.247-2.786,2.786v0.348C309.354,184.777,310.601,186.025,312.14,186.025z"/>
			
				<line style="fill:none;stroke:#C5C9F8;stroke-width:5.6;stroke-linecap:round;stroke-miterlimit:10;" x1="246.221" y1="216.673" x2="305.955" y2="216.673"/>
			
				<line style="fill:none;stroke:#C5C9F8;stroke-width:5.6;stroke-linecap:round;stroke-miterlimit:10;" x1="317.155" y1="216.673" x2="349.822" y2="216.673"/>
			
				<line style="fill:none;stroke:#C5C9F8;stroke-width:5.6;stroke-linecap:round;stroke-miterlimit:10;" x1="170.621" y1="255.873" x2="234.088" y2="255.873"/>
			
				<line style="fill:none;stroke:#C5C9F8;stroke-width:5.6;stroke-linecap:round;stroke-miterlimit:10;" x1="246.221" y1="255.873" x2="302.222" y2="255.873"/>
			
				<line style="fill:none;stroke:#C5C9F8;stroke-width:5.6;stroke-linecap:round;stroke-miterlimit:10;" x1="314.355" y1="255.873" x2="342.355" y2="255.873"/>
			
				<line style="fill:none;stroke:#C5C9F8;stroke-width:5.6;stroke-linecap:round;stroke-miterlimit:10;" x1="192.088" y1="273.606" x2="342.355" y2="273.606"/>
			
				<line style="fill:none;stroke:#C5C9F8;stroke-width:5.6;stroke-linecap:round;stroke-miterlimit:10;" x1="165.021" y1="273.606" x2="180.888" y2="273.606"/>
			
				<line style="fill:none;stroke:#C5C9F8;stroke-width:5.6;stroke-linecap:round;stroke-miterlimit:10;" x1="311.555" y1="290.406" x2="161.288" y2="290.406"/>
			
				<line style="fill:none;stroke:#C5C9F8;stroke-width:5.6;stroke-linecap:round;stroke-miterlimit:10;" x1="338.622" y1="290.406" x2="322.755" y2="290.406"/>
			
				<line style="fill:none;stroke:#C5C9F8;stroke-width:5.6;stroke-linecap:round;stroke-miterlimit:10;" x1="328.355" y1="308.14" x2="264.888" y2="308.14"/>
			
				<line style="fill:none;stroke:#C5C9F8;stroke-width:5.6;stroke-linecap:round;stroke-miterlimit:10;" x1="252.755" y1="308.14" x2="196.754" y2="308.14"/>
			
				<line style="fill:none;stroke:#C5C9F8;stroke-width:5.6;stroke-linecap:round;stroke-miterlimit:10;" x1="184.621" y1="308.14" x2="156.621" y2="308.14"/>
			
				<line style="fill:none;stroke:#C5C9F8;stroke-width:5.6;stroke-linecap:round;stroke-miterlimit:10;" x1="299.422" y1="326.807" x2="149.154" y2="326.807"/>
			
				<line style="fill:none;stroke:#C5C9F8;stroke-width:5.6;stroke-linecap:round;stroke-miterlimit:10;" x1="326.488" y1="326.807" x2="310.622" y2="326.807"/>
			
				<line style="fill:none;stroke:#C5C9F8;stroke-width:5.6;stroke-linecap:round;stroke-miterlimit:10;" x1="317.155" y1="345.473" x2="253.688" y2="345.473"/>
			
				<line style="fill:none;stroke:#C5C9F8;stroke-width:5.6;stroke-linecap:round;stroke-miterlimit:10;" x1="241.555" y1="345.473" x2="185.554" y2="345.473"/>
			
				<line style="fill:none;stroke:#C5C9F8;stroke-width:5.6;stroke-linecap:round;stroke-miterlimit:10;" x1="173.421" y1="345.473" x2="145.421" y2="345.473"/>
		</g>
	</g>
</g>
</svg>
