<?xml version="1.0" encoding="UTF-8"?>
<svg id="Layer_3" data-name="Layer 3" xmlns="http://www.w3.org/2000/svg" viewBox="0 0 1350 747.29">
  <defs>
    <style>
      .cls-1 {
        fill: #fff;
      }

      .cls-2 {
        fill: #213559;
      }
    </style>
  </defs>
  <g>
    <path class="cls-1" d="M532.33,435.32c-15.95-14.9-23.92-35.54-23.92-61.89,0-10.05.86-19.24,2.6-27.56l50.96-263.15h44.21l-18.2,92.57-5.72,24.96c17.68-13.86,40.91-20.8,69.69-20.8h16.64c26.69,0,47.84,7.54,63.45,22.63,15.6,15.08,23.4,35.45,23.4,61.11,0,9.71-.87,18.55-2.6,26.52l-11.44,59.29c-6.94,35.36-20.89,62.32-41.86,80.87-20.98,18.55-48.63,27.82-82.95,27.82h-17.16c-28.78,0-51.14-7.45-67.09-22.36ZM670.93,397.88c13.69-11.78,22.44-28.25,26.26-49.41l11.44-60.33c1.04-6.24,1.56-12.3,1.56-18.2,0-15.6-4.51-27.64-13.52-36.14-9.02-8.49-21.84-12.74-38.49-12.74h-15.08c-20.11,0-36.92,5.9-50.45,17.68-13.52,11.79-22.36,28.26-26.52,49.41l-11.96,60.33c-1.39,5.9-2.08,12.14-2.08,18.72,0,15.26,4.5,27.14,13.52,35.63,9.01,8.5,22.01,12.74,39.01,12.74h15.6c20.1,0,37.01-5.89,50.71-17.68Z"/>
    <path class="cls-1" d="M804.32,435.32c-15.95-14.9-23.92-35.54-23.92-61.89,0-10.05.86-19.24,2.6-27.56l10.92-57.73c6.93-35.37,20.97-62.32,42.12-80.87,21.14-18.54,48.88-27.82,83.21-27.82h16.12c28.78,0,51.23,7.54,67.35,22.63,16.12,15.08,24.18,35.62,24.18,61.62,0,10.06-.87,19.24-2.6,27.57l-11.44,57.73c-6.94,35.36-20.89,62.32-41.86,80.87-20.98,18.55-48.63,27.82-82.95,27.82h-16.12c-29.12,0-51.67-7.45-67.61-22.36ZM942.14,397.88c13.52-11.78,22.36-28.25,26.52-49.41l11.96-60.33c1.38-8.32,2.08-14.38,2.08-18.2,0-15.6-4.6-27.64-13.78-36.14-9.19-8.49-22.1-12.74-38.75-12.74h-15.08c-19.76,0-36.41,5.9-49.92,17.68-13.52,11.79-22.36,28.26-26.52,49.41l-11.96,60.33c-1.39,5.9-2.08,12.14-2.08,18.72,0,15.26,4.5,27.14,13.52,35.63,9.01,8.5,22.01,12.74,39.01,12.74h15.08c19.76,0,36.41-5.89,49.93-17.68Z"/>
    <path class="cls-1" d="M1292.65,186.21l-113.37,130.53,68.65,134.18h-48.89l-50.45-104.01-89.45,104.01h-57.2l121.69-138.34-62.93-126.37h49.41l45.24,97.77,80.61-97.77h56.68Z"/>
  </g>
  <path class="cls-2" d="M401.89,168.84h-227.15,0c10-48,52.31-82.41,101.35-82.41h230.08,0c-9.99,47.93-53.62,82.41-104.28,82.41Z"/>
  <path class="cls-2" d="M358.33,308.68h-209.16,0c9.18-47.83,51.02-82.41,99.72-82.41h205.46,0c-9.2,47.93-49.37,82.41-96.02,82.41Z"/>
  <path class="cls-2" d="M312.23,441.74H110.4h0c8.83-47.69,51.63-82.41,101.6-82.41h192.89,0c-8.87,47.93-47.64,82.41-92.66,82.41Z"/>
  <path class="cls-2" d="M61.74,441.74c8.91-50.25,21.77-91.73,33.53-123.18,1.78-4.76,3.53-9.3,5.25-13.59,40.48-101.68,76.03-120.35,87.24-125.52,17.73-8.18,34.45-10.21,45.96-10.61,9.47-27.47,79.87-54.94,89.34-82.41-19.16,0-51.62.44-81.59,1.88-36.94,1.78-55.34,3.92-66.71,7.93-54.56,19.23-74.08,96.3-92.2,167.84-10.67,42.12-21.68,102.71-20.8,177.66Z"/>
  <path class="cls-2" d="M72.07,441.74c.35-16.03,1.75-34.05,4.95-53.57,5.42-33.08,14.47-61.08,23.49-83.2-4.74,1.77-9.48,3.54-14.22,5.31l-24.55,131.46h10.34Z"/>
  <g>
    <path class="cls-1" d="M96.66,532.91c5,0,9.57,1.16,13.71,3.49,4.14,2.33,7.39,5.52,9.77,9.57,2.37,4.05,3.56,8.54,3.56,13.45v9.57c0,5.09-1.19,9.73-3.56,13.91-2.37,4.18-5.61,7.48-9.7,9.9-4.1,2.42-8.65,3.62-13.65,3.62l-28.46.13v28.33h-14.75v-91.98h43.08ZM68.33,582.33l26.65-.13c4.48,0,7.93-1.25,10.35-3.75,2.41-2.5,3.62-6.04,3.62-10.61v-6.47c0-4.57-1.21-8.1-3.62-10.61-2.42-2.5-5.87-3.75-10.35-3.75h-26.65v35.32Z"/>
    <path class="cls-1" d="M180.74,532.91c4.92,0,9.4,1.14,13.45,3.43,4.05,2.29,7.24,5.41,9.57,9.38,2.33,3.97,3.49,8.41,3.49,13.32v7.37c0,6.38-1.6,11.71-4.79,15.98-3.19,4.27-7.89,7.35-14.1,9.25l5.82,7.63,17.59,25.61h-17.47l-21.6-31.31h-19.79v31.31h-14.75v-91.98h42.56ZM188.89,576.06c2.33-2.46,3.49-5.93,3.49-10.41v-4.66c0-4.48-1.16-7.93-3.49-10.35-2.33-2.41-5.69-3.62-10.09-3.62h-25.87v32.73h26c4.31,0,7.63-1.23,9.96-3.69Z"/>
    <path class="cls-1" d="M238.18,622.31c-5.17-2.93-9.23-6.99-12.16-12.16-2.93-5.17-4.4-10.95-4.4-17.34v-27.81c0-6.38,1.47-12.16,4.4-17.33,2.93-5.17,6.99-9.23,12.16-12.16s10.95-4.4,17.33-4.4h11.51c6.47,0,12.29,1.47,17.46,4.4s9.23,6.99,12.16,12.16,4.4,10.95,4.4,17.33v27.81c0,6.38-1.49,12.16-4.46,17.34s-7.05,9.23-12.23,12.16-10.95,4.4-17.33,4.4h-11.51c-6.38,0-12.16-1.47-17.33-4.4ZM280.61,606.78c3.62-3.62,5.43-8.49,5.43-14.62v-26.65c0-6.12-1.81-10.97-5.43-14.55-3.62-3.58-8.49-5.37-14.62-5.37h-9.44c-6.12,0-10.98,1.79-14.55,5.37-3.58,3.58-5.37,8.43-5.37,14.55v26.65c0,6.12,1.79,11,5.37,14.62,3.58,3.62,8.43,5.43,14.55,5.43h9.44c6.12,0,11-1.81,14.62-5.43Z"/>
    <path class="cls-1" d="M350.73,532.91h14.75v77.62h47.22v14.36h-61.97v-91.98Z"/>
    <path class="cls-1" d="M437.92,622.31c-5.17-2.93-9.23-6.99-12.16-12.16s-4.4-10.95-4.4-17.34v-27.81c0-6.38,1.47-12.16,4.4-17.33s6.99-9.23,12.16-12.16,10.95-4.4,17.33-4.4h11.51c6.47,0,12.29,1.47,17.46,4.4s9.23,6.99,12.16,12.16,4.4,10.95,4.4,17.33v27.81c0,6.38-1.49,12.16-4.46,17.34s-7.05,9.23-12.23,12.16-10.95,4.4-17.33,4.4h-11.51c-6.38,0-12.16-1.47-17.33-4.4ZM480.35,606.78c3.62-3.62,5.43-8.49,5.43-14.62v-26.65c0-6.12-1.81-10.97-5.43-14.55-3.62-3.58-8.49-5.37-14.62-5.37h-9.44c-6.12,0-10.98,1.79-14.55,5.37-3.58,3.58-5.37,8.43-5.37,14.55v26.65c0,6.12,1.79,11,5.37,14.62,3.58,3.62,8.43,5.43,14.55,5.43h9.44c6.12,0,11-1.81,14.62-5.43Z"/>
    <path class="cls-1" d="M532.04,622.31c-5.13-2.93-9.14-6.99-12.03-12.16-2.89-5.17-4.33-10.95-4.33-17.34v-27.81c0-6.38,1.44-12.16,4.33-17.33,2.89-5.17,6.9-9.23,12.03-12.16,5.13-2.93,10.89-4.4,17.27-4.4h9.83c6.29,0,11.94,1.38,16.95,4.14,5,2.76,8.97,6.58,11.9,11.45,2.93,4.87,4.53,10.37,4.79,16.5l-14.88.13c-.52-5.52-2.52-9.85-6.02-13-3.49-3.15-8.08-4.72-13.78-4.72h-7.76c-6.12,0-10.98,1.79-14.55,5.37-3.58,3.58-5.37,8.47-5.37,14.68v26.52c0,6.12,1.79,11,5.37,14.62s8.43,5.43,14.55,5.43h7.76c6.12,0,10.97-1.79,14.55-5.37,3.58-3.58,5.37-8.39,5.37-14.43v-2.59h-23.29v-13.71h38.16v16.69c0,6.38-1.47,12.16-4.4,17.34-2.93,5.17-6.97,9.23-12.1,12.16-5.13,2.93-10.89,4.4-17.27,4.4h-9.83c-6.38,0-12.14-1.47-17.27-4.4Z"/>
    <path class="cls-1" d="M609.46,532.91h14.75v91.98h-14.75v-91.98Z"/>
    <path class="cls-1" d="M649.3,620.17c-5.61-4.35-8.76-10.67-9.44-18.95-.09-.69-.13-1.9-.13-3.62h15.01c0,5.26,1.64,9.06,4.92,11.38,3.28,2.33,8.02,3.49,14.23,3.49h6.21c5.61,0,9.88-1.1,12.81-3.3s4.44-5.11,4.53-8.73c0-4.05-1.23-7.01-3.69-8.86-2.46-1.85-6.23-3.34-11.32-4.46l-15.27-3.49c-5.95-1.29-10.67-2.67-14.17-4.14-3.49-1.47-6.45-3.92-8.86-7.37-2.42-3.45-3.62-8.28-3.62-14.49,0-8.28,2.8-14.77,8.41-19.47,5.6-4.7,13.8-7.05,24.58-7.05h4.4c10.01,0,17.74,2.16,23.22,6.47,5.48,4.31,8.6,10.57,9.38,18.76.08.86.13,2.16.13,3.88h-15.01c0-5.35-1.53-9.21-4.59-11.58-3.06-2.37-7.7-3.56-13.91-3.56h-4.27c-5.78,0-10.11,1.08-13,3.23-2.89,2.16-4.33,5.13-4.33,8.93s1.18,6.47,3.56,8.28c2.37,1.81,5.84,3.23,10.42,4.27l15.26,3.62c6.04,1.38,10.91,2.87,14.62,4.46,3.71,1.6,6.81,4.14,9.31,7.63,2.5,3.49,3.75,8.34,3.75,14.55,0,8.11-2.89,14.58-8.67,19.41-5.78,4.83-13.97,7.24-24.58,7.24h-6.34c-10.09,0-17.94-2.18-23.54-6.53Z"/>
    <path class="cls-1" d="M748.53,547.14h-29.63v-14.23h74.13v14.23h-29.75v77.75h-14.75v-77.75Z"/>
    <path class="cls-1" d="M805.58,532.91h14.75v91.98h-14.75v-91.98Z"/>
    <path class="cls-1" d="M854.22,622.31c-5.17-2.93-9.23-6.99-12.16-12.16s-4.4-10.95-4.4-17.34v-27.81c0-6.38,1.47-12.16,4.4-17.33s6.99-9.23,12.16-12.16,10.95-4.4,17.33-4.4h8.67c6.81,0,12.79,1.53,17.92,4.59,5.13,3.06,9.08,7.18,11.84,12.35,2.76,5.17,4.14,10.83,4.14,16.95h-14.75c-.09-5.95-1.92-10.67-5.5-14.17s-8.34-5.24-14.29-5.24h-7.12c-6.12,0-10.95,1.79-14.49,5.37-3.54,3.58-5.3,8.43-5.3,14.55v26.52c0,6.12,1.79,11,5.37,14.62,3.58,3.62,8.39,5.43,14.42,5.43h7.12c6.04,0,10.84-1.77,14.42-5.3,3.58-3.54,5.37-8.32,5.37-14.36h14.88c0,6.38-1.4,12.18-4.2,17.4-2.8,5.22-6.79,9.34-11.97,12.35-5.17,3.02-11.13,4.53-17.85,4.53h-8.67c-6.38,0-12.16-1.47-17.33-4.4Z"/>
    <path class="cls-1" d="M935.2,620.17c-5.61-4.35-8.76-10.67-9.44-18.95-.09-.69-.13-1.9-.13-3.62h15.01c0,5.26,1.64,9.06,4.92,11.38,3.28,2.33,8.02,3.49,14.23,3.49h6.21c5.61,0,9.88-1.1,12.81-3.3s4.44-5.11,4.53-8.73c0-4.05-1.23-7.01-3.69-8.86-2.46-1.85-6.23-3.34-11.32-4.46l-15.27-3.49c-5.95-1.29-10.67-2.67-14.17-4.14-3.49-1.47-6.45-3.92-8.86-7.37-2.42-3.45-3.62-8.28-3.62-14.49,0-8.28,2.8-14.77,8.41-19.47,5.6-4.7,13.8-7.05,24.58-7.05h4.4c10.01,0,17.74,2.16,23.22,6.47,5.48,4.31,8.6,10.57,9.38,18.76.08.86.13,2.16.13,3.88h-15.01c0-5.35-1.53-9.21-4.59-11.58-3.06-2.37-7.7-3.56-13.91-3.56h-4.27c-5.78,0-10.11,1.08-13,3.23-2.89,2.16-4.33,5.13-4.33,8.93s1.18,6.47,3.56,8.28c2.37,1.81,5.84,3.23,10.42,4.27l15.26,3.62c6.04,1.38,10.91,2.87,14.62,4.46,3.71,1.6,6.81,4.14,9.31,7.63,2.5,3.49,3.75,8.34,3.75,14.55,0,8.11-2.89,14.58-8.67,19.41-5.78,4.83-13.97,7.24-24.58,7.24h-6.34c-10.09,0-17.94-2.18-23.54-6.53Z"/>
    <path class="cls-1" d="M1045.29,532.91h14.75v77.62h47.22v14.36h-61.97v-91.98Z"/>
    <path class="cls-1" d="M1121.23,532.91h14.75v77.62h47.22v14.36h-61.97v-91.98Z"/>
    <path class="cls-1" d="M1208.42,622.31c-5.17-2.93-9.23-6.99-12.16-12.16s-4.4-10.95-4.4-17.34v-27.81c0-6.38,1.47-12.16,4.4-17.33s6.99-9.23,12.16-12.16,10.95-4.4,17.33-4.4h8.67c6.81,0,12.79,1.53,17.92,4.59,5.13,3.06,9.08,7.18,11.84,12.35,2.76,5.17,4.14,10.83,4.14,16.95h-14.75c-.09-5.95-1.92-10.67-5.5-14.17s-8.34-5.24-14.29-5.24h-7.12c-6.12,0-10.95,1.79-14.49,5.37-3.54,3.58-5.3,8.43-5.3,14.55v26.52c0,6.12,1.79,11,5.37,14.62,3.58,3.62,8.39,5.43,14.42,5.43h7.12c6.04,0,10.84-1.77,14.42-5.3,3.58-3.54,5.37-8.32,5.37-14.36h14.88c0,6.38-1.4,12.18-4.2,17.4-2.8,5.22-6.79,9.34-11.97,12.35-5.17,3.02-11.13,4.53-17.85,4.53h-8.67c-6.38,0-12.16-1.47-17.33-4.4Z"/>
  </g>
</svg>