<?xml version="1.0" encoding="UTF-8"?>
<svg id="Layer_3" data-name="Layer 3" xmlns="http://www.w3.org/2000/svg" viewBox="0 0 1350 747.29">
  <defs>
    <style>
      .cls-1 {
        fill: #fff;
      }
    </style>
  </defs>
  <g>
    <path class="cls-1" d="M534.96,448.91c-15.77-14.74-23.65-35.14-23.65-61.19,0-9.94.85-19.03,2.57-27.25l50.39-260.2h43.71l-18,91.53-5.66,24.68c17.49-13.71,40.45-20.57,68.91-20.57h16.45c26.39,0,47.31,7.46,62.73,22.37,15.43,14.91,23.14,35.05,23.14,60.42,0,9.6-.86,18.34-2.57,26.23l-11.31,58.62c-6.86,34.97-20.66,61.62-41.39,79.96-20.75,18.35-48.08,27.51-82.02,27.51h-16.97c-28.46,0-50.57-7.37-66.33-22.11ZM672,411.88c13.54-11.65,22.19-27.94,25.97-48.85l11.31-59.65c1.03-6.17,1.54-12.16,1.54-18,0-15.43-4.46-27.33-13.37-35.74-8.92-8.4-21.6-12.6-38.06-12.6h-14.91c-19.89,0-36.51,5.83-49.88,17.48-13.37,11.66-22.11,27.94-26.23,48.85l-11.83,59.65c-1.38,5.83-2.06,12-2.06,18.51,0,15.09,4.45,26.83,13.37,35.23,8.91,8.4,21.77,12.6,38.57,12.6h15.43c19.88,0,36.59-5.82,50.14-17.48Z"/>
    <path class="cls-1" d="M803.89,448.91c-15.77-14.74-23.65-35.14-23.65-61.19,0-9.94.85-19.03,2.57-27.25l10.8-57.08c6.85-34.97,20.74-61.62,41.65-79.96,20.91-18.33,48.34-27.51,82.28-27.51h15.94c28.45,0,50.65,7.46,66.6,22.37,15.94,14.91,23.91,35.22,23.91,60.93,0,9.95-.86,19.03-2.57,27.26l-11.31,57.08c-6.86,34.97-20.66,61.62-41.39,79.96-20.75,18.35-48.08,27.51-82.02,27.51h-15.94c-28.8,0-51.09-7.37-66.85-22.11ZM940.16,411.88c13.37-11.65,22.11-27.94,26.23-48.85l11.83-59.65c1.36-8.23,2.06-14.22,2.06-18,0-15.43-4.55-27.33-13.62-35.74-9.09-8.4-21.86-12.6-38.31-12.6h-14.91c-19.54,0-36,5.83-49.36,17.48-13.37,11.66-22.11,27.94-26.23,48.85l-11.83,59.65c-1.38,5.83-2.06,12-2.06,18.51,0,15.09,4.45,26.83,13.37,35.23,8.91,8.4,21.77,12.6,38.57,12.6h14.91c19.54,0,36-5.82,49.37-17.48Z"/>
    <path class="cls-1" d="M1286.75,202.6l-112.1,129.07,67.88,132.67h-48.34l-49.88-102.85-88.45,102.85h-56.56l120.33-136.78-62.22-124.96h48.85l44.74,96.67,79.71-96.67h56.05Z"/>
  </g>
  <path class="cls-1" d="M405.97,185.41h-224.6,0c9.89-47.47,51.72-81.48,100.21-81.48h227.49,0c-9.87,47.39-53.01,81.48-103.1,81.48Z"/>
  <path class="cls-1" d="M362.9,323.69h-206.82,0c9.07-47.29,50.45-81.48,98.6-81.48h203.16,0c-9.09,47.39-48.82,81.48-94.94,81.48Z"/>
  <path class="cls-1" d="M317.33,455.26H117.76h0c8.73-47.16,51.05-81.48,100.46-81.48h190.73,0c-8.77,47.39-47.11,81.48-91.62,81.48Z"/>
  <path class="cls-1" d="M69.64,455.26c8.81-49.68,21.53-90.7,33.15-121.79,1.76-4.71,3.49-9.19,5.19-13.44,40.03-100.54,75.18-119,86.26-124.11,17.53-8.09,34.07-10.1,45.44-10.49,9.36-27.16,78.97-54.32,88.33-81.48-18.95,0-51.04.43-80.68,1.86-36.53,1.76-54.72,3.88-65.96,7.84-53.94,19.02-73.25,95.22-91.16,165.96-10.55,41.64-21.44,101.55-20.57,175.66Z"/>
  <path class="cls-1" d="M79.86,455.26c.35-15.85,1.73-33.67,4.89-52.97,5.36-32.71,14.3-60.39,23.23-82.26-4.69,1.75-9.37,3.5-14.06,5.25l-24.28,129.99h10.22Z"/>
  <g>
    <path class="cls-1" d="M104.17,545.41c4.95,0,9.46,1.15,13.56,3.45,4.09,2.3,7.31,5.46,9.66,9.47,2.34,4.01,3.52,8.44,3.52,13.3v9.46c0,5.03-1.17,9.62-3.52,13.75-2.35,4.14-5.54,7.4-9.59,9.78-4.05,2.39-8.55,3.58-13.5,3.58l-28.14.13v28.01h-14.58v-90.95h42.6ZM76.16,594.27l26.35-.13c4.43,0,7.85-1.23,10.23-3.71,2.39-2.47,3.58-5.97,3.58-10.49v-6.4c0-4.52-1.19-8.01-3.58-10.49-2.39-2.47-5.8-3.71-10.23-3.71h-26.35v34.92Z"/>
    <path class="cls-1" d="M187.32,545.41c4.86,0,9.29,1.13,13.3,3.39,4.01,2.26,7.16,5.35,9.46,9.27,2.3,3.92,3.45,8.32,3.45,13.18v7.29c0,6.31-1.58,11.58-4.73,15.8-3.16,4.22-7.8,7.27-13.94,9.15l5.76,7.55,17.39,25.33h-17.27l-21.36-30.95h-19.57v30.95h-14.58v-90.95h42.08ZM195.38,588.06c2.3-2.43,3.45-5.86,3.45-10.3v-4.6c0-4.43-1.15-7.84-3.45-10.23-2.3-2.39-5.63-3.58-9.98-3.58h-25.58v32.36h25.71c4.26,0,7.54-1.22,9.85-3.65Z"/>
    <path class="cls-1" d="M244.11,633.79c-5.12-2.9-9.12-6.91-12.02-12.02-2.9-5.12-4.35-10.83-4.35-17.14v-27.5c0-6.31,1.45-12.02,4.35-17.14s6.91-9.12,12.02-12.02c5.12-2.9,10.83-4.35,17.14-4.35h11.38c6.4,0,12.15,1.45,17.27,4.35,5.12,2.9,9.12,6.91,12.02,12.02,2.9,5.12,4.35,10.83,4.35,17.14v27.5c0,6.31-1.47,12.02-4.41,17.14-2.94,5.12-6.97,9.13-12.09,12.02-5.12,2.9-10.83,4.35-17.14,4.35h-11.38c-6.31,0-12.02-1.45-17.14-4.35ZM286.06,618.44c3.58-3.58,5.37-8.4,5.37-14.46v-26.35c0-6.05-1.79-10.85-5.37-14.39-3.58-3.54-8.4-5.31-14.45-5.31h-9.34c-6.06,0-10.85,1.77-14.39,5.31-3.54,3.54-5.31,8.34-5.31,14.39v26.35c0,6.06,1.77,10.87,5.31,14.46,3.54,3.58,8.33,5.37,14.39,5.37h9.34c6.05,0,10.87-1.79,14.45-5.37Z"/>
    <path class="cls-1" d="M355.4,545.41h14.58v76.75h46.69v14.2h-61.27v-90.95Z"/>
    <path class="cls-1" d="M441.61,633.79c-5.12-2.9-9.12-6.91-12.02-12.02-2.9-5.12-4.35-10.83-4.35-17.14v-27.5c0-6.31,1.45-12.02,4.35-17.14s6.91-9.12,12.02-12.02c5.12-2.9,10.83-4.35,17.14-4.35h11.38c6.4,0,12.15,1.45,17.27,4.35,5.12,2.9,9.12,6.91,12.02,12.02,2.9,5.12,4.35,10.83,4.35,17.14v27.5c0,6.31-1.47,12.02-4.41,17.14-2.94,5.12-6.97,9.13-12.09,12.02-5.12,2.9-10.83,4.35-17.14,4.35h-11.38c-6.31,0-12.02-1.45-17.14-4.35ZM483.56,618.44c3.58-3.58,5.37-8.4,5.37-14.46v-26.35c0-6.05-1.79-10.85-5.37-14.39-3.58-3.54-8.4-5.31-14.45-5.31h-9.34c-6.06,0-10.85,1.77-14.39,5.31-3.54,3.54-5.31,8.34-5.31,14.39v26.35c0,6.06,1.77,10.87,5.31,14.46,3.54,3.58,8.33,5.37,14.39,5.37h9.34c6.05,0,10.87-1.79,14.45-5.37Z"/>
    <path class="cls-1" d="M534.66,633.79c-5.07-2.9-9.04-6.91-11.9-12.02-2.86-5.12-4.29-10.83-4.29-17.14v-27.5c0-6.31,1.43-12.02,4.29-17.14,2.85-5.12,6.82-9.12,11.9-12.02,5.08-2.9,10.77-4.35,17.08-4.35h9.72c6.22,0,11.81,1.37,16.76,4.09,4.94,2.73,8.87,6.5,11.77,11.32,2.9,4.82,4.48,10.26,4.74,16.31l-14.71.13c-.51-5.46-2.5-9.74-5.95-12.86-3.45-3.11-7.99-4.67-13.62-4.67h-7.67c-6.06,0-10.85,1.77-14.39,5.31-3.54,3.54-5.31,8.38-5.31,14.52v26.22c0,6.06,1.77,10.87,5.31,14.46s8.33,5.37,14.39,5.37h7.67c6.06,0,10.85-1.77,14.39-5.31,3.54-3.54,5.31-8.29,5.31-14.26v-2.56h-23.02v-13.56h37.73v16.5c0,6.31-1.45,12.02-4.35,17.14-2.9,5.12-6.89,9.13-11.96,12.02-5.07,2.9-10.77,4.35-17.07,4.35h-9.72c-6.31,0-12-1.45-17.08-4.35Z"/>
    <path class="cls-1" d="M611.22,545.41h14.58v90.95h-14.58v-90.95Z"/>
    <path class="cls-1" d="M650.62,631.68c-5.54-4.3-8.66-10.55-9.34-18.74-.09-.68-.13-1.87-.13-3.58h14.84c0,5.2,1.62,8.95,4.86,11.26,3.24,2.3,7.93,3.45,14.07,3.45h6.14c5.54,0,9.77-1.09,12.67-3.26,2.9-2.18,4.39-5.05,4.48-8.63,0-4.01-1.21-6.93-3.64-8.76s-6.16-3.3-11.19-4.41l-15.1-3.45c-5.88-1.28-10.55-2.64-14.01-4.09-3.45-1.45-6.38-3.88-8.76-7.29-2.39-3.41-3.58-8.19-3.58-14.33,0-8.19,2.77-14.6,8.31-19.25s13.64-6.97,24.3-6.97h4.35c9.89,0,17.54,2.13,22.96,6.4,5.42,4.26,8.51,10.45,9.27,18.55.08.85.13,2.13.13,3.84h-14.84c0-5.29-1.51-9.1-4.54-11.45-3.03-2.35-7.61-3.52-13.75-3.52h-4.22c-5.71,0-10,1.07-12.85,3.2-2.86,2.13-4.29,5.08-4.29,8.83s1.17,6.4,3.52,8.19c2.34,1.79,5.77,3.2,10.3,4.22l15.09,3.58c5.97,1.36,10.79,2.84,14.46,4.41,3.66,1.58,6.74,4.09,9.21,7.55s3.71,8.25,3.71,14.39c0,8.02-2.86,14.41-8.57,19.19-5.71,4.78-13.81,7.16-24.3,7.16h-6.27c-9.98,0-17.74-2.15-23.28-6.46Z"/>
    <path class="cls-1" d="M748.73,559.48h-29.29v-14.07h73.3v14.07h-29.42v76.88h-14.58v-76.88Z"/>
    <path class="cls-1" d="M805.14,545.41h14.58v90.95h-14.58v-90.95Z"/>
    <path class="cls-1" d="M853.23,633.79c-5.12-2.9-9.13-6.91-12.02-12.02-2.9-5.12-4.35-10.83-4.35-17.14v-27.5c0-6.31,1.45-12.02,4.35-17.14,2.9-5.12,6.91-9.12,12.02-12.02,5.11-2.9,10.83-4.35,17.14-4.35h8.57c6.74,0,12.64,1.51,17.71,4.54,5.08,3.03,8.98,7.1,11.7,12.22,2.73,5.12,4.09,10.7,4.09,16.76h-14.58c-.09-5.88-1.9-10.55-5.44-14.01s-8.25-5.18-14.14-5.18h-7.03c-6.06,0-10.83,1.77-14.33,5.31-3.5,3.54-5.25,8.34-5.25,14.39v26.22c0,6.06,1.77,10.87,5.31,14.46,3.54,3.58,8.29,5.37,14.26,5.37h7.03c5.97,0,10.72-1.75,14.26-5.24,3.54-3.5,5.31-8.23,5.31-14.2h14.71c0,6.31-1.39,12.05-4.16,17.21-2.77,5.16-6.72,9.23-11.83,12.22-5.12,2.98-11,4.48-17.65,4.48h-8.57c-6.31,0-12.02-1.45-17.14-4.35Z"/>
    <path class="cls-1" d="M933.31,631.68c-5.54-4.3-8.66-10.55-9.34-18.74-.08-.68-.13-1.87-.13-3.58h14.84c0,5.2,1.62,8.95,4.86,11.26,3.24,2.3,7.93,3.45,14.07,3.45h6.14c5.54,0,9.76-1.09,12.66-3.26,2.9-2.18,4.39-5.05,4.48-8.63,0-4.01-1.21-6.93-3.64-8.76s-6.16-3.3-11.19-4.41l-15.09-3.45c-5.88-1.28-10.55-2.64-14.01-4.09-3.45-1.45-6.38-3.88-8.76-7.29-2.39-3.41-3.58-8.19-3.58-14.33,0-8.19,2.77-14.6,8.32-19.25,5.54-4.65,13.64-6.97,24.3-6.97h4.35c9.89,0,17.54,2.13,22.96,6.4,5.42,4.26,8.51,10.45,9.27,18.55.08.85.13,2.13.13,3.84h-14.84c0-5.29-1.51-9.1-4.54-11.45-3.03-2.35-7.61-3.52-13.75-3.52h-4.22c-5.72,0-10,1.07-12.86,3.2-2.86,2.13-4.29,5.08-4.29,8.83s1.17,6.4,3.52,8.19c2.34,1.79,5.78,3.2,10.3,4.22l15.1,3.58c5.97,1.36,10.78,2.84,14.45,4.41,3.67,1.58,6.74,4.09,9.21,7.55,2.47,3.45,3.71,8.25,3.71,14.39,0,8.02-2.86,14.41-8.57,19.19-5.71,4.78-13.81,7.16-24.3,7.16h-6.27c-9.98,0-17.74-2.15-23.28-6.46Z"/>
    <path class="cls-1" d="M1042.16,545.41h14.58v76.75h46.69v14.2h-61.27v-90.95Z"/>
    <path class="cls-1" d="M1117.25,545.41h14.58v76.75h46.69v14.2h-61.27v-90.95Z"/>
    <path class="cls-1" d="M1203.46,633.79c-5.12-2.9-9.12-6.91-12.02-12.02-2.9-5.12-4.35-10.83-4.35-17.14v-27.5c0-6.31,1.45-12.02,4.35-17.14s6.91-9.12,12.02-12.02c5.12-2.9,10.83-4.35,17.14-4.35h8.57c6.73,0,12.64,1.51,17.71,4.54,5.07,3.03,8.97,7.1,11.7,12.22,2.73,5.12,4.09,10.7,4.09,16.76h-14.58c-.08-5.88-1.9-10.55-5.43-14.01-3.54-3.45-8.25-5.18-14.14-5.18h-7.04c-6.06,0-10.83,1.77-14.33,5.31-3.5,3.54-5.24,8.34-5.24,14.39v26.22c0,6.06,1.77,10.87,5.31,14.46,3.54,3.58,8.29,5.37,14.26,5.37h7.04c5.97,0,10.72-1.75,14.26-5.24,3.54-3.5,5.31-8.23,5.31-14.2h14.71c0,6.31-1.39,12.05-4.16,17.21-2.77,5.16-6.72,9.23-11.83,12.22s-11,4.48-17.65,4.48h-8.57c-6.31,0-12.02-1.45-17.14-4.35Z"/>
  </g>
</svg>