<?xml version="1.0" encoding="UTF-8"?>
<svg id="Layer_3" data-name="Layer 3" xmlns="http://www.w3.org/2000/svg" viewBox="0 0 1350 747.29">
  <defs>
    <style>
      .cls-1 {
        fill: #f46f21;
      }

      .cls-2 {
        fill: #213559;
      }
    </style>
  </defs>
  <g>
    <path class="cls-2" d="M529.88,459.16c-16.4-15.32-24.6-36.54-24.6-63.63,0-10.34.89-19.78,2.67-28.34l52.4-270.57h45.45l-18.72,95.18-5.88,25.67c18.18-14.25,42.06-21.39,71.66-21.39h17.11c27.45,0,49.19,7.75,65.23,23.26,16.04,15.51,24.06,36.45,24.06,62.83,0,9.99-.89,19.07-2.67,27.27l-11.77,60.96c-7.13,36.36-21.48,64.08-43.04,83.15-21.57,19.08-50,28.61-85.29,28.61h-17.65c-29.59,0-52.59-7.66-68.98-22.99ZM672.39,420.66c14.08-12.12,23.08-29.05,27-50.8l11.77-62.03c1.07-6.42,1.6-12.65,1.6-18.72,0-16.04-4.64-28.42-13.9-37.16-9.28-8.73-22.46-13.1-39.57-13.1h-15.51c-20.68,0-37.96,6.06-51.87,18.18-13.9,12.12-23,29.06-27.27,50.8l-12.3,62.03c-1.43,6.07-2.14,12.48-2.14,19.25,0,15.69,4.63,27.9,13.9,36.63,9.27,8.74,22.63,13.1,40.11,13.1h16.04c20.67,0,38.05-6.06,52.14-18.18Z"/>
    <path class="cls-2" d="M809.54,459.16c-16.4-15.32-24.6-36.54-24.6-63.63,0-10.34.89-19.78,2.67-28.34l11.23-59.35c7.12-36.36,21.56-64.07,43.31-83.15,21.74-19.07,50.26-28.61,85.56-28.61h16.57c29.59,0,52.67,7.75,69.25,23.26,16.57,15.51,24.86,36.63,24.86,63.36,0,10.35-.89,19.78-2.67,28.34l-11.77,59.35c-7.14,36.36-21.48,64.08-43.04,83.15-21.57,19.08-50,28.61-85.29,28.61h-16.58c-29.94,0-53.12-7.66-69.51-22.99ZM951.24,420.66c13.9-12.12,22.99-29.05,27.27-50.8l12.3-62.03c1.42-8.56,2.14-14.79,2.14-18.72,0-16.04-4.73-28.42-14.17-37.16-9.45-8.73-22.73-13.1-39.84-13.1h-15.51c-20.32,0-37.43,6.06-51.33,18.18-13.9,12.12-23,29.06-27.27,50.8l-12.3,62.03c-1.43,6.07-2.14,12.48-2.14,19.25,0,15.69,4.63,27.9,13.9,36.63,9.27,8.74,22.63,13.1,40.11,13.1h15.51c20.32,0,37.43-6.06,51.33-18.18Z"/>
    <path class="cls-2" d="M1311.64,203.03l-116.57,134.21,70.58,137.96h-50.27l-51.87-106.95-91.97,106.95h-58.82l125.12-142.23-64.7-129.94h50.8l46.52,100.53,82.88-100.53h58.28Z"/>
  </g>
  <path class="cls-1" d="M395.76,185.16h-233.55,0c10.28-49.36,53.79-84.73,104.2-84.73h236.56,0c-10.27,49.28-55.13,84.73-107.21,84.73Z"/>
  <path class="cls-1" d="M350.98,328.95h-215.06,0c9.44-49.18,52.46-84.73,102.53-84.73h211.25,0c-9.45,49.28-50.76,84.73-98.73,84.73Z"/>
  <path class="cls-1" d="M303.58,465.76H96.06h0c9.08-49.04,53.08-84.73,104.46-84.73h198.33,0c-9.12,49.28-48.98,84.73-95.27,84.73Z"/>
  <path class="cls-1" d="M46.03,465.76c9.16-51.66,22.39-94.31,34.47-126.65,1.83-4.9,3.63-9.56,5.39-13.98,41.62-104.55,78.17-123.74,89.7-129.06,18.23-8.41,35.43-10.5,47.25-10.91,9.74-28.24,82.12-56.49,91.85-84.73-19.7,0-53.07.45-83.89,1.94-37.98,1.83-56.9,4.03-68.59,8.15-56.09,19.77-76.17,99.02-94.8,172.57-10.97,43.3-22.3,105.6-21.39,182.66Z"/>
  <path class="cls-1" d="M56.65,465.76c.36-16.48,1.8-35.01,5.08-55.08,5.57-34.01,14.87-62.8,24.15-85.54-4.87,1.82-9.75,3.64-14.62,5.46l-25.25,135.17h10.63Z"/>
  <g>
    <path class="cls-2" d="M81.93,559.5c5.14,0,9.84,1.2,14.1,3.59,4.26,2.39,7.6,5.67,10.04,9.84,2.44,4.17,3.66,8.78,3.66,13.83v9.84c0,5.23-1.22,10-3.66,14.3-2.44,4.3-5.77,7.69-9.98,10.17-4.21,2.48-8.89,3.73-14.04,3.73l-29.26.13v29.13h-15.16v-94.57h44.29ZM52.8,610.31l27.4-.13c4.61,0,8.16-1.28,10.64-3.86,2.48-2.57,3.72-6.2,3.72-10.91v-6.65c0-4.7-1.24-8.33-3.72-10.91-2.48-2.57-6.03-3.86-10.64-3.86h-27.4v36.31Z"/>
    <path class="cls-2" d="M168.39,559.5c5.06,0,9.66,1.18,13.83,3.52,4.17,2.35,7.45,5.57,9.84,9.64,2.4,4.08,3.59,8.65,3.59,13.7v7.58c0,6.56-1.64,12.04-4.92,16.43-3.28,4.39-8.11,7.56-14.5,9.51l5.99,7.85,18.09,26.34h-17.96l-22.21-32.19h-20.35v32.19h-15.16v-94.57h43.76ZM176.77,603.86c2.39-2.53,3.59-6.1,3.59-10.71v-4.79c0-4.61-1.2-8.16-3.59-10.64-2.4-2.48-5.85-3.72-10.38-3.72h-26.6v33.65h26.74c4.43,0,7.85-1.26,10.24-3.79Z"/>
    <path class="cls-2" d="M227.45,651.41c-5.32-3.01-9.49-7.18-12.5-12.5-3.02-5.32-4.52-11.26-4.52-17.83v-28.6c0-6.56,1.5-12.5,4.52-17.82s7.18-9.49,12.5-12.5c5.32-3.01,11.26-4.52,17.83-4.52h11.84c6.65,0,12.64,1.51,17.96,4.52,5.32,3.02,9.49,7.18,12.5,12.5,3.01,5.32,4.52,11.26,4.52,17.82v28.6c0,6.56-1.53,12.5-4.59,17.83-3.06,5.32-7.25,9.49-12.57,12.5-5.32,3.01-11.27,4.52-17.83,4.52h-11.84c-6.56,0-12.5-1.51-17.83-4.52ZM271.07,635.45c3.73-3.72,5.59-8.73,5.59-15.03v-27.4c0-6.29-1.86-11.28-5.59-14.96-3.72-3.68-8.73-5.52-15.03-5.52h-9.71c-6.3,0-11.29,1.84-14.96,5.52-3.68,3.68-5.52,8.67-5.52,14.96v27.4c0,6.3,1.84,11.31,5.52,15.03,3.68,3.72,8.67,5.59,14.96,5.59h9.71c6.29,0,11.31-1.86,15.03-5.59Z"/>
    <path class="cls-2" d="M343.17,559.5h15.16v79.81h48.55v14.76h-63.71v-94.57Z"/>
    <path class="cls-2" d="M432.82,651.41c-5.32-3.01-9.49-7.18-12.5-12.5-3.02-5.32-4.52-11.26-4.52-17.83v-28.6c0-6.56,1.5-12.5,4.52-17.82,3.02-5.32,7.18-9.49,12.5-12.5,5.32-3.01,11.26-4.52,17.83-4.52h11.84c6.65,0,12.64,1.51,17.96,4.52,5.32,3.02,9.49,7.18,12.5,12.5,3.01,5.32,4.52,11.26,4.52,17.82v28.6c0,6.56-1.53,12.5-4.59,17.83-3.06,5.32-7.25,9.49-12.57,12.5-5.32,3.01-11.27,4.52-17.83,4.52h-11.84c-6.56,0-12.5-1.51-17.83-4.52ZM476.44,635.45c3.73-3.72,5.59-8.73,5.59-15.03v-27.4c0-6.29-1.86-11.28-5.59-14.96-3.72-3.68-8.73-5.52-15.03-5.52h-9.71c-6.3,0-11.29,1.84-14.96,5.52-3.68,3.68-5.52,8.67-5.52,14.96v27.4c0,6.3,1.84,11.31,5.52,15.03,3.68,3.72,8.67,5.59,14.96,5.59h9.71c6.29,0,11.31-1.86,15.03-5.59Z"/>
    <path class="cls-2" d="M529.58,651.41c-5.27-3.01-9.4-7.18-12.37-12.5-2.97-5.32-4.46-11.26-4.46-17.83v-28.6c0-6.56,1.48-12.5,4.46-17.82,2.97-5.32,7.1-9.49,12.37-12.5,5.28-3.01,11.19-4.52,17.76-4.52h10.11c6.47,0,12.28,1.42,17.42,4.26,5.14,2.84,9.22,6.76,12.23,11.77,3.02,5.01,4.66,10.66,4.92,16.96l-15.3.13c-.53-5.67-2.6-10.13-6.19-13.37-3.59-3.24-8.31-4.86-14.17-4.86h-7.98c-6.3,0-11.29,1.84-14.96,5.52-3.68,3.68-5.52,8.71-5.52,15.1v27.27c0,6.3,1.84,11.31,5.52,15.03,3.68,3.72,8.67,5.59,14.96,5.59h7.98c6.3,0,11.29-1.84,14.96-5.52,3.68-3.68,5.52-8.62,5.52-14.83v-2.66h-23.94v-14.1h39.24v17.16c0,6.56-1.51,12.5-4.52,17.83-3.02,5.32-7.16,9.49-12.44,12.5-5.27,3.01-11.19,4.52-17.75,4.52h-10.11c-6.56,0-12.48-1.51-17.76-4.52Z"/>
    <path class="cls-2" d="M609.19,559.5h15.16v94.57h-15.16v-94.57Z"/>
    <path class="cls-2" d="M650.16,649.22c-5.77-4.48-9-10.97-9.71-19.49-.09-.71-.13-1.95-.13-3.72h15.43c0,5.41,1.68,9.31,5.05,11.7,3.37,2.39,8.25,3.59,14.63,3.59h6.38c5.77,0,10.15-1.13,13.17-3.39,3.01-2.26,4.56-5.25,4.65-8.98,0-4.17-1.26-7.2-3.79-9.11s-6.41-3.44-11.64-4.59l-15.7-3.59c-6.12-1.33-10.97-2.75-14.56-4.26-3.59-1.51-6.63-4.03-9.11-7.58-2.48-3.55-3.72-8.51-3.72-14.9,0-8.51,2.88-15.18,8.64-20.02,5.77-4.83,14.19-7.25,25.27-7.25h4.52c10.29,0,18.24,2.22,23.87,6.65,5.63,4.43,8.85,10.86,9.64,19.29.09.89.13,2.22.13,3.99h-15.43c0-5.5-1.58-9.46-4.72-11.9-3.15-2.44-7.92-3.66-14.3-3.66h-4.39c-5.94,0-10.4,1.11-13.37,3.33-2.97,2.22-4.46,5.28-4.46,9.18s1.22,6.65,3.66,8.51c2.44,1.86,6,3.33,10.71,4.39l15.69,3.72c6.21,1.42,11.22,2.95,15.03,4.59,3.81,1.64,7,4.26,9.58,7.85,2.57,3.59,3.86,8.58,3.86,14.96,0,8.34-2.97,14.99-8.91,19.95-5.94,4.97-14.37,7.45-25.27,7.45h-6.52c-10.37,0-18.44-2.24-24.21-6.72Z"/>
    <path class="cls-2" d="M752.18,574.13h-30.46v-14.63h76.22v14.63h-30.59v79.94h-15.17v-79.94Z"/>
    <path class="cls-2" d="M810.84,559.5h15.16v94.57h-15.16v-94.57Z"/>
    <path class="cls-2" d="M860.85,651.41c-5.32-3.01-9.49-7.18-12.5-12.5-3.02-5.32-4.52-11.26-4.52-17.83v-28.6c0-6.56,1.51-12.5,4.52-17.82,3.01-5.32,7.18-9.49,12.5-12.5,5.32-3.01,11.26-4.52,17.82-4.52h8.91c7,0,13.15,1.58,18.42,4.72,5.28,3.15,9.33,7.38,12.17,12.7,2.84,5.32,4.26,11.13,4.26,17.42h-15.16c-.09-6.12-1.98-10.97-5.65-14.57-3.68-3.59-8.58-5.39-14.7-5.39h-7.31c-6.3,0-11.26,1.84-14.9,5.52-3.64,3.68-5.46,8.67-5.46,14.96v27.27c0,6.3,1.84,11.31,5.52,15.03,3.68,3.72,8.62,5.59,14.83,5.59h7.31c6.21,0,11.15-1.82,14.83-5.45,3.68-3.64,5.52-8.56,5.52-14.77h15.3c0,6.56-1.44,12.53-4.33,17.89-2.88,5.37-6.98,9.6-12.3,12.7-5.32,3.1-11.44,4.66-18.36,4.66h-8.91c-6.56,0-12.5-1.51-17.82-4.52Z"/>
    <path class="cls-2" d="M944.11,649.22c-5.77-4.48-9-10.97-9.71-19.49-.09-.71-.13-1.95-.13-3.72h15.43c0,5.41,1.68,9.31,5.06,11.7,3.37,2.39,8.25,3.59,14.63,3.59h6.38c5.76,0,10.15-1.13,13.17-3.39,3.02-2.26,4.57-5.25,4.65-8.98,0-4.17-1.26-7.2-3.79-9.11-2.53-1.91-6.41-3.44-11.64-4.59l-15.69-3.59c-6.12-1.33-10.97-2.75-14.56-4.26-3.59-1.51-6.63-4.03-9.11-7.58-2.48-3.55-3.73-8.51-3.73-14.9,0-8.51,2.88-15.18,8.65-20.02,5.76-4.83,14.19-7.25,25.27-7.25h4.52c10.29,0,18.24,2.22,23.88,6.65,5.63,4.43,8.85,10.86,9.64,19.29.09.89.13,2.22.13,3.99h-15.43c0-5.5-1.58-9.46-4.72-11.9-3.15-2.44-7.91-3.66-14.3-3.66h-4.39c-5.94,0-10.4,1.11-13.37,3.33-2.97,2.22-4.46,5.28-4.46,9.18s1.22,6.65,3.66,8.51c2.44,1.86,6.01,3.33,10.71,4.39l15.7,3.72c6.2,1.42,11.21,2.95,15.03,4.59,3.81,1.64,7,4.26,9.58,7.85,2.57,3.59,3.86,8.58,3.86,14.96,0,8.34-2.97,14.99-8.91,19.95-5.94,4.97-14.37,7.45-25.27,7.45h-6.52c-10.38,0-18.44-2.24-24.21-6.72Z"/>
    <path class="cls-2" d="M1057.31,559.5h15.16v79.81h48.55v14.76h-63.71v-94.57Z"/>
    <path class="cls-2" d="M1135.38,559.5h15.16v79.81h48.55v14.76h-63.71v-94.57Z"/>
    <path class="cls-2" d="M1225.03,651.41c-5.32-3.01-9.49-7.18-12.5-12.5-3.02-5.32-4.52-11.26-4.52-17.83v-28.6c0-6.56,1.5-12.5,4.52-17.82,3.02-5.32,7.18-9.49,12.5-12.5,5.32-3.01,11.26-4.52,17.83-4.52h8.91c7,0,13.14,1.58,18.42,4.72,5.27,3.15,9.33,7.38,12.17,12.7,2.84,5.32,4.26,11.13,4.26,17.42h-15.17c-.09-6.12-1.97-10.97-5.65-14.57-3.68-3.59-8.58-5.39-14.7-5.39h-7.32c-6.3,0-11.26,1.84-14.9,5.52-3.64,3.68-5.45,8.67-5.45,14.96v27.27c0,6.3,1.84,11.31,5.52,15.03,3.68,3.72,8.62,5.59,14.83,5.59h7.32c6.21,0,11.15-1.82,14.83-5.45,3.68-3.64,5.52-8.56,5.52-14.77h15.3c0,6.56-1.44,12.53-4.32,17.89-2.88,5.37-6.98,9.6-12.31,12.7-5.32,3.1-11.44,4.66-18.35,4.66h-8.91c-6.56,0-12.5-1.51-17.83-4.52Z"/>
  </g>
</svg>