<?xml version="1.0" encoding="UTF-8"?>
<svg id="Layer_3" data-name="Layer 3" xmlns="http://www.w3.org/2000/svg" viewBox="0 0 1350 747.29">
  <defs>
    <style>
      .cls-1 {
        fill: #f46f21;
      }

      .cls-2 {
        fill: #fff;
      }
    </style>
  </defs>
  <g>
    <path class="cls-2" d="M537.09,429.49c-15.73-14.69-23.59-35.04-23.59-61.02,0-9.91.85-18.97,2.56-27.18l50.25-259.46h43.59l-17.95,91.27-5.64,24.61c17.44-13.67,40.33-20.51,68.71-20.51h16.41c26.32,0,47.17,7.44,62.56,22.31,15.38,14.87,23.08,34.96,23.08,60.25,0,9.58-.86,18.29-2.56,26.15l-11.28,58.46c-6.84,34.87-20.6,61.45-41.28,79.73-20.69,18.29-47.94,27.43-81.79,27.43h-16.92c-28.38,0-50.43-7.35-66.15-22.05ZM673.74,392.57c13.5-11.62,22.13-27.86,25.89-48.71l11.28-59.48c1.03-6.15,1.54-12.13,1.54-17.95,0-15.38-4.45-27.25-13.33-35.64-8.9-8.37-21.54-12.56-37.95-12.56h-14.87c-19.83,0-36.41,5.81-49.74,17.43-13.33,11.63-22.05,27.87-26.15,48.71l-11.79,59.48c-1.37,5.82-2.05,11.97-2.05,18.46,0,15.05,4.44,26.75,13.33,35.13,8.89,8.38,21.7,12.56,38.46,12.56h15.38c19.82,0,36.49-5.81,49.99-17.43Z"/>
    <path class="cls-2" d="M805.26,429.49c-15.73-14.69-23.59-35.04-23.59-61.02,0-9.91.85-18.97,2.56-27.18l10.77-56.92c6.83-34.87,20.68-61.44,41.53-79.74,20.85-18.28,48.2-27.43,82.04-27.43h15.89c28.37,0,50.51,7.44,66.41,22.31,15.89,14.87,23.84,35.12,23.84,60.76,0,9.92-.86,18.97-2.56,27.18l-11.28,56.92c-6.84,34.87-20.6,61.45-41.28,79.73-20.69,18.29-47.94,27.43-81.79,27.43h-15.9c-28.72,0-50.94-7.35-66.66-22.05ZM941.15,392.57c13.33-11.62,22.05-27.86,26.15-48.71l11.79-59.48c1.36-8.2,2.05-14.18,2.05-17.95,0-15.38-4.54-27.25-13.59-35.64-9.06-8.37-21.79-12.56-38.2-12.56h-14.87c-19.48,0-35.89,5.81-49.22,17.43-13.33,11.63-22.05,27.87-26.15,48.71l-11.79,59.48c-1.37,5.82-2.05,11.97-2.05,18.46,0,15.05,4.44,26.75,13.33,35.13,8.89,8.38,21.7,12.56,38.46,12.56h14.87c19.49,0,35.89-5.81,49.23-17.43Z"/>
    <path class="cls-2" d="M1286.75,183.88l-111.78,128.7,67.68,132.29h-48.2l-49.74-102.55-88.2,102.55h-56.4l119.99-136.39-62.05-124.6h48.71l44.61,96.4,79.48-96.4h55.89Z"/>
  </g>
  <path class="cls-1" d="M408.47,166.74h-223.96,0c9.86-47.33,51.58-81.25,99.92-81.25h226.85,0c-9.85,47.25-52.86,81.25-102.81,81.25Z"/>
  <path class="cls-1" d="M365.53,304.63h-206.23,0c9.05-47.16,50.3-81.25,98.32-81.25h202.58,0c-9.07,47.25-48.68,81.25-94.67,81.25Z"/>
  <path class="cls-1" d="M320.08,435.82H121.08h0c8.71-47.03,50.9-81.25,100.17-81.25h190.19,0c-8.75,47.25-46.97,81.25-91.36,81.25Z"/>
  <path class="cls-1" d="M73.1,435.82c8.79-49.54,21.47-90.44,33.06-121.45,1.75-4.7,3.48-9.17,5.17-13.4,39.91-100.26,74.97-118.66,86.02-123.76,17.48-8.06,33.97-10.07,45.31-10.46,9.34-27.08,78.75-54.17,88.08-81.25-18.89,0-50.89.43-80.45,1.86-36.42,1.76-54.56,3.87-65.77,7.82-53.79,18.96-73.04,94.95-90.9,165.49-10.52,41.53-21.38,101.27-20.51,175.16Z"/>
  <path class="cls-1" d="M83.29,435.82c.35-15.81,1.72-33.58,4.88-52.82,5.34-32.62,14.26-60.22,23.16-82.03-4.67,1.75-9.35,3.49-14.02,5.24l-24.21,129.62h10.19Z"/>
  <g>
    <path class="cls-2" d="M107.53,525.71c4.93,0,9.44,1.15,13.52,3.44,4.08,2.3,7.29,5.44,9.63,9.44,2.34,4,3.51,8.42,3.51,13.26v9.44c0,5.02-1.17,9.59-3.51,13.71-2.34,4.12-5.53,7.38-9.57,9.76-4.04,2.38-8.53,3.57-13.46,3.57l-28.06.13v27.93h-14.54v-90.69h42.47ZM79.59,574.44l26.28-.13c4.42,0,7.82-1.23,10.21-3.7,2.38-2.47,3.57-5.95,3.57-10.46v-6.38c0-4.51-1.19-7.99-3.57-10.46-2.38-2.47-5.78-3.7-10.21-3.7h-26.28v34.82Z"/>
    <path class="cls-2" d="M190.43,525.71c4.85,0,9.27,1.13,13.27,3.38,4,2.25,7.14,5.34,9.44,9.25,2.3,3.91,3.44,8.29,3.44,13.14v7.27c0,6.29-1.58,11.54-4.72,15.75-3.15,4.21-7.78,7.25-13.9,9.12l5.74,7.53,17.35,25.26h-17.22l-21.3-30.87h-19.52v30.87h-14.54v-90.69h41.96ZM198.47,568.25c2.3-2.42,3.44-5.85,3.44-10.27v-4.59c0-4.42-1.15-7.82-3.44-10.2-2.3-2.38-5.61-3.57-9.95-3.57h-25.51v32.27h25.64c4.25,0,7.53-1.21,9.82-3.63Z"/>
    <path class="cls-2" d="M247.07,613.85c-5.1-2.89-9.1-6.89-11.99-11.99-2.89-5.1-4.34-10.8-4.34-17.09v-27.43c0-6.29,1.44-11.99,4.34-17.09,2.89-5.1,6.89-9.1,11.99-11.99,5.1-2.89,10.8-4.34,17.09-4.34h11.35c6.38,0,12.12,1.45,17.22,4.34,5.1,2.89,9.1,6.89,11.99,11.99,2.89,5.1,4.34,10.8,4.34,17.09v27.43c0,6.29-1.47,11.99-4.4,17.09-2.93,5.1-6.95,9.1-12.05,11.99-5.1,2.89-10.8,4.34-17.09,4.34h-11.35c-6.29,0-11.99-1.45-17.09-4.34ZM288.9,598.55c3.57-3.57,5.36-8.37,5.36-14.41v-26.28c0-6.04-1.79-10.82-5.36-14.35-3.57-3.53-8.38-5.29-14.41-5.29h-9.31c-6.04,0-10.82,1.77-14.35,5.29-3.53,3.53-5.29,8.31-5.29,14.35v26.28c0,6.04,1.76,10.84,5.29,14.41,3.53,3.57,8.31,5.36,14.35,5.36h9.31c6.04,0,10.84-1.78,14.41-5.36Z"/>
    <path class="cls-2" d="M358.04,525.71h14.54v76.53h46.56v14.16h-61.1v-90.69Z"/>
    <path class="cls-2" d="M444.01,613.85c-5.1-2.89-9.1-6.89-11.99-11.99-2.89-5.1-4.34-10.8-4.34-17.09v-27.43c0-6.29,1.44-11.99,4.34-17.09,2.89-5.1,6.89-9.1,11.99-11.99,5.1-2.89,10.8-4.34,17.09-4.34h11.35c6.38,0,12.12,1.45,17.22,4.34,5.1,2.89,9.1,6.89,11.99,11.99,2.89,5.1,4.34,10.8,4.34,17.09v27.43c0,6.29-1.47,11.99-4.4,17.09-2.93,5.1-6.95,9.1-12.05,11.99-5.1,2.89-10.8,4.34-17.09,4.34h-11.35c-6.29,0-11.99-1.45-17.09-4.34ZM485.84,598.55c3.57-3.57,5.36-8.37,5.36-14.41v-26.28c0-6.04-1.79-10.82-5.36-14.35-3.57-3.53-8.38-5.29-14.41-5.29h-9.31c-6.04,0-10.82,1.77-14.35,5.29-3.53,3.53-5.29,8.31-5.29,14.35v26.28c0,6.04,1.76,10.84,5.29,14.41,3.53,3.57,8.31,5.36,14.35,5.36h9.31c6.04,0,10.84-1.78,14.41-5.36Z"/>
    <path class="cls-2" d="M536.8,613.85c-5.06-2.89-9.02-6.89-11.86-11.99-2.85-5.1-4.27-10.8-4.27-17.09v-27.43c0-6.29,1.42-11.99,4.27-17.09,2.85-5.1,6.8-9.1,11.86-11.99,5.06-2.89,10.73-4.34,17.03-4.34h9.69c6.21,0,11.78,1.36,16.71,4.08,4.93,2.72,8.84,6.49,11.73,11.29,2.89,4.81,4.46,10.23,4.72,16.26l-14.67.13c-.51-5.44-2.49-9.71-5.93-12.82-3.44-3.1-7.97-4.65-13.59-4.65h-7.65c-6.04,0-10.82,1.77-14.35,5.29s-5.29,8.35-5.29,14.48v26.15c0,6.04,1.76,10.84,5.29,14.41,3.53,3.57,8.31,5.36,14.35,5.36h7.65c6.04,0,10.82-1.76,14.35-5.29,3.53-3.53,5.29-8.27,5.29-14.22v-2.55h-22.96v-13.52h37.63v16.45c0,6.29-1.45,11.99-4.34,17.09-2.89,5.1-6.87,9.1-11.93,11.99-5.06,2.89-10.74,4.34-17.03,4.34h-9.69c-6.29,0-11.97-1.45-17.03-4.34Z"/>
    <path class="cls-2" d="M613.14,525.71h14.54v90.69h-14.54v-90.69Z"/>
    <path class="cls-2" d="M652.42,611.75c-5.53-4.29-8.63-10.52-9.31-18.69-.09-.68-.13-1.87-.13-3.57h14.8c0,5.19,1.61,8.93,4.85,11.22,3.23,2.3,7.91,3.44,14.03,3.44h6.12c5.53,0,9.74-1.08,12.63-3.25,2.89-2.17,4.38-5.04,4.46-8.61,0-4-1.21-6.91-3.63-8.74-2.42-1.83-6.14-3.29-11.16-4.4l-15.05-3.44c-5.87-1.28-10.52-2.63-13.97-4.08-3.44-1.45-6.36-3.87-8.74-7.27-2.38-3.4-3.57-8.16-3.57-14.29,0-8.16,2.76-14.56,8.29-19.2,5.53-4.63,13.6-6.95,24.23-6.95h4.34c9.86,0,17.49,2.13,22.89,6.38,5.4,4.25,8.48,10.42,9.25,18.5.08.85.13,2.13.13,3.83h-14.79c0-5.27-1.51-9.08-4.53-11.41s-7.59-3.51-13.71-3.51h-4.21c-5.7,0-9.97,1.06-12.82,3.19-2.85,2.13-4.27,5.06-4.27,8.8s1.17,6.38,3.51,8.16c2.34,1.79,5.76,3.19,10.27,4.21l15.05,3.57c5.95,1.36,10.75,2.83,14.41,4.4,3.66,1.57,6.72,4.08,9.18,7.53,2.47,3.44,3.7,8.23,3.7,14.35,0,7.99-2.85,14.37-8.55,19.13-5.7,4.76-13.78,7.14-24.23,7.14h-6.25c-9.95,0-17.69-2.15-23.22-6.44Z"/>
    <path class="cls-2" d="M750.26,539.74h-29.21v-14.03h73.09v14.03h-29.34v76.66h-14.54v-76.66Z"/>
    <path class="cls-2" d="M806.5,525.71h14.54v90.69h-14.54v-90.69Z"/>
    <path class="cls-2" d="M854.46,613.85c-5.1-2.89-9.1-6.89-11.99-11.99-2.89-5.1-4.34-10.8-4.34-17.09v-27.43c0-6.29,1.44-11.99,4.34-17.09,2.89-5.1,6.89-9.1,11.99-11.99,5.1-2.89,10.8-4.34,17.09-4.34h8.55c6.72,0,12.61,1.51,17.67,4.53,5.06,3.02,8.95,7.08,11.67,12.18,2.72,5.1,4.08,10.67,4.08,16.71h-14.54c-.09-5.87-1.89-10.52-5.42-13.97-3.53-3.44-8.23-5.17-14.09-5.17h-7.02c-6.04,0-10.8,1.77-14.29,5.29-3.49,3.53-5.23,8.31-5.23,14.35v26.15c0,6.04,1.76,10.84,5.29,14.41,3.53,3.57,8.27,5.36,14.22,5.36h7.02c5.95,0,10.69-1.74,14.22-5.23,3.53-3.49,5.29-8.2,5.29-14.16h14.67c0,6.29-1.38,12.01-4.15,17.16-2.76,5.15-6.7,9.2-11.8,12.18-5.1,2.97-10.97,4.46-17.6,4.46h-8.55c-6.29,0-11.99-1.45-17.09-4.34Z"/>
    <path class="cls-2" d="M934.31,611.75c-5.53-4.29-8.63-10.52-9.31-18.69-.09-.68-.13-1.87-.13-3.57h14.8c0,5.19,1.61,8.93,4.85,11.22,3.23,2.3,7.91,3.44,14.03,3.44h6.12c5.53,0,9.74-1.08,12.63-3.25,2.89-2.17,4.38-5.04,4.46-8.61,0-4-1.21-6.91-3.63-8.74-2.42-1.83-6.14-3.29-11.16-4.4l-15.05-3.44c-5.87-1.28-10.52-2.63-13.97-4.08-3.44-1.45-6.36-3.87-8.74-7.27-2.38-3.4-3.57-8.16-3.57-14.29,0-8.16,2.76-14.56,8.29-19.2,5.53-4.63,13.6-6.95,24.23-6.95h4.34c9.86,0,17.49,2.13,22.89,6.38,5.4,4.25,8.48,10.42,9.25,18.5.08.85.13,2.13.13,3.83h-14.79c0-5.27-1.51-9.08-4.53-11.41-3.02-2.34-7.59-3.51-13.71-3.51h-4.21c-5.7,0-9.97,1.06-12.82,3.19-2.85,2.13-4.27,5.06-4.27,8.8s1.17,6.38,3.51,8.16c2.34,1.79,5.76,3.19,10.27,4.21l15.05,3.57c5.95,1.36,10.75,2.83,14.41,4.4,3.66,1.57,6.72,4.08,9.18,7.53,2.47,3.44,3.7,8.23,3.7,14.35,0,7.99-2.85,14.37-8.55,19.13-5.7,4.76-13.78,7.14-24.23,7.14h-6.25c-9.95,0-17.69-2.15-23.22-6.44Z"/>
    <path class="cls-2" d="M1042.85,525.71h14.54v76.53h46.56v14.16h-61.1v-90.69Z"/>
    <path class="cls-2" d="M1117.73,525.71h14.54v76.53h46.56v14.16h-61.1v-90.69Z"/>
    <path class="cls-2" d="M1203.69,613.85c-5.1-2.89-9.1-6.89-11.99-11.99-2.89-5.1-4.34-10.8-4.34-17.09v-27.43c0-6.29,1.44-11.99,4.34-17.09,2.89-5.1,6.89-9.1,11.99-11.99,5.1-2.89,10.8-4.34,17.09-4.34h8.55c6.72,0,12.61,1.51,17.67,4.53,5.06,3.02,8.95,7.08,11.67,12.18,2.72,5.1,4.08,10.67,4.08,16.71h-14.54c-.09-5.87-1.89-10.52-5.42-13.97-3.53-3.44-8.23-5.17-14.09-5.17h-7.02c-6.04,0-10.8,1.77-14.29,5.29-3.49,3.53-5.23,8.31-5.23,14.35v26.15c0,6.04,1.76,10.84,5.29,14.41,3.53,3.57,8.27,5.36,14.22,5.36h7.02c5.95,0,10.69-1.74,14.22-5.23,3.53-3.49,5.29-8.2,5.29-14.16h14.67c0,6.29-1.38,12.01-4.15,17.16-2.76,5.15-6.7,9.2-11.8,12.18-5.1,2.97-10.97,4.46-17.6,4.46h-8.55c-6.29,0-11.99-1.45-17.09-4.34Z"/>
  </g>
</svg>